<?xml version="1.0" encoding="utf-8"?>
<!-- Generator: Adobe Illustrator 27.5.0, SVG Export Plug-In . SVG Version: 6.00 Build 0)  -->
<svg version="1.1" xmlns="http://www.w3.org/2000/svg" xmlns:xlink="http://www.w3.org/1999/xlink" x="0px" y="0px"
	 viewBox="0 0 500 500" style="enable-background:new 0 0 500 500;" xml:space="preserve">
<g id="BACKGROUND">
	<rect style="fill:#FFFFFF;" width="500" height="500"/>
</g>
<g id="OBJECTS">
	<path style="opacity:0.23;fill:#FFA9A9;" d="M137.212,162.001c-7.81,2.272-15.175,6.481-21.333,12.639
		c-5.118,5.118-8.88,11.073-11.313,17.422c-5.109-4.91-12.045-7.934-19.691-7.934c-15.413,0-27.952,12.267-28.409,27.569h-1.745
		c-16.111,0-29.292,13.181-29.292,29.292c0,16.111,13.181,29.292,29.292,29.292h82.491V162.001z"/>
	<path style="opacity:0.23;fill:#FFA9A9;" d="M358.988,177.809c7.81,2.272,15.176,6.481,21.333,12.638
		c5.118,5.118,8.88,11.073,11.313,17.422c5.109-4.91,12.045-7.934,19.691-7.934c15.413,0,27.952,12.267,28.409,27.569h1.745
		c16.111,0,29.292,13.181,29.292,29.292c0,16.111-13.181,29.292-29.292,29.292h-82.491V177.809z"/>
	<path style="fill:#A595FA;" d="M213.661,442.594H21.888c-1.354-20.557,15.182-42.217,35.396-46.195
		c20.214-3.979,42.377,8.911,48.915,28.448c5.521-9.277,19.974-11.908,30.538-9.682c10.564,2.227,19.457,9.631,25.727,18.419
		c4.847-5.058,10.991-8.995,17.937-9.899C192.434,422.121,204.599,434.527,213.661,442.594z"/>
	<path style="fill:#A595FA;" d="M286.339,444.702h191.773c1.354-20.557-15.182-42.217-35.396-46.195
		c-20.214-3.979-42.377,8.911-48.915,28.448c-5.521-9.277-19.974-11.908-30.538-9.682c-10.564,2.227-19.458,9.631-25.728,18.419
		c-4.847-5.058-10.991-8.995-17.937-9.899C307.566,424.229,295.401,436.634,286.339,444.702z"/>
	<g>
		
			<path style="fill:none;stroke:#DBCCFF;stroke-width:2.5735;stroke-linecap:round;stroke-linejoin:round;stroke-miterlimit:10;" d="
			M158.357,319.836l-9.734,2.556c-1.119-1.432-2.327-2.781-3.614-4.042l4.005-8.628c0.351-0.755,0.02-1.66-0.736-2.011
			l-18.757-8.706c-0.756-0.35-1.66-0.019-2.011,0.736l-3.506,7.554c-2.348-0.46-4.752-0.717-7.185-0.755l0,0l-2.133-8.124
			c-0.212-0.805-1.044-1.292-1.849-1.08l-20.001,5.252c-0.806,0.212-1.292,1.044-1.08,1.849l2.239,8.528
			c-2.066,1.311-3.993,2.796-5.768,4.426l-7.482-5.371c-0.677-0.486-1.628-0.33-2.113,0.347l-12.06,16.798
			c-0.486,0.676-0.33,1.628,0.347,2.113l9.163,6.579c0,0,0,0,0,0c-0.309,1.243-0.562,2.505-0.754,3.781l-13.237,3.476
			c-0.806,0.212-1.292,1.044-1.081,1.849l5.252,20.001c0.212,0.805,1.044,1.292,1.85,1.08l10.642-2.794
			c1.688,3.622,3.867,6.915,6.432,9.816c0,0,0,0.001,0.001,0.001l-5.456,11.755c-0.351,0.755-0.02,1.66,0.736,2.011l18.757,8.706
			c0.756,0.351,1.661,0.019,2.011-0.736l4.257-9.171c2.744,0.735,5.577,1.189,8.462,1.339l2.797,10.654
			c0.212,0.806,1.044,1.292,1.85,1.08l20.001-5.252c0.805-0.211,1.291-1.044,1.08-1.849l-2.691-10.25l0,0
			c2.679-1.568,5.14-3.42,7.356-5.505c0,0,0,0,0,0l7.786,5.59c0.677,0.486,1.628,0.33,2.113-0.347l12.06-16.798
			c0.486-0.677,0.33-1.628-0.347-2.113l-9.693-6.959l0,0c0.958-4.053,1.308-8.29,0.975-12.58l7.139-1.875
			c0.806-0.211,1.291-1.044,1.08-1.849l-5.252-20.001C159.994,320.111,159.162,319.625,158.357,319.836z"/>
		
			<ellipse transform="matrix(0.7071 -0.7071 0.7071 0.7071 -213.0198 183.8946)" style="fill:none;stroke:#DBCCFF;stroke-width:2.5735;stroke-linecap:round;stroke-linejoin:round;stroke-miterlimit:10;" cx="115.47" cy="349.085" rx="19.73" ry="19.73"/>
		
			<ellipse transform="matrix(0.8797 -0.4755 0.4755 0.8797 -152.0906 96.885)" style="fill:none;stroke:#DBCCFF;stroke-width:2.5735;stroke-linecap:round;stroke-linejoin:round;stroke-miterlimit:10;" cx="115.47" cy="349.085" rx="30.188" ry="30.188"/>
	</g>
	<path style="fill:none;stroke:#2D1A14;stroke-width:0.5269;stroke-miterlimit:10;" d="M62.386,80.58
		c0,1.31-1.062,2.371-2.371,2.371s-2.372-1.062-2.372-2.371c0-1.31,1.062-2.372,2.372-2.372S62.386,79.27,62.386,80.58z"/>
	<circle style="fill:none;stroke:#2D1A14;stroke-width:0.5269;stroke-miterlimit:10;" cx="58.697" cy="247.886" r="2.372"/>
	<circle style="fill:none;stroke:#2D1A14;stroke-width:0.5269;stroke-miterlimit:10;" cx="444.423" cy="266.33" r="2.371"/>
	<circle style="fill:none;stroke:#2D1A14;stroke-width:0.5269;stroke-miterlimit:10;" cx="58.433" cy="414.665" r="2.372"/>
	<path style="fill:none;stroke:#2D1A14;stroke-width:0.5269;stroke-miterlimit:10;" d="M417.232,380.49
		c0,1.31-1.062,2.371-2.371,2.371c-1.31,0-2.371-1.062-2.371-2.371c0-1.31,1.062-2.372,2.371-2.372
		C416.17,378.118,417.232,379.18,417.232,380.49z"/>
	<path style="fill:none;stroke:#2D1A14;stroke-width:0.5269;stroke-miterlimit:10;" d="M90.315,62.664
		c0,3.493-2.831,6.324-6.324,6.324c-3.493,0-6.324-2.831-6.324-6.324c0-3.493,2.831-6.324,6.324-6.324
		C87.483,56.34,90.315,59.172,90.315,62.664z"/>
	<circle style="fill:none;stroke:#2D1A14;stroke-width:0.5269;stroke-miterlimit:10;" cx="80.829" cy="419.935" r="6.324"/>
	<path style="fill:none;stroke:#2D1A14;stroke-width:0.5269;stroke-miterlimit:10;" d="M393.836,402.019
		c0,3.493-2.831,6.324-6.324,6.324c-3.493,0-6.324-2.831-6.324-6.324c0-3.493,2.831-6.324,6.324-6.324
		C391.005,395.695,393.836,398.526,393.836,402.019z"/>
	<circle style="fill:none;stroke:#2D1A14;stroke-width:0.5269;stroke-miterlimit:10;" cx="430.671" cy="418.434" r="6.324"/>
	<circle style="fill:none;stroke:#2D1A14;stroke-width:0.5269;stroke-miterlimit:10;" cx="188.327" cy="66.879" r="6.324"/>
	<circle style="fill:none;stroke:#2D1A14;stroke-width:0.5269;stroke-miterlimit:10;" cx="58.697" cy="278.712" r="6.324"/>
	<circle style="fill:none;stroke:#2D1A14;stroke-width:0.5269;stroke-miterlimit:10;" cx="448.639" cy="227.072" r="6.324"/>
	<g>
		<path style="fill:#7171EA;" d="M335.63,142.812c9.6,0,17.382,7.782,17.382,17.382v166.024c0,9.6-7.782,17.382-17.382,17.382
			H169.607c-9.6,0-17.382-7.782-17.382-17.382V160.194c0-9.6,7.782-17.382,17.382-17.382H335.63 M335.63,120.68H169.607
			c-21.788,0-39.514,17.726-39.514,39.514v166.024c0,21.788,17.726,39.514,39.514,39.514H335.63
			c21.788,0,39.514-17.726,39.514-39.514V160.194C375.144,138.406,357.418,120.68,335.63,120.68L335.63,120.68z"/>
		<path style="fill:#230B19;" d="M181.63,130.885c1.476,4.044,3.116,8.031,4.942,11.927H335.63c9.6,0,17.382,7.782,17.382,17.382
			v55.93c3.024-0.003,6.048,0.025,9.068,0.116c0.36,0.011,0.652,0.239,0.762,0.58c2.177,6.765,4.188,13.582,6.401,20.336
			c1.835,5.597,3.76,11.219,5.9,16.759v-93.722c0-21.788-17.726-39.514-39.514-39.514H178.2
			C179.266,124.106,180.399,127.512,181.63,130.885z"/>
		<path style="fill:#DBCCFF;" d="M335.63,343.599H169.606c-9.6,0-17.382-7.782-17.382-17.382V160.193
			c0-9.6,7.782-17.382,17.382-17.382H335.63c9.6,0,17.382,7.782,17.382,17.382v166.024
			C353.012,335.817,345.23,343.599,335.63,343.599z"/>
		
			<path style="fill:none;stroke:#FFFFFF;stroke-width:2.6347;stroke-linecap:round;stroke-linejoin:round;stroke-miterlimit:10;" d="
			M324.138,329.7H181.099c-8.271,0-14.975-6.705-14.975-14.975V171.686c0-8.271,6.705-14.975,14.975-14.975h143.039
			c8.271,0,14.975,6.705,14.975,14.975v143.039C339.113,322.996,332.408,329.7,324.138,329.7z"/>
		<path style="fill:#A595FA;" d="M317.998,322.275H187.239c-7.561,0-13.69-6.129-13.69-13.69V177.826
			c0-7.561,6.129-13.69,13.69-13.69h130.759c7.561,0,13.69,6.129,13.69,13.69v130.759
			C331.688,316.146,325.558,322.275,317.998,322.275z"/>
		<g>
			<path style="fill:#FFBD51;" d="M219.416,136.411L219.416,136.411c-6.303,0-11.461-5.157-11.461-11.461V80.689
				c0-6.303,5.157-11.461,11.461-11.461l0,0c6.303,0,11.461,5.157,11.461,11.461v44.261
				C230.877,131.254,225.719,136.411,219.416,136.411z"/>
			<path style="fill:#FFBD51;" d="M258.935,136.411L258.935,136.411c-6.303,0-11.461-5.157-11.461-11.461V80.689
				c0-6.303,5.157-11.461,11.461-11.461l0,0c6.303,0,11.46,5.157,11.46,11.461v44.261
				C270.396,131.254,265.239,136.411,258.935,136.411z"/>
			<path style="fill:#FFBD51;" d="M297.664,136.411L297.664,136.411c-6.303,0-11.461-5.157-11.461-11.461V80.689
				c0-6.303,5.157-11.461,11.461-11.461h0c6.303,0,11.461,5.157,11.461,11.461v44.261
				C309.125,131.254,303.967,136.411,297.664,136.411z"/>
		</g>
		<g>
			<path style="fill:#FFBD51;" d="M213.494,419.763L213.494,419.763c-6.303,0-11.461-5.157-11.461-11.461v-44.262
				c0-6.303,5.157-11.461,11.461-11.461l0,0c6.303,0,11.461,5.157,11.461,11.461v44.262
				C224.955,414.606,219.798,419.763,213.494,419.763z"/>
			<path style="fill:#FFBD51;" d="M253.014,419.763L253.014,419.763c-6.303,0-11.461-5.157-11.461-11.461v-44.262
				c0-6.303,5.157-11.461,11.461-11.461l0,0c6.303,0,11.46,5.157,11.46,11.461v44.262
				C264.474,414.606,259.317,419.763,253.014,419.763z"/>
			<path style="fill:#FFBD51;" d="M291.742,419.763L291.742,419.763c-6.303,0-11.461-5.157-11.461-11.461v-44.262
				c0-6.303,5.157-11.461,11.461-11.461h0c6.303,0,11.461,5.157,11.461,11.461v44.262
				C303.203,414.606,298.046,419.763,291.742,419.763z"/>
		</g>
		<g>
			<path style="fill:#FFBD51;" d="M145.12,282.329L145.12,282.329c0,6.303-5.157,11.461-11.461,11.461H89.398
				c-6.303,0-11.461-5.157-11.461-11.461v0c0-6.303,5.157-11.461,11.461-11.461h44.261
				C139.963,270.869,145.12,276.026,145.12,282.329z"/>
			<path style="fill:#FFBD51;" d="M145.12,242.81L145.12,242.81c0,6.303-5.157,11.46-11.461,11.46H89.398
				c-6.303,0-11.461-5.157-11.461-11.46l0,0c0-6.303,5.157-11.461,11.461-11.461h44.261
				C139.963,231.35,145.12,236.507,145.12,242.81z"/>
			<path style="fill:#FFBD51;" d="M145.12,204.081L145.12,204.081c0,6.303-5.157,11.461-11.461,11.461H89.398
				c-6.303,0-11.461-5.157-11.461-11.461l0,0c0-6.303,5.157-11.46,11.461-11.46h44.261
				C139.963,192.621,145.12,197.778,145.12,204.081z"/>
		</g>
		<g>
			<path style="fill:#FFBD51;" d="M424.916,282.329L424.916,282.329c0,6.303-5.157,11.461-11.461,11.461h-44.262
				c-6.303,0-11.461-5.157-11.461-11.461v0c0-6.303,5.157-11.461,11.461-11.461h44.262
				C419.758,270.869,424.916,276.026,424.916,282.329z"/>
			<path style="fill:#FFBD51;" d="M424.916,242.81L424.916,242.81c0,6.303-5.157,11.46-11.461,11.46h-44.262
				c-6.303,0-11.461-5.157-11.461-11.46l0,0c0-6.303,5.157-11.461,11.461-11.461h44.262
				C419.758,231.35,424.916,236.507,424.916,242.81z"/>
			<path style="fill:#FFBD51;" d="M424.916,204.081L424.916,204.081c0,6.303-5.157,11.461-11.461,11.461h-44.262
				c-6.303,0-11.461-5.157-11.461-11.461l0,0c0-6.303,5.157-11.46,11.461-11.46h44.262
				C419.758,192.621,424.916,197.778,424.916,204.081z"/>
		</g>
		
			<ellipse style="fill:none;stroke:#FFFFFF;stroke-width:2.3329;stroke-linecap:round;stroke-linejoin:round;stroke-miterlimit:10;" cx="256.564" cy="243.156" rx="16.446" ry="64.734"/>
		
			<ellipse transform="matrix(0.5571 -0.8304 0.8304 0.5571 -88.2974 320.7477)" style="fill:none;stroke:#FFFFFF;stroke-width:2.3329;stroke-linecap:round;stroke-linejoin:round;stroke-miterlimit:10;" cx="256.564" cy="243.156" rx="16.446" ry="64.734"/>
		
			<path style="fill:none;stroke:#FFFFFF;stroke-width:2.3329;stroke-linecap:round;stroke-linejoin:round;stroke-miterlimit:10;" d="
			M265.727,256.813c29.689-19.918,49.655-42.179,44.595-49.722c-5.06-7.543-33.23,2.49-62.92,22.408
			c-29.689,19.918-49.655,42.179-44.595,49.722C207.867,286.763,236.037,276.731,265.727,256.813z"/>
		<circle style="fill:#FF5C36;" cx="256.564" cy="244.298" r="10.805"/>
		<path style="fill:#230B19;" d="M257.732,250.828c-0.46,1.409-0.841,2.836-1.17,4.275c2.766,0,5.532-1.054,7.642-3.165
			c3.227-3.227,3.983-7.986,2.274-11.935C261.813,241.39,259.226,246.257,257.732,250.828z"/>
		<polygon style="fill:#FFFFFF;" points="222.182,170.164 225.059,175.424 230.32,178.301 225.059,181.178 222.182,186.439 
			219.305,181.178 214.045,178.301 219.305,175.424 		"/>
		<polygon style="fill:#FFFFFF;" points="185.825,220.422 187.699,223.85 191.127,225.724 187.699,227.599 185.825,231.026 
			183.95,227.599 180.523,225.724 183.95,223.85 		"/>
		<polygon style="fill:#FFFFFF;" points="185.825,249.179 187.592,252.411 190.824,254.178 187.592,255.945 185.825,259.177 
			184.057,255.945 180.826,254.178 184.057,252.411 		"/>
		<polygon style="fill:#FFFFFF;" points="215.069,299.799 217.103,303.519 220.823,305.553 217.103,307.587 215.069,311.307 
			213.035,307.587 209.315,305.553 213.035,303.519 		"/>
		<polygon style="fill:#FFFFFF;" points="323.352,233.563 325.051,236.671 328.159,238.37 325.051,240.07 323.352,243.178 
			321.652,240.07 318.544,238.37 321.652,236.671 		"/>
		<polygon style="fill:#FFFFFF;" points="300.43,173.559 301.548,175.603 303.592,176.721 301.548,177.838 300.43,179.882 
			299.313,177.838 297.269,176.721 299.313,175.603 		"/>
		<polygon style="fill:#FFFFFF;" points="294.107,302.798 296.478,307.134 300.814,309.505 296.478,311.876 294.107,316.211 
			291.736,311.876 287.401,309.505 291.736,307.134 		"/>
		<polygon style="fill:#FFFFFF;" points="319.4,298.44 320.238,299.972 321.771,300.811 320.238,301.649 319.4,303.182 
			318.561,301.649 317.028,300.811 318.561,299.972 		"/>
		<g>
			<circle style="fill:#230B19;" cx="300.012" cy="256.845" r="5.446"/>
			
				<line style="fill:none;stroke:#FFFFFF;stroke-width:1.5785;stroke-linecap:round;stroke-linejoin:round;stroke-miterlimit:10;" x1="297.884" y1="256.909" x2="301.988" y2="256.909"/>
		</g>
		<g>
			<circle style="fill:#230B19;" cx="256.852" cy="178.428" r="5.446"/>
			
				<line style="fill:none;stroke:#FFFFFF;stroke-width:1.5785;stroke-linecap:round;stroke-linejoin:round;stroke-miterlimit:10;" x1="254.723" y1="178.491" x2="258.828" y2="178.491"/>
		</g>
		<g>
			<circle style="fill:#230B19;" cx="213.454" cy="256.845" r="5.446"/>
			
				<line style="fill:none;stroke:#FFFFFF;stroke-width:1.5785;stroke-linecap:round;stroke-linejoin:round;stroke-miterlimit:10;" x1="211.325" y1="256.909" x2="215.43" y2="256.909"/>
		</g>
	</g>
	<g>
		<g>
			<path style="fill:#230B19;" d="M357.471,458.929H145.238c-11.353,0-20.557-9.203-20.557-20.557v0
				c0-11.353,9.204-20.557,20.557-20.557h212.234c11.353,0,20.557,9.203,20.557,20.557v0
				C378.028,449.725,368.824,458.929,357.471,458.929z"/>
			<polygon style="fill:#230B19;" points="170.41,472.53 163.195,460.033 155.979,447.535 170.41,447.535 184.841,447.535 
				177.626,460.033 			"/>
		</g>
		<path style="fill:#8DDAE2;" d="M357.471,444.174H145.238c-11.353,0-20.557-9.204-20.557-20.557l0,0
			c0-11.353,9.204-20.557,20.557-20.557h212.234c11.353,0,20.557,9.204,20.557,20.557l0,0
			C378.028,434.971,368.824,444.174,357.471,444.174z"/>
		
			<text transform="matrix(0.9999 0.0095 -0.0095 0.9999 171.1366 432.1692)" style="fill:#FFFFFF; font-family:'Montserrat-ExtraBold'; font-size:24.8165px; letter-spacing:3;">QUANTUM</text>
	</g>
	
		<line style="fill:none;stroke:#DBCCFF;stroke-width:2.1078;stroke-linecap:round;stroke-linejoin:round;stroke-miterlimit:10;" x1="427.156" y1="43.673" x2="400.283" y2="72.126"/>
	<g>
		<circle style="fill:#DBCCFF;" cx="393.585" cy="92.727" r="34.307"/>
		<circle style="fill:#DBCCFF;" cx="336.531" cy="60.285" r="13.797"/>
		<circle style="fill:#DBCCFF;" cx="426.773" cy="156.493" r="11.56"/>
		
			<polyline style="fill:none;stroke:#DBCCFF;stroke-width:1.9889;stroke-linecap:round;stroke-linejoin:round;stroke-miterlimit:10;" points="
			342.124,59.166 400.297,82.286 426.773,156.493 		"/>
		
			<ellipse transform="matrix(0.2286 -0.9735 0.9735 0.2286 292.6461 447.3917)" style="fill:#DBCCFF;" cx="428.637" cy="39.03" rx="11.56" ry="11.56"/>
	</g>
	<path style="fill:#DBCCFF;" d="M369.874,306.641v31.696c0,9.6-7.782,17.382-17.382,17.382H325.86v22.132h26.632
		c21.788,0,39.514-17.726,39.514-39.514v-31.696H369.874z"/>
	<path style="fill:#DBCCFF;" d="M137.212,180.245v-31.696c0-9.6,7.782-17.382,17.382-17.382h26.633v-22.132h-26.633
		c-21.788,0-39.514,17.726-39.514,39.514v31.696H137.212z"/>
	<g>
		<path style="fill:none;stroke:#DBCCFF;stroke-width:2.204;stroke-linecap:round;stroke-linejoin:round;stroke-miterlimit:10;" d="
			M128.479,116.267h-8.62c-0.615-1.43-1.323-2.81-2.115-4.135l5.194-6.276c0.455-0.549,0.377-1.371-0.172-1.826l-13.644-11.292
			c-0.55-0.455-1.371-0.377-1.826,0.172l-4.548,5.495c-1.845-0.892-3.78-1.628-5.787-2.188l0,0v-7.194
			c0-0.713-0.584-1.297-1.297-1.297H77.954c-0.714,0-1.297,0.584-1.297,1.297v7.552c-1.997,0.636-3.916,1.447-5.741,2.412
			l-5.029-6.077c-0.455-0.55-1.277-0.627-1.826-0.172l-13.644,11.292c-0.55,0.455-0.627,1.277-0.172,1.826l6.16,7.443c0,0,0,0,0,0
			c-0.526,0.963-1.01,1.953-1.447,2.968H43.235c-0.714,0-1.297,0.584-1.297,1.297v17.71c0,0.713,0.583,1.297,1.297,1.297h9.423
			c0.611,3.368,1.699,6.569,3.193,9.53c0,0,0,0,0,0.001l-7.076,8.551c-0.455,0.549-0.377,1.371,0.172,1.826l13.644,11.292
			c0.55,0.455,1.371,0.377,1.826-0.172l5.521-6.671c2.113,1.206,4.362,2.198,6.718,2.95v9.434c0,0.713,0.584,1.297,1.297,1.297
			h17.711c0.713,0,1.297-0.584,1.297-1.297v-9.076l0,0c2.561-0.717,5.002-1.715,7.291-2.96c0,0,0,0,0,0l5.234,6.324
			c0.455,0.549,1.277,0.627,1.826,0.172l13.644-11.292c0.549-0.455,0.627-1.277,0.172-1.826l-6.515-7.873l0,0
			c1.675-3.149,2.887-6.583,3.544-10.209h6.322c0.713,0,1.297-0.584,1.297-1.297v-17.71
			C129.776,116.85,129.192,116.267,128.479,116.267z"/>
		
			<ellipse transform="matrix(0.7071 -0.7071 0.7071 0.7071 -67.387 99.6474)" style="fill:none;stroke:#DBCCFF;stroke-width:2.204;stroke-linecap:round;stroke-linejoin:round;stroke-miterlimit:10;" cx="86.592" cy="131.167" rx="16.898" ry="16.898"/>
		
			<ellipse transform="matrix(0.7071 -0.7071 0.7071 0.7071 -67.387 99.6474)" style="fill:none;stroke:#DBCCFF;stroke-width:2.204;stroke-linecap:round;stroke-linejoin:round;stroke-miterlimit:10;" cx="86.592" cy="131.167" rx="25.854" ry="25.854"/>
	</g>
	<g>
		<path style="fill:#DBCCFF;" d="M141.531,83.726L141.531,83.726c-2.312,0-4.203-1.892-4.203-4.203V35.46
			c0-2.312,1.892-4.203,4.203-4.203l0,0c2.312,0,4.204,1.892,4.204,4.203v44.063C145.735,81.835,143.843,83.726,141.531,83.726z"/>
		<path style="fill:#DBCCFF;" d="M115.297,57.491L115.297,57.491c0-2.312,1.892-4.204,4.203-4.204h44.063
			c2.312,0,4.203,1.892,4.203,4.204l0,0c0,2.312-1.891,4.203-4.203,4.203H119.5C117.188,61.695,115.297,59.803,115.297,57.491z"/>
		<path style="fill:#DBCCFF;" d="M122.98,38.941L122.98,38.941c1.635-1.635,4.31-1.635,5.945,0l31.157,31.157
			c1.635,1.635,1.635,4.31,0,5.945l0,0c-1.635,1.635-4.31,1.635-5.945,0L122.98,44.885C121.346,43.25,121.346,40.575,122.98,38.941z
			"/>
		<path style="fill:#DBCCFF;" d="M160.082,38.941L160.082,38.941c1.635,1.635,1.635,4.31,0,5.945l-31.157,31.157
			c-1.635,1.635-4.31,1.635-5.945,0l0,0c-1.635-1.635-1.635-4.31,0-5.945l31.157-31.157
			C155.772,37.306,158.447,37.306,160.082,38.941z"/>
		
			<ellipse transform="matrix(0.2036 -0.979 0.979 0.2036 56.1847 185.9689)" style="fill:#DBCCFF;" cx="142.406" cy="58.448" rx="15.732" ry="15.732"/>
		<path style="fill:#FFFFFF;" d="M149.332,58.448c0,3.825-3.101,6.926-6.926,6.926c-3.825,0-6.926-3.101-6.926-6.926
			c0-3.825,3.101-6.926,6.926-6.926C146.231,51.522,149.332,54.623,149.332,58.448z"/>
	</g>
	<g>
		<path style="fill:#DBCCFF;" d="M429.245,368.278L429.245,368.278c-2.312,0-4.203-1.892-4.203-4.204v-44.063
			c0-2.312,1.892-4.203,4.203-4.203l0,0c2.312,0,4.204,1.892,4.204,4.203v44.063C433.449,366.387,431.557,368.278,429.245,368.278z"
			/>
		<path style="fill:#DBCCFF;" d="M403.01,342.044L403.01,342.044c0-2.312,1.892-4.204,4.203-4.204h44.063
			c2.312,0,4.204,1.892,4.204,4.204l0,0c0,2.312-1.892,4.203-4.204,4.203h-44.063C404.902,346.247,403.01,344.356,403.01,342.044z"
			/>
		<path style="fill:#DBCCFF;" d="M410.694,323.493L410.694,323.493c1.635-1.635,4.31-1.635,5.945,0l31.157,31.157
			c1.635,1.635,1.635,4.31,0,5.945l0,0c-1.635,1.635-4.31,1.635-5.945,0l-31.157-31.157
			C409.06,327.803,409.06,325.128,410.694,323.493z"/>
		<path style="fill:#DBCCFF;" d="M447.796,323.493L447.796,323.493c1.635,1.635,1.635,4.31,0,5.945l-31.157,31.157
			c-1.635,1.635-4.31,1.635-5.945,0l0,0c-1.635-1.635-1.635-4.31,0-5.945l31.157-31.157
			C443.486,321.858,446.161,321.858,447.796,323.493z"/>
		
			<ellipse transform="matrix(0.2106 -0.9776 0.9776 0.2106 4.2191 691.2256)" style="fill:#DBCCFF;" cx="430.12" cy="343" rx="15.732" ry="15.732"/>
		<path style="fill:#FFFFFF;" d="M437.046,343c0,3.825-3.101,6.926-6.926,6.926c-3.825,0-6.926-3.101-6.926-6.926
			c0-3.825,3.101-6.926,6.926-6.926C433.945,336.074,437.046,339.175,437.046,343z"/>
	</g>
	<path style="fill:#230B19;" d="M229.883,41.364c0,3.056-2.478,5.533-5.534,5.533c-3.056,0-5.534-2.477-5.534-5.533
		c0-3.056,2.478-5.534,5.534-5.534C227.406,35.831,229.883,38.308,229.883,41.364z"/>
	<path style="fill:#230B19;" d="M338.972,91.956c0,2.183-1.77,3.952-3.952,3.952c-2.183,0-3.953-1.77-3.953-3.952
		c0-2.183,1.77-3.953,3.953-3.953C337.203,88.004,338.972,89.773,338.972,91.956z"/>
	<path style="fill:#230B19;" d="M455.967,91.166c0,2.619-2.124,4.743-4.743,4.743c-2.62,0-4.743-2.124-4.743-4.743
		c0-2.619,2.124-4.743,4.743-4.743C453.843,86.423,455.967,88.546,455.967,91.166z"/>
	<path style="fill:#230B19;" d="M399.051,160.73c0,1.746-1.416,3.162-3.162,3.162c-1.746,0-3.162-1.416-3.162-3.162
		c0-1.746,1.416-3.162,3.162-3.162C397.635,157.568,399.051,158.984,399.051,160.73z"/>
	<path style="fill:#230B19;" d="M460.71,306.973c0,2.183-1.77,3.952-3.953,3.952c-2.183,0-3.952-1.77-3.952-3.952
		c0-2.183,1.77-3.953,3.952-3.953C458.94,303.02,460.71,304.79,460.71,306.973z"/>
	<circle style="fill:#230B19;" cx="39.372" cy="318.04" r="2.372"/>
	<circle style="fill:#230B19;" cx="48.068" cy="186.026" r="3.162"/>
	<path style="fill:#230B19;" d="M49.649,46.898c0,1.746-1.416,3.162-3.162,3.162c-1.746,0-3.162-1.416-3.162-3.162
		c0-1.746,1.416-3.162,3.162-3.162C48.233,43.736,49.649,45.151,49.649,46.898z"/>
	<circle style="fill:#230B19;" cx="175.338" cy="384.442" r="2.372"/>
	<circle style="fill:#230B19;" cx="42.534" cy="371.794" r="2.372"/>
	<circle style="fill:#230B19;" cx="459.129" cy="377.327" r="3.162"/>
</g>
</svg>
