<?xml version="1.0" encoding="utf-8"?>
<!-- Generator: Adobe Illustrator 27.5.0, SVG Export Plug-In . SVG Version: 6.00 Build 0)  -->
<svg version="1.1" xmlns="http://www.w3.org/2000/svg" xmlns:xlink="http://www.w3.org/1999/xlink" x="0px" y="0px"
	 viewBox="0 0 500 500" style="enable-background:new 0 0 500 500;" xml:space="preserve">
<g id="Background_Simple">
	<g>
		<path style="fill:#92E3A9;" d="M433.131,122.56c0,0-85.277-78.493-167.646-84.308c-82.37-5.814-168.615,16.474-203.501,63.958
			S54.23,241.754,45.509,288.268c-8.722,46.515-26.165,132.76,34.886,167.646c61.05,34.886,139.502,15.723,186.382-30.39
			c46.879-46.112,122.747-21.939,164.416-63.609C472.862,320.247,500.964,181.672,433.131,122.56z"/>
		<path style="opacity:0.7;fill:#FFFFFF;" d="M433.131,122.56c0,0-85.277-78.493-167.646-84.308
			c-82.37-5.814-168.615,16.474-203.501,63.958S54.23,241.754,45.509,288.268c-8.722,46.515-26.165,132.76,34.886,167.646
			c61.05,34.886,139.502,15.723,186.382-30.39c46.879-46.112,122.747-21.939,164.416-63.609
			C472.862,320.247,500.964,181.672,433.131,122.56z"/>
	</g>
</g>
<g id="Lines">
	<g style="opacity:0.1;">
		<path d="M134.312,26.88v17.311H49.996v14.713H99.51v-1.938H51.934V46.13h84.316V26.88c1.163-0.403,2.004-1.497,2.004-2.798
			c0-1.642-1.331-2.973-2.973-2.973s-2.973,1.331-2.973,2.973C132.307,25.383,133.148,26.477,134.312,26.88z"/>
		<path d="M32.98,105.64c0-1.642-1.331-2.974-2.973-2.974c-1.642,0-2.973,1.331-2.973,2.974c0,1.257,0.782,2.326,1.884,2.761v37.493
			l30.634,26.071h41.876v-1.938h-40.55v-47.531c0.974-0.488,1.648-1.485,1.648-2.649c0-1.642-1.331-2.974-2.973-2.974
			c-1.642,0-2.973,1.331-2.973,2.974c0,1.432,1.013,2.626,2.36,2.909v46.143l-13.392-11.397v-41.834
			c1.164-0.403,2.004-1.497,2.004-2.798c0-1.642-1.331-2.973-2.973-2.973c-1.642,0-2.973,1.331-2.973,2.973
			c0,1.301,0.841,2.395,2.005,2.798v40.185l-12.753-10.854v-36.523C32.081,108.108,32.98,106.985,32.98,105.64z"/>
		<path d="M30.129,186.656H99.51v-1.938H30.129c-0.403-1.164-1.497-2.004-2.798-2.004c-1.642,0-2.973,1.331-2.973,2.974
			c0,1.642,1.331,2.973,2.973,2.973C28.632,188.66,29.726,187.819,30.129,186.656z"/>
		<path d="M32.133,355.644V251.223l47.357-50.514h22.576v-1.938H78.651l-48.456,51.686v104.988c-1.311,0.31-2.289,1.481-2.289,2.887
			c0,1.642,1.331,2.973,2.973,2.973c1.642,0,2.974-1.331,2.974-2.973C33.852,357.139,33.146,356.118,32.133,355.644z"/>
		<path d="M42.992,356.211v-99.888L79.5,216.039h22.565v-1.938H78.641l-37.587,41.475v100.635c-1.164,0.403-2.004,1.497-2.004,2.798
			c0,1.301,0.841,2.395,2.004,2.798v0.175h0.966c0.001,0,0.002,0,0.003,0s0.002,0,0.003,0h0.966v-0.175
			c1.164-0.403,2.004-1.497,2.004-2.798C44.996,357.709,44.155,356.615,42.992,356.211z"/>
		<path d="M103.652,414.354v-66.974H92.608c-0.311-1.309-1.481-2.286-2.886-2.286c-1.404,0-2.574,0.977-2.885,2.286H69.735V265.98
			h47.484v-1.938H67.797v85.277h19.236c0.473,1.015,1.496,1.723,2.689,1.723c1.194,0,2.216-0.708,2.689-1.723h9.302v38.762H53.261
			v49.531c-1.164,0.404-2.004,1.497-2.004,2.798c0,1.642,1.331,2.973,2.973,2.973c1.642,0,2.973-1.331,2.973-2.973
			c0-1.301-0.841-2.395-2.004-2.798v-47.593h46.515v24.335c-1.164,0.403-2.004,1.497-2.004,2.798c0,1.642,1.331,2.973,2.973,2.973
			c1.642,0,2.973-1.331,2.973-2.973C105.656,415.852,104.816,414.758,103.652,414.354z"/>
		<path d="M268.391,354.273V306.68h-1.938v47.593c-1.163,0.403-2.004,1.497-2.004,2.798c0,1.642,1.331,2.973,2.973,2.973
			c1.642,0,2.973-1.331,2.973-2.973C270.396,355.77,269.555,354.676,268.391,354.273z"/>
		<path d="M285.834,354.139V306.68h-1.938v47.853c-0.862,0.521-1.444,1.457-1.444,2.538c0,1.642,1.331,2.973,2.973,2.973
			c1.642,0,2.973-1.331,2.973-2.973C288.399,355.569,287.281,354.34,285.834,354.139z"/>
		<path d="M472.863,99.793c0.287,1.343,1.477,2.35,2.906,2.35c1.642,0,2.973-1.331,2.973-2.973c0-1.642-1.331-2.973-2.973-2.973
			c-1.168,0-2.168,0.679-2.654,1.658h-31.174l-21.798,21.798h-0.58v0.58l-20.74,20.74h-29.651V42.128h69.772v19.381h33.97
			c0.347,1.257,1.487,2.186,2.854,2.186c1.642,0,2.973-1.331,2.973-2.973s-1.331-2.973-2.973-2.973
			c-1.234,0-2.292,0.752-2.742,1.823h-32.144V40.19h-73.648v10.66h-30.041v-22.21c1.169-0.401,2.014-1.497,2.014-2.801
			c0-1.642-1.331-2.973-2.973-2.973c-1.642,0-2.973,1.331-2.973,2.973c0,1.297,0.836,2.389,1.995,2.795v24.154h31.979v90.122h29.651
			l-23.269,23.269H233.895l-28.091-28.091H79.401V64.632H35.965V36.548h65.848c0.473,1.015,1.496,1.723,2.69,1.723
			c1.642,0,2.973-1.331,2.973-2.973c0-1.642-1.331-2.973-2.973-2.973c-1.404,0-2.574,0.976-2.886,2.285H34.027v31.96h43.435v33.832
			H66.058L48.173,82.517H25.784c-0.306-1.317-1.48-2.301-2.89-2.301c-1.642,0-2.973,1.331-2.973,2.974
			c0,1.642,1.331,2.973,2.973,2.973c1.188,0,2.205-0.701,2.681-1.708H47.37l17.885,17.885h12.207v37.686h127.539l28.091,28.091
			h140.926h0.401h78.092v40.689h-42.024c-0.517-0.877-1.461-1.472-2.553-1.472c-1.642,0-2.973,1.331-2.973,2.973
			c0,1.642,1.331,2.974,2.973,2.974c1.493,0,2.717-1.104,2.93-2.537h41.647v24.226h-41.778c-0.403-1.164-1.497-2.004-2.798-2.004
			c-1.642,0-2.973,1.331-2.973,2.973s1.331,2.973,2.973,2.973c1.301,0,2.395-0.841,2.798-2.004h41.778v33.696
			c-1.26,0.101-2.29,0.978-2.617,2.159h-39.052v48.453h1.938v-46.515h37.225c0.449,1.072,1.508,1.826,2.743,1.826
			c1.642,0,2.973-1.331,2.973-2.973c0-1.008-0.504-1.896-1.272-2.433V166.179h-78.092l23.269-23.269h73.344
			c0.403,1.164,1.497,2.004,2.798,2.004c1.642,0,2.973-1.331,2.973-2.973c0-1.642-1.331-2.973-2.973-2.973
			c-1.301,0-2.395,0.841-2.798,2.004h-71.406l19.381-19.381h52.082c0.45,1.07,1.508,1.82,2.741,1.82
			c1.642,0,2.973-1.331,2.973-2.973c0-1.642-1.331-2.973-2.973-2.973c-1.368,0-2.509,0.93-2.855,2.188h-50.03l19.859-19.86H472.863z
			"/>
		<path d="M160.826,349.319h-22.288v30.15c-1.164,0.404-2.004,1.497-2.004,2.798c0,1.642,1.331,2.973,2.973,2.973
			s2.973-1.331,2.973-2.973c0-1.301-0.841-2.395-2.004-2.798v-28.211h22.288v-46.515h-1.938V349.319z"/>
		<path d="M467.048,165.198c-3.74,0-6.783,3.043-6.783,6.783s3.043,6.783,6.783,6.783c3.74,0,6.783-3.043,6.783-6.783
			S470.787,165.198,467.048,165.198z M467.048,176.827c-2.671,0-4.845-2.174-4.845-4.845c0-2.672,2.174-4.845,4.845-4.845
			c2.672,0,4.845,2.174,4.845,4.845C471.893,174.653,469.719,176.827,467.048,176.827z"/>
		<path d="M69.735,243.692c0,3.74,3.043,6.783,6.783,6.783s6.783-3.043,6.783-6.783s-3.043-6.783-6.783-6.783
			S69.735,239.951,69.735,243.692z M81.364,243.692c0,2.671-2.174,4.845-4.845,4.845s-4.845-2.174-4.845-4.845
			c0-2.672,2.174-4.845,4.845-4.845S81.364,241.02,81.364,243.692z"/>
		<path d="M171.486,38.252c3.74,0,6.783-3.043,6.783-6.783s-3.043-6.783-6.783-6.783s-6.783,3.043-6.783,6.783
			S167.745,38.252,171.486,38.252z M171.486,26.624c2.671,0,4.845,2.174,4.845,4.845c0,2.672-2.174,4.845-4.845,4.845
			c-2.672,0-4.845-2.174-4.845-4.845C166.641,28.797,168.814,26.624,171.486,26.624z"/>
		<path d="M210.248,38.252c3.74,0,6.783-3.043,6.783-6.783s-3.043-6.783-6.783-6.783c-3.74,0-6.783,3.043-6.783,6.783
			S206.508,38.252,210.248,38.252z M210.248,26.624c2.672,0,4.845,2.174,4.845,4.845c0,2.672-2.174,4.845-4.845,4.845
			c-2.672,0-4.845-2.174-4.845-4.845C205.403,28.797,207.576,26.624,210.248,26.624z"/>
		<path d="M78.457,428.781c-3.74,0-6.783,3.044-6.783,6.783c0,3.74,3.043,6.783,6.783,6.783c3.74,0,6.783-3.043,6.783-6.783
			C85.24,431.825,82.197,428.781,78.457,428.781z M78.457,440.41c-2.671,0-4.845-2.174-4.845-4.845s2.174-4.845,4.845-4.845
			c2.672,0,4.845,2.174,4.845,4.845S81.128,440.41,78.457,440.41z"/>
		<path d="M122.064,346.412c-3.74,0-6.783,3.043-6.783,6.783c0,3.74,3.043,6.783,6.783,6.783c3.74,0,6.783-3.043,6.783-6.783
			C128.848,349.455,125.804,346.412,122.064,346.412z M122.064,358.04c-2.672,0-4.845-2.174-4.845-4.845
			c0-2.672,2.174-4.845,4.845-4.845s4.845,2.174,4.845,4.845C126.909,355.866,124.736,358.04,122.064,358.04z"/>
		<path d="M467.048,250.475c-3.74,0-6.783,3.043-6.783,6.783c0,3.74,3.043,6.783,6.783,6.783c3.74,0,6.783-3.043,6.783-6.783
			C473.831,253.518,470.787,250.475,467.048,250.475z M467.048,262.104c-2.671,0-4.845-2.174-4.845-4.845
			c0-2.672,2.174-4.845,4.845-4.845c2.672,0,4.845,2.174,4.845,4.845C471.893,259.93,469.719,262.104,467.048,262.104z"/>
	</g>
</g>
<g id="Plants">
	<g>
		<path style="fill:#92E3A9;" d="M121.148,393.587c0.053,0.034,1.102-4.027,1.139-4.291c0.425-3.053-0.548-9.203-3.657-10.705
			c-2.239-1.082-4.743,0.219-5.559,2.462c-0.834,2.29,0.223,5.1,1.475,7.034C116.014,390.355,121.145,393.584,121.148,393.587z"/>
		<path style="fill:#92E3A9;" d="M59.853,392.254c2.477,1.082,8.538,0.946,8.542,0.946c0.063-0.001-1.302-3.967-1.417-4.207
			c-1.33-2.781-5.535-7.374-8.956-6.912c-2.465,0.333-3.835,2.8-3.279,5.12C55.311,389.571,57.743,391.332,59.853,392.254z"/>
		<path style="fill:#92E3A9;" d="M61.945,409.807c2.57,0.375,7.978-1.194,8.408-1.32c0.854,3.027,1.975,6.065,3.28,9.076
			c0.744,1.722,1.547,3.434,2.373,5.14c-0.493-0.723-0.94-1.365-1.012-1.448c-2.017-2.332-7.286-5.651-10.463-4.301
			c-2.29,0.972-2.96,3.713-1.81,5.804c1.174,2.136,3.984,3.192,6.263,3.524c2.312,0.337,6.95-0.908,8.173-1.254
			c0.324,0.651,0.64,1.305,0.966,1.955c1.566,3.118,3.143,6.223,4.595,9.316c0.513,1.09,0.977,2.182,1.446,3.273
			c-0.439-0.641-0.814-1.178-0.88-1.254c-2.017-2.331-7.285-5.651-10.463-4.301c-2.29,0.972-2.96,3.713-1.811,5.805
			c1.174,2.136,3.984,3.192,6.263,3.524c2.206,0.322,6.497-0.789,7.952-1.192c0.446,1.131,0.896,2.264,1.277,3.381
			c0.243,0.768,0.531,1.491,0.732,2.276c0.216,0.773,0.429,1.539,0.641,2.297c0.354,1.475,0.728,2.995,1.037,4.443
			c0.223,1.005,0.416,1.967,0.614,2.936c-0.497-1.091-1.516-3.205-1.622-3.372c-1.64-2.61-6.345-6.689-9.691-5.837
			c-2.41,0.614-3.488,3.222-2.669,5.463c0.837,2.289,3.455,3.759,5.657,4.432c2.424,0.741,7.792,0.064,8.462-0.025
			c0.322,1.604,0.619,3.167,0.876,4.647c0.672,3.813,1.153,7.168,1.498,9.878h2.288c-0.413-2.785-0.984-6.269-1.776-10.254
			c-0.32-1.63-0.695-3.366-1.096-5.144c0.403-0.16,2.693-1.086,4.721-2.22c1.767,1.914,6.295,4.153,6.881,4.438
			c-0.617,1.515-1.231,2.983-1.832,4.359c-1.493,3.437-2.897,6.41-4.08,8.82h2.487c1.041-2.273,2.23-4.973,3.477-8.024
			c0.632-1.536,1.277-3.19,1.924-4.895c0.65,0.136,5.964,1.216,8.44,0.656c2.246-0.508,4.966-1.778,5.971-3.998
			c0.984-2.174,0.104-4.855-2.255-5.647c-3.273-1.099-8.268,2.617-10.099,5.098c-0.108,0.146-1.102,1.865-1.712,2.96
			c0.261-0.698,0.521-1.372,0.78-2.094c0.522-1.423,1.002-2.86,1.523-4.403c0.226-0.754,0.453-1.516,0.683-2.285
			c0.245-0.758,0.407-1.589,0.615-2.391c0.445-1.869,0.805-3.784,1.125-5.722c1.248,0.454,5.702,2.004,8.01,1.842
			c2.297-0.161,5.178-1.005,6.508-3.048c1.302-2,0.838-4.783-1.373-5.923c-3.069-1.582-8.569,1.335-10.755,3.51
			c-0.136,0.136-1.529,1.872-2.276,2.841c0.183-1.166,0.372-2.329,0.519-3.515c0.425-3.423,0.748-6.901,1.087-10.37
			c0.103-1.063,0.219-2.12,0.33-3.179c0.442,0.167,5.697,2.123,8.281,1.941c2.297-0.161,5.178-1.005,6.508-3.048
			c1.302-2,0.838-4.783-1.373-5.923c-3.068-1.582-8.569,1.335-10.754,3.509c-0.165,0.164-2.165,2.666-2.642,3.327
			c0.246-2.332,0.514-4.654,0.87-6.932c0.487-3.144,1.139-6.202,1.99-9.118c0.206,0.078,5.681,2.144,8.328,1.959
			c2.297-0.161,5.178-1.005,6.508-3.048c1.302-2,0.838-4.783-1.373-5.923c-3.069-1.583-8.569,1.335-10.754,3.509
			c-0.143,0.143-1.669,2.047-2.373,2.97c-0.096-0.05-0.079-0.041-0.175-0.091c0.949-3.112,2.26-6.008,3.621-8.657
			c0.785-1.536,1.622-2.961,2.467-4.329c0.98,0.489,5.485,2.677,7.885,2.772c2.301,0.092,5.257-0.43,6.804-2.314
			c1.514-1.845,1.358-4.663-0.714-6.038c-2.876-1.91-8.664,0.386-11.075,2.307c-0.131,0.105-1.346,1.314-2.219,2.208
			c0.391-0.611,0.783-1.249,1.169-1.828c1.444-2.175,2.901-4.077,4.204-5.752c0.749-0.946,1.445-1.787,2.104-2.567
			c1.213-0.022,6.098-0.17,8.234-1.172c2.084-0.979,4.467-2.805,4.972-5.189c0.493-2.335-0.944-4.764-3.416-5.03
			c-3.433-0.369-7.512,4.335-8.766,7.151c-0.108,0.243-1.366,4.245-1.303,4.244c0,0,0.059-0.001,0.073-0.001
			c-0.65,0.738-1.338,1.536-2.072,2.424c-1.343,1.65-2.845,3.526-4.342,5.678c-1.502,2.146-3.073,4.521-4.502,7.172
			c-1.436,2.655-2.811,5.521-3.846,8.657c-0.012,0.035-0.019,0.074-0.031,0.109c0.017-1.011-0.027-3.841-0.055-4.057
			c-0.396-3.057-2.959-8.732-6.354-9.36c-2.446-0.452-4.517,1.464-4.712,3.843c-0.199,2.429,1.562,4.861,3.28,6.394
			c1.937,1.73,7.313,3.405,7.741,3.537c-0.958,2.996-1.698,6.148-2.271,9.379c-0.33,1.847-0.604,3.718-0.856,5.596
			c-0.013-0.875-0.031-1.657-0.045-1.766c-0.396-3.057-2.959-8.732-6.354-9.36c-2.446-0.452-4.517,1.464-4.712,3.842
			c-0.199,2.429,1.562,4.86,3.28,6.395c1.743,1.556,6.297,3.077,7.508,3.463c-0.089,0.722-0.186,1.442-0.272,2.164
			c-0.414,3.465-0.812,6.924-1.307,10.305c-0.174,1.192-0.389,2.359-0.599,3.527c-0.012-0.777-0.029-1.432-0.042-1.531
			c-0.396-3.057-2.959-8.732-6.354-9.359c-2.446-0.452-4.517,1.464-4.712,3.843c-0.199,2.429,1.563,4.86,3.28,6.394
			c1.663,1.485,5.854,2.926,7.291,3.392c-0.252,1.19-0.502,2.383-0.8,3.524c-0.221,0.775-0.38,1.537-0.645,2.303
			c-0.247,0.764-0.491,1.52-0.733,2.27c-0.519,1.426-1.045,2.9-1.586,4.278c-0.369,0.961-0.738,1.87-1.108,2.787
			c0.187-1.184,0.503-3.51,0.508-3.707c0.048-2.048-0.68-5.377-2.127-7.718c0.009-0.302-0.009-0.604-0.057-0.904
			c-0.379-2.356-2.592-4.106-4.996-3.466c-3.336,0.888-5.452,6.744-5.61,9.823c-0.009,0.182,0.11,2.163,0.205,3.413
			c-0.168-0.726-0.323-1.432-0.505-2.177c-0.35-1.476-0.742-2.938-1.159-4.513c-0.228-0.753-0.458-1.514-0.691-2.283
			c-0.214-0.767-0.538-1.55-0.806-2.334c-0.66-1.804-1.416-3.6-2.219-5.393c1.291-0.31,5.861-1.474,7.697-2.883
			c1.827-1.402,3.764-3.695,3.747-6.132c-0.017-2.386-1.94-4.452-4.413-4.183c-3.432,0.373-6.411,5.84-7.034,8.86
			c-0.039,0.189-0.242,2.405-0.33,3.625c-0.491-1.074-0.975-2.148-1.506-3.219c-1.534-3.09-3.183-6.169-4.814-9.248
			c-0.5-0.943-0.987-1.889-1.479-2.833c0.461-0.105,5.923-1.373,7.978-2.95c1.827-1.402,3.765-3.695,3.747-6.132
			c-0.017-2.386-1.94-4.452-4.413-4.183c-3.433,0.373-6.411,5.841-7.034,8.86c-0.047,0.228-0.335,3.418-0.368,4.233
			c-1.081-2.081-2.139-4.165-3.098-6.262c-1.328-2.892-2.471-5.801-3.37-8.703c0.215-0.048,5.921-1.345,8.027-2.961
			c1.827-1.401,3.764-3.695,3.747-6.132c-0.017-2.386-1.94-4.452-4.413-4.183c-3.433,0.373-6.411,5.841-7.034,8.86
			c-0.041,0.198-0.263,2.63-0.341,3.788c-0.108,0.012-0.088,0.009-0.196,0.021c-0.926-3.12-1.429-6.259-1.756-9.22
			c-0.193-1.714-0.281-3.364-0.33-4.971c1.088-0.132,6.051-0.793,8.107-2.038c1.97-1.193,4.147-3.259,4.398-5.683
			c0.245-2.374-1.439-4.638-3.927-4.642c-3.452-0.006-7.013,5.101-7.964,8.034c-0.052,0.159-0.398,1.839-0.633,3.065
			c-0.011-0.725-0.036-1.474-0.033-2.169c0.005-2.611,0.17-5.001,0.333-7.117c0.103-1.203,0.219-2.288,0.339-3.302
			c0.999-0.687,4.992-3.506,6.221-5.52c1.198-1.966,2.179-4.804,1.284-7.071c-0.877-2.22-3.415-3.453-5.625-2.311
			c-3.067,1.585-3.874,7.759-3.366,10.801c0.044,0.263,1.202,4.294,1.255,4.259c0,0,0.049-0.033,0.06-0.042
			c-0.135,0.974-0.268,2.02-0.391,3.164c-0.21,2.117-0.428,4.51-0.489,7.131c-0.068,2.619-0.069,5.466,0.202,8.465
			c0.267,3.007,0.701,6.156,1.568,9.342c0.01,0.036,0.025,0.072,0.035,0.108c-0.543-0.853-2.141-3.188-2.284-3.354
			c-2.017-2.331-7.285-5.651-10.463-4.301c-2.29,0.972-2.96,3.713-1.811,5.805C56.856,408.419,59.666,409.475,61.945,409.807z"/>
		<path style="opacity:0.3;fill:#92E3A9;" d="M59.853,392.254c2.477,1.082,8.538,0.946,8.542,0.946
			c0.063-0.001-1.302-3.967-1.417-4.207c-1.33-2.781-5.535-7.374-8.956-6.912c-2.465,0.333-3.835,2.8-3.279,5.12
			C55.311,389.571,57.743,391.332,59.853,392.254z"/>
		<path style="opacity:0.3;fill:#92E3A9;" d="M121.148,393.587c0.053,0.034,1.102-4.027,1.139-4.291
			c0.425-3.053-0.548-9.203-3.657-10.705c-2.239-1.082-4.743,0.219-5.559,2.462c-0.834,2.29,0.223,5.1,1.475,7.034
			C116.014,390.355,121.145,393.584,121.148,393.587z"/>
		<path style="opacity:0.3;fill:#92E3A9;" d="M61.945,409.807c2.57,0.375,7.978-1.194,8.408-1.32
			c0.854,3.027,1.975,6.065,3.28,9.076c0.744,1.722,1.547,3.434,2.373,5.14c-0.493-0.723-0.94-1.365-1.012-1.448
			c-2.017-2.332-7.286-5.651-10.463-4.301c-2.29,0.972-2.96,3.713-1.81,5.804c1.174,2.136,3.984,3.192,6.263,3.524
			c2.312,0.337,6.95-0.908,8.173-1.254c0.324,0.651,0.64,1.305,0.966,1.955c1.566,3.118,3.143,6.223,4.595,9.316
			c0.513,1.09,0.977,2.182,1.446,3.273c-0.439-0.641-0.814-1.178-0.88-1.254c-2.017-2.331-7.285-5.651-10.463-4.301
			c-2.29,0.972-2.96,3.713-1.811,5.805c1.174,2.136,3.984,3.192,6.263,3.524c2.206,0.322,6.497-0.789,7.952-1.192
			c0.446,1.131,0.896,2.264,1.277,3.381c0.243,0.768,0.531,1.491,0.732,2.276c0.216,0.773,0.429,1.539,0.641,2.297
			c0.354,1.475,0.728,2.995,1.037,4.443c0.223,1.005,0.416,1.967,0.614,2.936c-0.497-1.091-1.516-3.205-1.622-3.372
			c-1.64-2.61-6.345-6.689-9.691-5.837c-2.41,0.614-3.488,3.222-2.669,5.463c0.837,2.289,3.455,3.759,5.657,4.432
			c2.424,0.741,7.792,0.064,8.462-0.025c0.322,1.604,0.619,3.167,0.876,4.647c0.672,3.813,1.153,7.168,1.498,9.878h2.288
			c-0.413-2.785-0.984-6.269-1.776-10.254c-0.32-1.63-0.695-3.366-1.096-5.144c0.403-0.16,2.693-1.086,4.721-2.22
			c1.767,1.914,6.295,4.153,6.881,4.438c-0.617,1.515-1.231,2.983-1.832,4.359c-1.493,3.437-2.897,6.41-4.08,8.82h2.487
			c1.041-2.273,2.23-4.973,3.477-8.024c0.632-1.536,1.277-3.19,1.924-4.895c0.65,0.136,5.964,1.216,8.44,0.656
			c2.246-0.508,4.966-1.778,5.971-3.998c0.984-2.174,0.104-4.855-2.255-5.647c-3.273-1.099-8.268,2.617-10.099,5.098
			c-0.108,0.146-1.102,1.865-1.712,2.96c0.261-0.698,0.521-1.372,0.78-2.094c0.522-1.423,1.002-2.86,1.523-4.403
			c0.226-0.754,0.453-1.516,0.683-2.285c0.245-0.758,0.407-1.589,0.615-2.391c0.445-1.869,0.805-3.784,1.125-5.722
			c1.248,0.454,5.702,2.004,8.01,1.842c2.297-0.161,5.178-1.005,6.508-3.048c1.302-2,0.838-4.783-1.373-5.923
			c-3.069-1.582-8.569,1.335-10.755,3.51c-0.136,0.136-1.529,1.872-2.276,2.841c0.183-1.166,0.372-2.329,0.519-3.515
			c0.425-3.423,0.748-6.901,1.087-10.37c0.103-1.063,0.219-2.12,0.33-3.179c0.442,0.167,5.697,2.123,8.281,1.941
			c2.297-0.161,5.178-1.005,6.508-3.048c1.302-2,0.838-4.783-1.373-5.923c-3.068-1.582-8.569,1.335-10.754,3.509
			c-0.165,0.164-2.165,2.666-2.642,3.327c0.246-2.332,0.514-4.654,0.87-6.932c0.487-3.144,1.139-6.202,1.99-9.118
			c0.206,0.078,5.681,2.144,8.328,1.959c2.297-0.161,5.178-1.005,6.508-3.048c1.302-2,0.838-4.783-1.373-5.923
			c-3.069-1.583-8.569,1.335-10.754,3.509c-0.143,0.143-1.669,2.047-2.373,2.97c-0.096-0.05-0.079-0.041-0.175-0.091
			c0.949-3.112,2.26-6.008,3.621-8.657c0.785-1.536,1.622-2.961,2.467-4.329c0.98,0.489,5.485,2.677,7.885,2.772
			c2.301,0.092,5.257-0.43,6.804-2.314c1.514-1.845,1.358-4.663-0.714-6.038c-2.876-1.91-8.664,0.386-11.075,2.307
			c-0.131,0.105-1.346,1.314-2.219,2.208c0.391-0.611,0.783-1.249,1.169-1.828c1.444-2.175,2.901-4.077,4.204-5.752
			c0.749-0.946,1.445-1.787,2.104-2.567c1.213-0.022,6.098-0.17,8.234-1.172c2.084-0.979,4.467-2.805,4.972-5.189
			c0.493-2.335-0.944-4.764-3.416-5.03c-3.433-0.369-7.512,4.335-8.766,7.151c-0.108,0.243-1.366,4.245-1.303,4.244
			c0,0,0.059-0.001,0.073-0.001c-0.65,0.738-1.338,1.536-2.072,2.424c-1.343,1.65-2.845,3.526-4.342,5.678
			c-1.502,2.146-3.073,4.521-4.502,7.172c-1.436,2.655-2.811,5.521-3.846,8.657c-0.012,0.035-0.019,0.074-0.031,0.109
			c0.017-1.011-0.027-3.841-0.055-4.057c-0.396-3.057-2.959-8.732-6.354-9.36c-2.446-0.452-4.517,1.464-4.712,3.843
			c-0.199,2.429,1.562,4.861,3.28,6.394c1.937,1.73,7.313,3.405,7.741,3.537c-0.958,2.996-1.698,6.148-2.271,9.379
			c-0.33,1.847-0.604,3.718-0.856,5.596c-0.013-0.875-0.031-1.657-0.045-1.766c-0.396-3.057-2.959-8.732-6.354-9.36
			c-2.446-0.452-4.517,1.464-4.712,3.842c-0.199,2.429,1.562,4.86,3.28,6.395c1.743,1.556,6.297,3.077,7.508,3.463
			c-0.089,0.722-0.186,1.442-0.272,2.164c-0.414,3.465-0.812,6.924-1.307,10.305c-0.174,1.192-0.389,2.359-0.599,3.527
			c-0.012-0.777-0.029-1.432-0.042-1.531c-0.396-3.057-2.959-8.732-6.354-9.359c-2.446-0.452-4.517,1.464-4.712,3.843
			c-0.199,2.429,1.563,4.86,3.28,6.394c1.663,1.485,5.854,2.926,7.291,3.392c-0.252,1.19-0.502,2.383-0.8,3.524
			c-0.221,0.775-0.38,1.537-0.645,2.303c-0.247,0.764-0.491,1.52-0.733,2.27c-0.519,1.426-1.045,2.9-1.586,4.278
			c-0.369,0.961-0.738,1.87-1.108,2.787c0.187-1.184,0.503-3.51,0.508-3.707c0.048-2.048-0.68-5.377-2.127-7.718
			c0.009-0.302-0.009-0.604-0.057-0.904c-0.379-2.356-2.592-4.106-4.996-3.466c-3.336,0.888-5.452,6.744-5.61,9.823
			c-0.009,0.182,0.11,2.163,0.205,3.413c-0.168-0.726-0.323-1.432-0.505-2.177c-0.35-1.476-0.742-2.938-1.159-4.513
			c-0.228-0.753-0.458-1.514-0.691-2.283c-0.214-0.767-0.538-1.55-0.806-2.334c-0.66-1.804-1.416-3.6-2.219-5.393
			c1.291-0.31,5.861-1.474,7.697-2.883c1.827-1.402,3.764-3.695,3.747-6.132c-0.017-2.386-1.94-4.452-4.413-4.183
			c-3.432,0.373-6.411,5.84-7.034,8.86c-0.039,0.189-0.242,2.405-0.33,3.625c-0.491-1.074-0.975-2.148-1.506-3.219
			c-1.534-3.09-3.183-6.169-4.814-9.248c-0.5-0.943-0.987-1.889-1.479-2.833c0.461-0.105,5.923-1.373,7.978-2.95
			c1.827-1.402,3.765-3.695,3.747-6.132c-0.017-2.386-1.94-4.452-4.413-4.183c-3.433,0.373-6.411,5.841-7.034,8.86
			c-0.047,0.228-0.335,3.418-0.368,4.233c-1.081-2.081-2.139-4.165-3.098-6.262c-1.328-2.892-2.471-5.801-3.37-8.703
			c0.215-0.048,5.921-1.345,8.027-2.961c1.827-1.401,3.764-3.695,3.747-6.132c-0.017-2.386-1.94-4.452-4.413-4.183
			c-3.433,0.373-6.411,5.841-7.034,8.86c-0.041,0.198-0.263,2.63-0.341,3.788c-0.108,0.012-0.088,0.009-0.196,0.021
			c-0.926-3.12-1.429-6.259-1.756-9.22c-0.193-1.714-0.281-3.364-0.33-4.971c1.088-0.132,6.051-0.793,8.107-2.038
			c1.97-1.193,4.147-3.259,4.398-5.683c0.245-2.374-1.439-4.638-3.927-4.642c-3.452-0.006-7.013,5.101-7.964,8.034
			c-0.052,0.159-0.398,1.839-0.633,3.065c-0.011-0.725-0.036-1.474-0.033-2.169c0.005-2.611,0.17-5.001,0.333-7.117
			c0.103-1.203,0.219-2.288,0.339-3.302c0.999-0.687,4.992-3.506,6.221-5.52c1.198-1.966,2.179-4.804,1.284-7.071
			c-0.877-2.22-3.415-3.453-5.625-2.311c-3.067,1.585-3.874,7.759-3.366,10.801c0.044,0.263,1.202,4.294,1.255,4.259
			c0,0,0.049-0.033,0.06-0.042c-0.135,0.974-0.268,2.02-0.391,3.164c-0.21,2.117-0.428,4.51-0.489,7.131
			c-0.068,2.619-0.069,5.466,0.202,8.465c0.267,3.007,0.701,6.156,1.568,9.342c0.01,0.036,0.025,0.072,0.035,0.108
			c-0.543-0.853-2.141-3.188-2.284-3.354c-2.017-2.331-7.285-5.651-10.463-4.301c-2.29,0.972-2.96,3.713-1.811,5.805
			C56.856,408.419,59.666,409.475,61.945,409.807z"/>
	</g>
</g>
<g id="Board">
	<g>
		<g>
			<rect x="93.627" y="51.267" style="fill:#92E3A9;" width="305.102" height="277.142"/>
			<rect x="93.627" y="51.267" style="opacity:0.15;" width="305.102" height="277.142"/>
			<rect x="93.627" y="51.267" style="fill:none;stroke:#263238;stroke-miterlimit:10;" width="305.102" height="277.142"/>
			<g>
				<path style="fill:#92E3A9;stroke:#263238;stroke-miterlimit:10;" d="M390.518,198.632v-75.195H340.82v-72.17H93.627v277.142
					H340.82v-7.044h27.226v-27.658h21.608v-57.909h-23.337v-37.165H390.518z M381.011,132.944v19.015H340.82v-19.015H381.011z
					 M380.147,245.305v38.894h-21.608v27.658H340.82v-150.39h40.191v27.658H356.81v56.18H380.147z"/>
				<g>
					<path style="fill:#263238;" d="M108.311,88.143c0-1.14-0.924-2.064-2.064-2.064c-1.14,0-2.064,0.924-2.064,2.064
						s0.924,2.064,2.064,2.064C107.387,90.206,108.311,89.282,108.311,88.143z"/>
					<path style="fill:#263238;" d="M140.512,88.143c0-1.14-0.924-2.064-2.064-2.064c-1.14,0-2.064,0.924-2.064,2.064
						s0.924,2.064,2.064,2.064C139.589,90.206,140.512,89.282,140.512,88.143z"/>
					<path style="fill:#263238;" d="M172.714,88.143c0-1.14-0.924-2.064-2.064-2.064c-1.14,0-2.064,0.924-2.064,2.064
						s0.924,2.064,2.064,2.064C171.79,90.206,172.714,89.282,172.714,88.143z"/>
					<path style="fill:#263238;" d="M204.915,88.143c0-1.14-0.924-2.064-2.064-2.064c-1.14,0-2.064,0.924-2.064,2.064
						s0.924,2.064,2.064,2.064C203.991,90.206,204.915,89.282,204.915,88.143z"/>
					<path style="fill:#263238;" d="M237.116,88.143c0-1.14-0.924-2.064-2.064-2.064c-1.14,0-2.064,0.924-2.064,2.064
						s0.924,2.064,2.064,2.064C236.192,90.206,237.116,89.282,237.116,88.143z"/>
					<path style="fill:#263238;" d="M269.317,88.143c0-1.14-0.924-2.064-2.064-2.064c-1.14,0-2.064,0.924-2.064,2.064
						s0.924,2.064,2.064,2.064C268.393,90.206,269.317,89.282,269.317,88.143z"/>
					<path style="fill:#263238;" d="M301.518,88.143c0-1.14-0.924-2.064-2.064-2.064s-2.064,0.924-2.064,2.064
						s0.924,2.064,2.064,2.064S301.518,89.282,301.518,88.143z"/>
					<path style="fill:#263238;" d="M333.719,88.143c0-1.14-0.924-2.064-2.064-2.064c-1.14,0-2.064,0.924-2.064,2.064
						s0.924,2.064,2.064,2.064C332.795,90.206,333.719,89.282,333.719,88.143z"/>
				</g>
				<g>
					<path style="fill:#263238;" d="M108.311,119.415c0-1.14-0.924-2.064-2.064-2.064c-1.14,0-2.064,0.924-2.064,2.064
						c0,1.14,0.924,2.064,2.064,2.064C107.387,121.479,108.311,120.555,108.311,119.415z"/>
					<circle style="fill:#263238;" cx="138.449" cy="119.415" r="2.064"/>
					<circle style="fill:#263238;" cx="170.65" cy="119.415" r="2.064"/>
					<path style="fill:#263238;" d="M204.915,119.415c0-1.14-0.924-2.064-2.064-2.064c-1.14,0-2.064,0.924-2.064,2.064
						c0,1.14,0.924,2.064,2.064,2.064C203.991,121.479,204.915,120.555,204.915,119.415z"/>
					<path style="fill:#263238;" d="M237.116,119.415c0-1.14-0.924-2.064-2.064-2.064c-1.14,0-2.064,0.924-2.064,2.064
						c0,1.14,0.924,2.064,2.064,2.064C236.192,121.479,237.116,120.555,237.116,119.415z"/>
					<circle style="fill:#263238;" cx="267.253" cy="119.415" r="2.064"/>
					<circle style="fill:#263238;" cx="299.454" cy="119.415" r="2.064"/>
					<path style="fill:#263238;" d="M333.719,119.415c0-1.14-0.924-2.064-2.064-2.064c-1.14,0-2.064,0.924-2.064,2.064
						c0,1.14,0.924,2.064,2.064,2.064C332.795,121.479,333.719,120.555,333.719,119.415z"/>
				</g>
				<g>
					<path style="fill:#263238;" d="M108.311,150.688c0-1.14-0.924-2.064-2.064-2.064c-1.14,0-2.064,0.924-2.064,2.064
						s0.924,2.064,2.064,2.064C107.387,152.752,108.311,151.828,108.311,150.688z"/>
					<circle style="fill:#263238;" cx="138.449" cy="150.688" r="2.064"/>
					<circle style="fill:#263238;" cx="170.65" cy="150.688" r="2.064"/>
					<path style="fill:#263238;" d="M204.915,150.688c0-1.14-0.924-2.064-2.064-2.064c-1.14,0-2.064,0.924-2.064,2.064
						s0.924,2.064,2.064,2.064C203.991,152.752,204.915,151.828,204.915,150.688z"/>
					<path style="fill:#263238;" d="M237.116,150.688c0-1.14-0.924-2.064-2.064-2.064c-1.14,0-2.064,0.924-2.064,2.064
						s0.924,2.064,2.064,2.064C236.192,152.752,237.116,151.828,237.116,150.688z"/>
					<circle style="fill:#263238;" cx="267.253" cy="150.688" r="2.064"/>
					<circle style="fill:#263238;" cx="299.454" cy="150.688" r="2.064"/>
					<path style="fill:#263238;" d="M333.719,150.688c0-1.14-0.924-2.064-2.064-2.064c-1.14,0-2.064,0.924-2.064,2.064
						s0.924,2.064,2.064,2.064C332.795,152.752,333.719,151.828,333.719,150.688z"/>
				</g>
				<g>
					<path style="fill:#263238;" d="M108.311,181.961c0-1.14-0.924-2.064-2.064-2.064c-1.14,0-2.064,0.924-2.064,2.064
						c0,1.14,0.924,2.064,2.064,2.064C107.387,184.025,108.311,183.101,108.311,181.961z"/>
					<path style="fill:#263238;" d="M140.512,181.961c0-1.14-0.924-2.064-2.064-2.064c-1.14,0-2.064,0.924-2.064,2.064
						c0,1.14,0.924,2.064,2.064,2.064C139.589,184.025,140.512,183.101,140.512,181.961z"/>
					<path style="fill:#263238;" d="M172.714,181.961c0-1.14-0.924-2.064-2.064-2.064c-1.14,0-2.064,0.924-2.064,2.064
						c0,1.14,0.924,2.064,2.064,2.064C171.79,184.025,172.714,183.101,172.714,181.961z"/>
					<path style="fill:#263238;" d="M204.915,181.961c0-1.14-0.924-2.064-2.064-2.064c-1.14,0-2.064,0.924-2.064,2.064
						c0,1.14,0.924,2.064,2.064,2.064C203.991,184.025,204.915,183.101,204.915,181.961z"/>
					<path style="fill:#263238;" d="M237.116,181.961c0-1.14-0.924-2.064-2.064-2.064c-1.14,0-2.064,0.924-2.064,2.064
						c0,1.14,0.924,2.064,2.064,2.064C236.192,184.025,237.116,183.101,237.116,181.961z"/>
					<path style="fill:#263238;" d="M269.317,181.961c0-1.14-0.924-2.064-2.064-2.064c-1.14,0-2.064,0.924-2.064,2.064
						c0,1.14,0.924,2.064,2.064,2.064C268.393,184.025,269.317,183.101,269.317,181.961z"/>
					<path style="fill:#263238;" d="M301.518,181.961c0-1.14-0.924-2.064-2.064-2.064s-2.064,0.924-2.064,2.064
						c0,1.14,0.924,2.064,2.064,2.064S301.518,183.101,301.518,181.961z"/>
					<path style="fill:#263238;" d="M333.719,181.961c0-1.14-0.924-2.064-2.064-2.064c-1.14,0-2.064,0.924-2.064,2.064
						c0,1.14,0.924,2.064,2.064,2.064C332.795,184.025,333.719,183.101,333.719,181.961z"/>
				</g>
				<g>
					<path style="fill:#263238;" d="M108.311,213.234c0-1.14-0.924-2.064-2.064-2.064c-1.14,0-2.064,0.924-2.064,2.064
						s0.924,2.064,2.064,2.064C107.387,215.298,108.311,214.374,108.311,213.234z"/>
					<circle style="fill:#263238;" cx="138.449" cy="213.234" r="2.064"/>
					<circle style="fill:#263238;" cx="170.65" cy="213.234" r="2.064"/>
					<path style="fill:#263238;" d="M204.915,213.234c0-1.14-0.924-2.064-2.064-2.064c-1.14,0-2.064,0.924-2.064,2.064
						s0.924,2.064,2.064,2.064C203.991,215.298,204.915,214.374,204.915,213.234z"/>
					<path style="fill:#263238;" d="M237.116,213.234c0-1.14-0.924-2.064-2.064-2.064c-1.14,0-2.064,0.924-2.064,2.064
						s0.924,2.064,2.064,2.064C236.192,215.298,237.116,214.374,237.116,213.234z"/>
					<circle style="fill:#263238;" cx="267.253" cy="213.234" r="2.064"/>
					<circle style="fill:#263238;" cx="299.454" cy="213.234" r="2.064"/>
					<path style="fill:#263238;" d="M333.719,213.234c0-1.14-0.924-2.064-2.064-2.064c-1.14,0-2.064,0.924-2.064,2.064
						s0.924,2.064,2.064,2.064C332.795,215.298,333.719,214.374,333.719,213.234z"/>
				</g>
				<g>
					<path style="fill:#263238;" d="M108.311,244.507c0-1.14-0.924-2.064-2.064-2.064c-1.14,0-2.064,0.924-2.064,2.064
						c0,1.14,0.924,2.064,2.064,2.064C107.387,246.571,108.311,245.647,108.311,244.507z"/>
					<path style="fill:#263238;" d="M140.512,244.507c0-1.14-0.924-2.064-2.064-2.064c-1.14,0-2.064,0.924-2.064,2.064
						c0,1.14,0.924,2.064,2.064,2.064C139.589,246.571,140.512,245.647,140.512,244.507z"/>
					<path style="fill:#263238;" d="M172.714,244.507c0-1.14-0.924-2.064-2.064-2.064c-1.14,0-2.064,0.924-2.064,2.064
						c0,1.14,0.924,2.064,2.064,2.064C171.79,246.571,172.714,245.647,172.714,244.507z"/>
					<path style="fill:#263238;" d="M204.915,244.507c0-1.14-0.924-2.064-2.064-2.064c-1.14,0-2.064,0.924-2.064,2.064
						c0,1.14,0.924,2.064,2.064,2.064C203.991,246.571,204.915,245.647,204.915,244.507z"/>
					<path style="fill:#263238;" d="M237.116,244.507c0-1.14-0.924-2.064-2.064-2.064c-1.14,0-2.064,0.924-2.064,2.064
						c0,1.14,0.924,2.064,2.064,2.064C236.192,246.571,237.116,245.647,237.116,244.507z"/>
					<path style="fill:#263238;" d="M269.317,244.507c0-1.14-0.924-2.064-2.064-2.064c-1.14,0-2.064,0.924-2.064,2.064
						c0,1.14,0.924,2.064,2.064,2.064C268.393,246.571,269.317,245.647,269.317,244.507z"/>
					<path style="fill:#263238;" d="M301.518,244.507c0-1.14-0.924-2.064-2.064-2.064s-2.064,0.924-2.064,2.064
						c0,1.14,0.924,2.064,2.064,2.064S301.518,245.647,301.518,244.507z"/>
					<path style="fill:#263238;" d="M333.719,244.507c0-1.14-0.924-2.064-2.064-2.064c-1.14,0-2.064,0.924-2.064,2.064
						c0,1.14,0.924,2.064,2.064,2.064C332.795,246.571,333.719,245.647,333.719,244.507z"/>
				</g>
				<g>
					<path style="fill:#263238;" d="M108.311,275.78c0-1.14-0.924-2.064-2.064-2.064c-1.14,0-2.064,0.924-2.064,2.064
						c0,1.14,0.924,2.064,2.064,2.064C107.387,277.844,108.311,276.919,108.311,275.78z"/>
					<path style="fill:#263238;" d="M140.512,275.78c0-1.14-0.924-2.064-2.064-2.064c-1.14,0-2.064,0.924-2.064,2.064
						c0,1.14,0.924,2.064,2.064,2.064C139.589,277.844,140.512,276.919,140.512,275.78z"/>
					<path style="fill:#263238;" d="M172.714,275.78c0-1.14-0.924-2.064-2.064-2.064c-1.14,0-2.064,0.924-2.064,2.064
						c0,1.14,0.924,2.064,2.064,2.064C171.79,277.844,172.714,276.919,172.714,275.78z"/>
					<path style="fill:#263238;" d="M204.915,275.78c0-1.14-0.924-2.064-2.064-2.064c-1.14,0-2.064,0.924-2.064,2.064
						c0,1.14,0.924,2.064,2.064,2.064C203.991,277.844,204.915,276.919,204.915,275.78z"/>
					<path style="fill:#263238;" d="M237.116,275.78c0-1.14-0.924-2.064-2.064-2.064c-1.14,0-2.064,0.924-2.064,2.064
						c0,1.14,0.924,2.064,2.064,2.064C236.192,277.844,237.116,276.919,237.116,275.78z"/>
					<path style="fill:#263238;" d="M269.317,275.78c0-1.14-0.924-2.064-2.064-2.064c-1.14,0-2.064,0.924-2.064,2.064
						c0,1.14,0.924,2.064,2.064,2.064C268.393,277.844,269.317,276.919,269.317,275.78z"/>
					<path style="fill:#263238;" d="M301.518,275.78c0-1.14-0.924-2.064-2.064-2.064s-2.064,0.924-2.064,2.064
						c0,1.14,0.924,2.064,2.064,2.064S301.518,276.919,301.518,275.78z"/>
					<path style="fill:#263238;" d="M333.719,275.78c0-1.14-0.924-2.064-2.064-2.064c-1.14,0-2.064,0.924-2.064,2.064
						c0,1.14,0.924,2.064,2.064,2.064C332.795,277.844,333.719,276.919,333.719,275.78z"/>
				</g>
				<g>
					<path style="fill:#263238;" d="M108.311,307.053c0-1.14-0.924-2.064-2.064-2.064c-1.14,0-2.064,0.924-2.064,2.064
						s0.924,2.064,2.064,2.064C107.387,309.116,108.311,308.192,108.311,307.053z"/>
					<circle style="fill:#263238;" cx="138.449" cy="307.053" r="2.064"/>
					<circle style="fill:#263238;" cx="170.65" cy="307.053" r="2.064"/>
					<path style="fill:#263238;" d="M204.915,307.053c0-1.14-0.924-2.064-2.064-2.064c-1.14,0-2.064,0.924-2.064,2.064
						s0.924,2.064,2.064,2.064C203.991,309.116,204.915,308.192,204.915,307.053z"/>
					<path style="fill:#263238;" d="M237.116,307.053c0-1.14-0.924-2.064-2.064-2.064c-1.14,0-2.064,0.924-2.064,2.064
						s0.924,2.064,2.064,2.064C236.192,309.116,237.116,308.192,237.116,307.053z"/>
					<circle style="fill:#263238;" cx="267.253" cy="307.053" r="2.064"/>
					<circle style="fill:#263238;" cx="299.454" cy="307.053" r="2.064"/>
					<path style="fill:#263238;" d="M333.719,307.053c0-1.14-0.924-2.064-2.064-2.064c-1.14,0-2.064,0.924-2.064,2.064
						s0.924,2.064,2.064,2.064C332.795,309.116,333.719,308.192,333.719,307.053z"/>
				</g>
			</g>
			<g>
				<g>
					<path style="fill:#FFFFFF;stroke:#263238;stroke-miterlimit:10;" d="M129.805,86.017L129.805,86.017
						c-4.296,0-7.779-3.483-7.779-7.779V51.444h15.558v26.794C137.584,82.534,134.101,86.017,129.805,86.017z"/>
					<path style="fill:#263238;stroke:#263238;stroke-miterlimit:10;" d="M134.606,77.676c0-2.652-2.15-4.802-4.802-4.802
						c-2.652,0-4.801,2.15-4.801,4.802c0,2.652,2.15,4.801,4.801,4.801C132.457,82.478,134.606,80.328,134.606,77.676z"/>
				</g>
				<g>
					<path style="fill:#FFFFFF;stroke:#263238;stroke-miterlimit:10;" d="M149.807,86.017L149.807,86.017
						c-4.296,0-7.779-3.483-7.779-7.779V51.444h15.558v26.794C157.586,82.534,154.104,86.017,149.807,86.017z"/>
					<path style="fill:#263238;stroke:#263238;stroke-miterlimit:10;" d="M154.609,77.676c0-2.652-2.15-4.802-4.801-4.802
						c-2.652,0-4.802,2.15-4.802,4.802c0,2.652,2.15,4.801,4.802,4.801C152.459,82.478,154.609,80.328,154.609,77.676z"/>
				</g>
				<g>
					<path style="fill:#FFFFFF;stroke:#263238;stroke-miterlimit:10;" d="M169.81,86.017L169.81,86.017
						c-4.296,0-7.779-3.483-7.779-7.779V51.444h15.558v26.794C177.589,82.534,174.106,86.017,169.81,86.017z"/>
					<path style="fill:#263238;stroke:#263238;stroke-miterlimit:10;" d="M174.611,77.676c0-2.652-2.15-4.802-4.802-4.802
						c-2.652,0-4.801,2.15-4.801,4.802c0,2.652,2.15,4.801,4.801,4.801C172.462,82.478,174.611,80.328,174.611,77.676z"/>
				</g>
				<g>
					<path style="fill:#FFFFFF;stroke:#263238;stroke-miterlimit:10;" d="M189.813,86.017L189.813,86.017
						c-4.296,0-7.779-3.483-7.779-7.779V51.444h15.558v26.794C197.591,82.534,194.109,86.017,189.813,86.017z"/>
					<path style="fill:#263238;stroke:#263238;stroke-miterlimit:10;" d="M194.614,77.676c0-2.652-2.15-4.802-4.801-4.802
						c-2.652,0-4.802,2.15-4.802,4.802c0,2.652,2.15,4.801,4.802,4.801C192.464,82.478,194.614,80.328,194.614,77.676z"/>
				</g>
				<g>
					<path style="fill:#FFFFFF;stroke:#263238;stroke-miterlimit:10;" d="M209.815,86.017L209.815,86.017
						c-4.296,0-7.779-3.483-7.779-7.779V51.444h15.558v26.794C217.594,82.534,214.111,86.017,209.815,86.017z"/>
					<path style="fill:#263238;stroke:#263238;stroke-miterlimit:10;" d="M214.617,77.676c0-2.652-2.15-4.802-4.801-4.802
						c-2.652,0-4.802,2.15-4.802,4.802c0,2.652,2.15,4.801,4.802,4.801C212.467,82.478,214.617,80.328,214.617,77.676z"/>
				</g>
				<g>
					<path style="fill:#FFFFFF;stroke:#263238;stroke-miterlimit:10;" d="M229.817,86.017L229.817,86.017
						c-4.296,0-7.779-3.483-7.779-7.779V51.444h15.558v26.794C237.596,82.534,234.114,86.017,229.817,86.017z"/>
					<path style="fill:#263238;stroke:#263238;stroke-miterlimit:10;" d="M234.619,77.676c0-2.652-2.15-4.802-4.802-4.802
						c-2.652,0-4.801,2.15-4.801,4.802c0,2.652,2.15,4.801,4.801,4.801C232.469,82.478,234.619,80.328,234.619,77.676z"/>
				</g>
				<g>
					<path style="fill:#FFFFFF;stroke:#263238;stroke-miterlimit:10;" d="M249.82,86.017L249.82,86.017
						c-4.296,0-7.779-3.483-7.779-7.779V51.444h15.558v26.794C257.599,82.534,254.116,86.017,249.82,86.017z"/>
					<path style="fill:#263238;stroke:#263238;stroke-miterlimit:10;" d="M254.622,77.676c0-2.652-2.15-4.802-4.801-4.802
						c-2.652,0-4.802,2.15-4.802,4.802c0,2.652,2.15,4.801,4.802,4.801C252.472,82.478,254.622,80.328,254.622,77.676z"/>
				</g>
				<g>
					<path style="fill:#FFFFFF;stroke:#263238;stroke-miterlimit:10;" d="M269.823,86.017L269.823,86.017
						c-4.296,0-7.779-3.483-7.779-7.779V51.444h15.558v26.794C277.601,82.534,274.119,86.017,269.823,86.017z"/>
					<path style="fill:#263238;stroke:#263238;stroke-miterlimit:10;" d="M274.624,77.676c0-2.652-2.15-4.802-4.801-4.802
						s-4.802,2.15-4.802,4.802c0,2.652,2.15,4.801,4.802,4.801S274.624,80.328,274.624,77.676z"/>
				</g>
				<g>
					<path style="fill:#FFFFFF;stroke:#263238;stroke-miterlimit:10;" d="M289.825,86.017L289.825,86.017
						c-4.296,0-7.779-3.483-7.779-7.779V51.444h15.558v26.794C297.604,82.534,294.121,86.017,289.825,86.017z"/>
					<path style="fill:#263238;stroke:#263238;stroke-miterlimit:10;" d="M294.627,77.676c0-2.652-2.15-4.802-4.802-4.802
						c-2.652,0-4.802,2.15-4.802,4.802c0,2.652,2.15,4.801,4.802,4.801C292.477,82.478,294.627,80.328,294.627,77.676z"/>
				</g>
				<g>
					<path style="fill:#FFFFFF;stroke:#263238;stroke-miterlimit:10;" d="M289.825,293.836L289.825,293.836
						c4.296,0,7.779,3.483,7.779,7.779v26.794h-15.558v-26.794C282.046,297.319,285.529,293.836,289.825,293.836z"/>
					<path style="fill:#263238;stroke:#263238;stroke-miterlimit:10;" d="M285.024,302.176c0,2.652,2.15,4.802,4.802,4.802
						c2.652,0,4.802-2.15,4.802-4.802c0-2.652-2.15-4.801-4.802-4.801C287.173,297.375,285.024,299.525,285.024,302.176z"/>
				</g>
				<g>
					<path style="fill:#FFFFFF;stroke:#263238;stroke-miterlimit:10;" d="M269.823,293.836L269.823,293.836
						c4.296,0,7.779,3.483,7.779,7.779v26.794h-15.558v-26.794C262.044,297.319,265.526,293.836,269.823,293.836z"/>
					<path style="fill:#263238;stroke:#263238;stroke-miterlimit:10;" d="M265.021,302.176c0,2.652,2.15,4.802,4.802,4.802
						s4.801-2.15,4.801-4.802c0-2.652-2.15-4.801-4.801-4.801S265.021,299.525,265.021,302.176z"/>
				</g>
				<g>
					<path style="fill:#FFFFFF;stroke:#263238;stroke-miterlimit:10;" d="M249.82,293.836L249.82,293.836
						c4.296,0,7.779,3.483,7.779,7.779v26.794h-15.558v-26.794C242.041,297.319,245.524,293.836,249.82,293.836z"/>
					<path style="fill:#263238;stroke:#263238;stroke-miterlimit:10;" d="M245.018,302.176c0,2.652,2.15,4.802,4.802,4.802
						c2.652,0,4.801-2.15,4.801-4.802c0-2.652-2.15-4.801-4.801-4.801C247.168,297.375,245.018,299.525,245.018,302.176z"/>
				</g>
				<g>
					<path style="fill:#FFFFFF;stroke:#263238;stroke-miterlimit:10;" d="M229.817,293.836L229.817,293.836
						c4.296,0,7.779,3.483,7.779,7.779v26.794h-15.558v-26.794C222.039,297.319,225.521,293.836,229.817,293.836z"/>
					<path style="fill:#263238;stroke:#263238;stroke-miterlimit:10;" d="M225.016,302.176c0,2.652,2.15,4.802,4.801,4.802
						c2.652,0,4.802-2.15,4.802-4.802c0-2.652-2.15-4.801-4.802-4.801C227.166,297.375,225.016,299.525,225.016,302.176z"/>
				</g>
				<g>
					<path style="fill:#FFFFFF;stroke:#263238;stroke-miterlimit:10;" d="M209.815,293.836L209.815,293.836
						c4.296,0,7.779,3.483,7.779,7.779v26.794h-15.558v-26.794C202.036,297.319,205.519,293.836,209.815,293.836z"/>
					<path style="fill:#263238;stroke:#263238;stroke-miterlimit:10;" d="M205.013,302.176c0,2.652,2.15,4.802,4.802,4.802
						c2.652,0,4.801-2.15,4.801-4.802c0-2.652-2.15-4.801-4.801-4.801C207.163,297.375,205.013,299.525,205.013,302.176z"/>
				</g>
				<g>
					<path style="fill:#FFFFFF;stroke:#263238;stroke-miterlimit:10;" d="M189.812,293.836L189.812,293.836
						c4.296,0,7.779,3.483,7.779,7.779v26.794h-15.558v-26.794C182.034,297.319,185.516,293.836,189.812,293.836z"/>
					<path style="fill:#263238;stroke:#263238;stroke-miterlimit:10;" d="M185.011,302.176c0,2.652,2.15,4.802,4.802,4.802
						c2.652,0,4.801-2.15,4.801-4.802c0-2.652-2.15-4.801-4.801-4.801C187.161,297.375,185.011,299.525,185.011,302.176z"/>
				</g>
				<g>
					<path style="fill:#FFFFFF;stroke:#263238;stroke-miterlimit:10;" d="M169.81,293.836L169.81,293.836
						c4.296,0,7.779,3.483,7.779,7.779v26.794h-15.558v-26.794C162.031,297.319,165.514,293.836,169.81,293.836z"/>
					<path style="fill:#263238;stroke:#263238;stroke-miterlimit:10;" d="M165.008,302.176c0,2.652,2.15,4.802,4.801,4.802
						c2.652,0,4.802-2.15,4.802-4.802c0-2.652-2.15-4.801-4.802-4.801C167.158,297.375,165.008,299.525,165.008,302.176z"/>
				</g>
				<g>
					<path style="fill:#FFFFFF;stroke:#263238;stroke-miterlimit:10;" d="M149.807,293.836L149.807,293.836
						c4.296,0,7.779,3.483,7.779,7.779v26.794h-15.558v-26.794C142.029,297.319,145.511,293.836,149.807,293.836z"/>
					<path style="fill:#263238;stroke:#263238;stroke-miterlimit:10;" d="M145.006,302.176c0,2.652,2.15,4.802,4.802,4.802
						c2.652,0,4.801-2.15,4.801-4.802c0-2.652-2.15-4.801-4.801-4.801C147.156,297.375,145.006,299.525,145.006,302.176z"/>
				</g>
				<g>
					<path style="fill:#FFFFFF;stroke:#263238;stroke-miterlimit:10;" d="M129.805,293.836L129.805,293.836
						c4.296,0,7.779,3.483,7.779,7.779v26.794h-15.558v-26.794C122.026,297.319,125.509,293.836,129.805,293.836z"/>
					<path style="fill:#263238;stroke:#263238;stroke-miterlimit:10;" d="M125.003,302.176c0,2.652,2.15,4.802,4.801,4.802
						c2.652,0,4.802-2.15,4.802-4.802c0-2.652-2.15-4.801-4.802-4.801C127.153,297.375,125.003,299.525,125.003,302.176z"/>
				</g>
			</g>
			<g>
				<polyline style="fill:none;stroke:#263238;stroke-width:2;stroke-miterlimit:10;" points="205.503,142.77 205.503,133.62 
					200.479,127.325 200.479,120.4 				"/>
				
					<line style="fill:none;stroke:#263238;stroke-width:2;stroke-miterlimit:10;" x1="249.847" y1="141.821" x2="249.847" y2="104.628"/>
				
					<line style="fill:none;stroke:#263238;stroke-width:2;stroke-miterlimit:10;" x1="223.141" y1="147.698" x2="223.141" y2="110.505"/>
				
					<line style="fill:none;stroke:#263238;stroke-width:2;stroke-miterlimit:10;" x1="214.174" y1="141.821" x2="214.174" y2="104.628"/>
				<g>
					<path style="fill:#263238;stroke:#263238;stroke-miterlimit:10;" d="M204.647,130.86c-1.524,0-2.76,1.236-2.76,2.76
						c0,1.524,1.236,2.76,2.76,2.76c1.524,0,2.76-1.236,2.76-2.76C207.407,132.096,206.171,130.86,204.647,130.86z"/>
					<circle style="fill:#FFFFFF;stroke:#263238;stroke-miterlimit:10;" cx="204.647" cy="133.62" r="1.335"/>
				</g>
				<g>
					<path style="fill:#263238;stroke:#263238;stroke-miterlimit:10;" d="M214.101,101.902c-1.524,0-2.76,1.236-2.76,2.76
						s1.236,2.76,2.76,2.76c1.524,0,2.76-1.236,2.76-2.76S215.626,101.902,214.101,101.902z"/>
					<circle style="fill:#FFFFFF;stroke:#263238;stroke-miterlimit:10;" cx="214.101" cy="104.662" r="1.335"/>
				</g>
				<g>
					<path style="fill:#263238;stroke:#263238;stroke-miterlimit:10;" d="M222.908,106.151c-1.524,0-2.76,1.236-2.76,2.76
						c0,1.524,1.236,2.76,2.76,2.76c1.524,0,2.76-1.236,2.76-2.76C225.668,107.387,224.432,106.151,222.908,106.151z"/>
					<circle style="fill:#FFFFFF;stroke:#263238;stroke-miterlimit:10;" cx="222.908" cy="108.911" r="1.335"/>
				</g>
				<g>
					<path style="fill:#263238;stroke:#263238;stroke-miterlimit:10;" d="M232.01,100.533c-1.524,0-2.76,1.236-2.76,2.76
						s1.236,2.76,2.76,2.76c1.524,0,2.76-1.236,2.76-2.76S233.535,100.533,232.01,100.533z"/>
					<circle style="fill:#FFFFFF;stroke:#263238;stroke-miterlimit:10;" cx="232.01" cy="103.292" r="1.335"/>
				</g>
				<g>
					<path style="fill:#263238;stroke:#263238;stroke-miterlimit:10;" d="M240.692,106.151c-1.524,0-2.76,1.236-2.76,2.76
						c0,1.524,1.236,2.76,2.76,2.76c1.524,0,2.76-1.236,2.76-2.76C243.452,107.387,242.216,106.151,240.692,106.151z"/>
					<circle style="fill:#FFFFFF;stroke:#263238;stroke-miterlimit:10;" cx="240.692" cy="108.911" r="1.335"/>
				</g>
				<g>
					<path style="fill:#263238;stroke:#263238;stroke-miterlimit:10;" d="M249.794,100.533c-1.524,0-2.76,1.236-2.76,2.76
						s1.236,2.76,2.76,2.76c1.524,0,2.76-1.236,2.76-2.76S251.319,100.533,249.794,100.533z"/>
					<circle style="fill:#FFFFFF;stroke:#263238;stroke-miterlimit:10;" cx="249.794" cy="103.292" r="1.335"/>
				</g>
				
					<line style="fill:none;stroke:#263238;stroke-width:2;stroke-miterlimit:10;" x1="240.978" y1="147.698" x2="240.978" y2="110.505"/>
				
					<line style="fill:none;stroke:#263238;stroke-width:2;stroke-miterlimit:10;" x1="232.01" y1="141.821" x2="232.01" y2="104.628"/>
				
					<line style="fill:none;stroke:#263238;stroke-width:2;stroke-miterlimit:10;" x1="249.847" y1="222.772" x2="249.847" y2="259.966"/>
				
					<line style="fill:none;stroke:#263238;stroke-width:2;stroke-miterlimit:10;" x1="223.141" y1="216.895" x2="223.141" y2="254.089"/>
				
					<line style="fill:none;stroke:#263238;stroke-width:2;stroke-miterlimit:10;" x1="214.174" y1="222.772" x2="214.174" y2="259.966"/>
				<g>
					<path style="fill:#263238;stroke:#263238;stroke-miterlimit:10;" d="M214.101,262.692c-1.524,0-2.76-1.236-2.76-2.76
						s1.236-2.76,2.76-2.76c1.524,0,2.76,1.236,2.76,2.76S215.626,262.692,214.101,262.692z"/>
					<circle style="fill:#FFFFFF;stroke:#263238;stroke-miterlimit:10;" cx="214.101" cy="259.932" r="1.335"/>
				</g>
				
					<line style="fill:none;stroke:#263238;stroke-width:2;stroke-miterlimit:10;" x1="205.797" y1="222.772" x2="205.797" y2="246.745"/>
				<g>
					<path style="fill:#263238;stroke:#263238;stroke-miterlimit:10;" d="M206.161,249.438c-1.865,0.286-3.448-1.298-3.163-3.163
						c0.178-1.162,1.128-2.112,2.29-2.29c1.865-0.286,3.449,1.298,3.163,3.163C208.273,248.31,207.323,249.26,206.161,249.438z"/>
					<path style="fill:#FFFFFF;stroke:#263238;stroke-miterlimit:10;" d="M206.057,245.416c-0.994-0.24-1.867,0.633-1.628,1.627
						c0.113,0.467,0.496,0.85,0.963,0.963c0.994,0.24,1.867-0.633,1.628-1.627C206.907,245.912,206.524,245.529,206.057,245.416z"/>
				</g>
				
					<line style="fill:none;stroke:#263238;stroke-width:2;stroke-miterlimit:10;" x1="196.564" y1="222.772" x2="196.564" y2="250.292"/>
				<g>
					<path style="fill:#263238;stroke:#263238;stroke-miterlimit:10;" d="M196.928,240.394c-1.865,0.286-3.448-1.298-3.163-3.163
						c0.178-1.162,1.128-2.112,2.29-2.29c1.865-0.286,3.449,1.298,3.163,3.163C199.04,239.266,198.09,240.216,196.928,240.394z"/>
					<path style="fill:#FFFFFF;stroke:#263238;stroke-miterlimit:10;" d="M196.824,236.372c-0.994-0.24-1.868,0.633-1.628,1.627
						c0.113,0.467,0.496,0.85,0.963,0.963c0.994,0.24,1.867-0.633,1.628-1.627C197.674,236.868,197.291,236.485,196.824,236.372z"/>
				</g>
				<g>
					<path style="fill:#263238;stroke:#263238;stroke-miterlimit:10;" d="M222.908,258.442c-1.524,0-2.76-1.236-2.76-2.76
						s1.236-2.76,2.76-2.76c1.524,0,2.76,1.236,2.76,2.76S224.432,258.442,222.908,258.442z"/>
					<circle style="fill:#FFFFFF;stroke:#263238;stroke-miterlimit:10;" cx="222.908" cy="255.682" r="1.335"/>
				</g>
				<g>
					<path style="fill:#263238;stroke:#263238;stroke-miterlimit:10;" d="M232.01,264.061c-1.524,0-2.76-1.236-2.76-2.76
						s1.236-2.76,2.76-2.76c1.524,0,2.76,1.236,2.76,2.76S233.535,264.061,232.01,264.061z"/>
					<circle style="fill:#FFFFFF;stroke:#263238;stroke-miterlimit:10;" cx="232.01" cy="261.301" r="1.335"/>
				</g>
				<g>
					<path style="fill:#263238;stroke:#263238;stroke-miterlimit:10;" d="M240.692,258.442c-1.524,0-2.76-1.236-2.76-2.76
						s1.236-2.76,2.76-2.76c1.524,0,2.76,1.236,2.76,2.76S242.216,258.442,240.692,258.442z"/>
					<circle style="fill:#FFFFFF;stroke:#263238;stroke-miterlimit:10;" cx="240.692" cy="255.682" r="1.335"/>
				</g>
				<g>
					<path style="fill:#263238;stroke:#263238;stroke-miterlimit:10;" d="M249.794,264.061c-1.524,0-2.76-1.236-2.76-2.76
						s1.236-2.76,2.76-2.76c1.524,0,2.76,1.236,2.76,2.76S251.319,264.061,249.794,264.061z"/>
					<circle style="fill:#FFFFFF;stroke:#263238;stroke-miterlimit:10;" cx="249.794" cy="261.301" r="1.335"/>
				</g>
				
					<line style="fill:none;stroke:#263238;stroke-width:2;stroke-miterlimit:10;" x1="240.978" y1="216.895" x2="240.978" y2="254.089"/>
				
					<line style="fill:none;stroke:#263238;stroke-width:2;stroke-miterlimit:10;" x1="232.01" y1="222.772" x2="232.01" y2="259.966"/>
				<g>
					<rect x="197.96" y="110.013" style="fill:#FFFFFF;stroke:#263238;stroke-miterlimit:10;" width="5.666" height="11.017"/>
					<rect x="197.96" y="112.324" style="fill:#FFFFFF;stroke:#263238;stroke-miterlimit:10;" width="5.666" height="6.394"/>
				</g>
				<g>
					<rect x="194.078" y="247.302" style="fill:#FFFFFF;stroke:#263238;stroke-miterlimit:10;" width="5.666" height="11.017"/>
					<rect x="194.078" y="249.613" style="fill:#FFFFFF;stroke:#263238;stroke-miterlimit:10;" width="5.666" height="6.394"/>
				</g>
				<g>
					<rect x="256.192" y="235.131" style="fill:#FFFFFF;stroke:#263238;stroke-miterlimit:10;" width="5.666" height="11.017"/>
					<rect x="256.192" y="237.442" style="fill:#FFFFFF;stroke:#263238;stroke-miterlimit:10;" width="5.666" height="6.394"/>
				</g>
				<polyline style="fill:none;stroke:#263238;stroke-width:2;stroke-miterlimit:10;" points="258.83,142.77 258.83,133.62 
					263.854,127.325 263.854,120.4 				"/>
				<g>
					<path style="fill:#263238;stroke:#263238;stroke-miterlimit:10;" d="M259.686,130.86c1.524,0,2.76,1.236,2.76,2.76
						c0,1.524-1.236,2.76-2.76,2.76c-1.524,0-2.76-1.236-2.76-2.76C256.926,132.096,258.162,130.86,259.686,130.86z"/>
					<circle style="fill:#FFFFFF;stroke:#263238;stroke-miterlimit:10;" cx="259.686" cy="133.62" r="1.335"/>
				</g>
				<g>
					<path style="fill:#263238;stroke:#263238;stroke-miterlimit:10;" d="M301.413,144.633c1.524,0,2.76,1.236,2.76,2.76
						c0,1.524-1.236,2.76-2.76,2.76c-1.524,0-2.76-1.236-2.76-2.76C298.653,145.869,299.888,144.633,301.413,144.633z"/>
					<circle style="fill:#FFFFFF;stroke:#263238;stroke-miterlimit:10;" cx="301.413" cy="147.393" r="1.335"/>
				</g>
				<g>
					
						<rect x="260.706" y="110.013" transform="matrix(-1 -1.224647e-16 1.224647e-16 -1 527.0788 231.0419)" style="fill:#FFFFFF;stroke:#263238;stroke-miterlimit:10;" width="5.666" height="11.017"/>
					
						<rect x="260.706" y="112.324" transform="matrix(-1 -1.224647e-16 1.224647e-16 -1 527.0788 231.0419)" style="fill:#FFFFFF;stroke:#263238;stroke-miterlimit:10;" width="5.666" height="6.394"/>
				</g>
				<polyline style="fill:none;stroke:#263238;stroke-width:2;stroke-miterlimit:10;" points="196.632,142.77 196.632,136.558 
					189.891,127.744 189.891,118.422 				"/>
				<g>
					<rect x="187.052" y="110.013" style="fill:#FFFFFF;stroke:#263238;stroke-miterlimit:10;" width="5.666" height="11.017"/>
					<rect x="187.052" y="112.324" style="fill:#FFFFFF;stroke:#263238;stroke-miterlimit:10;" width="5.666" height="6.394"/>
				</g>
				<polyline style="fill:none;stroke:#263238;stroke-width:2;stroke-miterlimit:10;" points="268.258,151.666 276.651,151.666 
					276.651,118.718 				"/>
				<g>
					
						<rect x="273.818" y="110.013" transform="matrix(-1 -1.224647e-16 1.224647e-16 -1 553.3023 231.0419)" style="fill:#FFFFFF;stroke:#263238;stroke-miterlimit:10;" width="5.666" height="11.017"/>
					
						<rect x="273.818" y="112.324" transform="matrix(-1 -1.224647e-16 1.224647e-16 -1 553.3023 231.0419)" style="fill:#FFFFFF;stroke:#263238;stroke-miterlimit:10;" width="5.666" height="6.394"/>
				</g>
				<g>
					
						<rect x="298.475" y="132.783" transform="matrix(-1 -1.224647e-16 1.224647e-16 -1 602.6151 276.5833)" style="fill:#FFFFFF;stroke:#263238;stroke-miterlimit:10;" width="5.666" height="11.017"/>
					
						<rect x="298.475" y="135.094" transform="matrix(-1 -1.224647e-16 1.224647e-16 -1 602.6151 276.5834)" style="fill:#FFFFFF;stroke:#263238;stroke-miterlimit:10;" width="5.666" height="6.394"/>
				</g>
				<polyline style="fill:none;stroke:#263238;stroke-width:2;stroke-miterlimit:10;" points="268.258,178.106 282.107,178.106 
					292.599,159.221 292.599,147.889 				"/>
				<g>
					
						<rect x="289.766" y="138.551" transform="matrix(-1 -1.224647e-16 1.224647e-16 -1 585.1983 288.1189)" style="fill:#FFFFFF;stroke:#263238;stroke-miterlimit:10;" width="5.666" height="11.017"/>
					
						<rect x="289.766" y="140.862" transform="matrix(-1 -1.224647e-16 1.224647e-16 -1 585.1983 288.1188)" style="fill:#FFFFFF;stroke:#263238;stroke-miterlimit:10;" width="5.666" height="6.394"/>
				</g>
				
					<line style="fill:none;stroke:#263238;stroke-width:2;stroke-miterlimit:10;" x1="268.677" y1="161.319" x2="291.34" y2="161.319"/>
				
					<line style="fill:none;stroke:#263238;stroke-width:2;stroke-miterlimit:10;" x1="268.677" y1="169.293" x2="286.723" y2="169.293"/>
				<polyline style="fill:none;stroke:#263238;stroke-width:2;stroke-miterlimit:10;" points="298.165,201.532 292.599,201.609 
					285.045,196.572 267.418,196.572 				"/>
				<path style="fill:none;stroke:#263238;stroke-width:6;stroke-miterlimit:10;" d="M297.635,181.044h20.635
					c3.36,0,6.494,1.695,8.332,4.507l0.195,0.299c2.377,3.635,2.123,8.391-0.627,11.752l0,0c-1.861,2.274-4.631,3.61-7.569,3.65
					l-20.438,0.28"/>
				<polyline style="fill:none;stroke:#263238;stroke-width:2;stroke-miterlimit:10;" points="267.418,187.339 285.045,187.339 
					291.76,181.044 297.635,181.044 				"/>
				<g>
					
						<rect x="295.327" y="174.857" transform="matrix(6.123234e-17 -1 1 6.123234e-17 117.795 478.5249)" style="fill:#FFFFFF;stroke:#263238;stroke-miterlimit:10;" width="5.666" height="11.017"/>
					
						<rect x="295.327" y="177.168" transform="matrix(6.123234e-17 -1 1 6.123234e-17 117.7949 478.5248)" style="fill:#FFFFFF;stroke:#263238;stroke-miterlimit:10;" width="5.666" height="6.394"/>
				</g>
				<g>
					
						<rect x="315.367" y="174.857" transform="matrix(6.123234e-17 -1 1 6.123234e-17 137.8349 498.5648)" style="fill:#FFFFFF;stroke:#263238;stroke-miterlimit:10;" width="5.666" height="11.017"/>
					
						<rect x="315.367" y="177.168" transform="matrix(6.123234e-17 -1 1 6.123234e-17 137.8348 498.5648)" style="fill:#FFFFFF;stroke:#263238;stroke-miterlimit:10;" width="5.666" height="6.394"/>
				</g>
				<g>
					
						<rect x="295.327" y="195.68" transform="matrix(6.123234e-17 -1 1 6.123234e-17 96.9711 499.3488)" style="fill:#FFFFFF;stroke:#263238;stroke-miterlimit:10;" width="5.666" height="11.017"/>
					
						<rect x="295.327" y="197.992" transform="matrix(6.123234e-17 -1 1 6.123234e-17 96.971 499.3488)" style="fill:#FFFFFF;stroke:#263238;stroke-miterlimit:10;" width="5.666" height="6.394"/>
				</g>
				<g>
					
						<rect x="315.367" y="195.68" transform="matrix(6.123234e-17 -1 1 6.123234e-17 117.011 519.3887)" style="fill:#FFFFFF;stroke:#263238;stroke-miterlimit:10;" width="5.666" height="11.017"/>
					
						<rect x="315.367" y="197.992" transform="matrix(6.123234e-17 -1 1 6.123234e-17 117.0109 519.3887)" style="fill:#FFFFFF;stroke:#263238;stroke-miterlimit:10;" width="5.666" height="6.394"/>
				</g>
				<polyline style="fill:none;stroke:#263238;stroke-width:2;stroke-miterlimit:10;" points="266.998,205.386 283.786,205.386 
					293.858,212.94 303.931,212.94 				"/>
				<g>
					
						<rect x="295.327" y="207.012" transform="matrix(-0.0164 -0.9999 0.9999 -0.0164 90.5623 514.1284)" style="fill:#FFFFFF;stroke:#263238;stroke-miterlimit:10;" width="5.666" height="11.017"/>
					
						<rect x="295.327" y="209.323" transform="matrix(-0.0164 -0.9999 0.9999 -0.0164 90.5624 514.1285)" style="fill:#FFFFFF;stroke:#263238;stroke-miterlimit:10;" width="5.666" height="6.394"/>
				</g>
				<g>
					<path style="fill:#263238;stroke:#263238;stroke-miterlimit:10;" d="M289.846,207.018c1.524,0,2.76,1.236,2.76,2.76
						c0,1.524-1.236,2.76-2.76,2.76c-1.524,0-2.76-1.236-2.76-2.76C287.086,208.254,288.322,207.018,289.846,207.018z"/>
					<circle style="fill:#FFFFFF;stroke:#263238;stroke-miterlimit:10;" cx="289.846" cy="209.778" r="1.335"/>
				</g>
				<path style="fill:none;stroke:#263238;stroke-width:2;stroke-miterlimit:10;" d="M267.418,214.619h9.315
					c4.72,0,9.181,2.158,12.111,5.859l0,0c2.16,2.729,3.336,6.107,3.336,9.588v20.226h24.342l4.617,5.036"/>
				<path style="fill:#FFFFFF;stroke:#263238;stroke-miterlimit:10;" d="M323.79,279.25h-15.797c-3.866,0-7-3.134-7-7v-11.181
					c0-3.866,3.134-7,7-7h15.797c3.866,0,7,3.134,7,7v11.181C330.79,276.116,327.656,279.25,323.79,279.25z"/>
				<path style="fill:#FFFFFF;stroke:#263238;stroke-miterlimit:10;" d="M321.307,277.152h-10.831c-3.866,0-7-3.134-7-7v-6.984
					c0-3.866,3.134-7,7-7h10.831c3.866,0,7,3.134,7,7v6.984C328.307,274.018,325.173,277.152,321.307,277.152z"/>
				
					<line style="fill:none;stroke:#263238;stroke-width:2;stroke-miterlimit:10;" x1="259.024" y1="217.976" x2="259.024" y2="231.406"/>
				<g>
					<path style="fill:#263238;stroke:#263238;stroke-miterlimit:10;" d="M259.444,233.505c-1.865,0.285-3.448-1.298-3.163-3.163
						c0.178-1.162,1.128-2.112,2.29-2.29c1.865-0.286,3.448,1.298,3.163,3.163C261.556,232.377,260.606,233.327,259.444,233.505z"/>
					<path style="fill:#FFFFFF;stroke:#263238;stroke-miterlimit:10;" d="M259.34,229.483c-0.994-0.24-1.867,0.633-1.628,1.627
						c0.113,0.467,0.496,0.85,0.963,0.963c0.994,0.24,1.867-0.633,1.628-1.627C260.191,229.979,259.808,229.596,259.34,229.483z"/>
				</g>
				<polyline style="fill:none;stroke:#263238;stroke-width:2;stroke-miterlimit:10;" points="188.518,213.779 175.927,213.779 
					169.212,221.334 169.212,235.183 				"/>
				<polyline style="fill:none;stroke:#263238;stroke-width:2;stroke-miterlimit:10;" points="190.196,204.966 165.015,204.966 
					157.041,215.458 157.041,241.059 				"/>
				<g>
					<path style="fill:#263238;stroke:#263238;stroke-miterlimit:10;" d="M169.576,237.876c-1.865,0.285-3.448-1.298-3.163-3.163
						c0.178-1.162,1.128-2.112,2.29-2.29c1.865-0.286,3.448,1.298,3.163,3.163C171.688,236.748,170.738,237.698,169.576,237.876z"/>
					<path style="fill:#FFFFFF;stroke:#263238;stroke-miterlimit:10;" d="M169.472,233.854c-0.994-0.24-1.867,0.633-1.628,1.627
						c0.113,0.467,0.496,0.85,0.963,0.963c0.994,0.24,1.867-0.633,1.628-1.627C170.322,234.35,169.939,233.967,169.472,233.854z"/>
				</g>
				<g>
					<path style="fill:#263238;stroke:#263238;stroke-miterlimit:10;" d="M157.81,242.49c-1.865,0.286-3.448-1.298-3.163-3.163
						c0.178-1.162,1.128-2.112,2.29-2.29c1.865-0.286,3.448,1.298,3.163,3.163C159.922,241.362,158.972,242.312,157.81,242.49z"/>
					<path style="fill:#FFFFFF;stroke:#263238;stroke-miterlimit:10;" d="M157.706,238.468c-0.994-0.24-1.868,0.633-1.628,1.628
						c0.113,0.467,0.496,0.85,0.963,0.963c0.994,0.24,1.867-0.633,1.628-1.627C158.556,238.964,158.173,238.581,157.706,238.468z"/>
				</g>
				<polyline style="fill:none;stroke:#263238;stroke-width:2;stroke-miterlimit:10;" points="190.196,196.328 165.015,196.328 
					157.041,185.836 157.041,119.945 				"/>
				<g>
					<path style="fill:#263238;stroke:#263238;stroke-miterlimit:10;" d="M157.81,118.514c-1.865-0.285-3.448,1.298-3.163,3.163
						c0.178,1.162,1.128,2.112,2.29,2.29c1.865,0.286,3.448-1.298,3.163-3.163C159.922,119.642,158.972,118.692,157.81,118.514z"/>
					<path style="fill:#FFFFFF;stroke:#263238;stroke-miterlimit:10;" d="M157.706,122.536c-0.994,0.24-1.868-0.633-1.628-1.628
						c0.113-0.467,0.496-0.85,0.963-0.963c0.994-0.24,1.867,0.633,1.628,1.627C158.556,122.04,158.173,122.423,157.706,122.536z"/>
				</g>
				<polyline style="fill:none;stroke:#263238;stroke-width:2;stroke-miterlimit:10;" points="195.652,187.267 170.471,187.267 
					162.497,176.775 162.497,110.884 				"/>
				<g>
					<path style="fill:#263238;stroke:#263238;stroke-miterlimit:10;" d="M163.266,109.453c-1.865-0.285-3.448,1.298-3.163,3.163
						c0.178,1.162,1.128,2.112,2.29,2.29c1.865,0.286,3.448-1.298,3.163-3.163C165.378,110.581,164.428,109.631,163.266,109.453z"/>
					<path style="fill:#FFFFFF;stroke:#263238;stroke-miterlimit:10;" d="M163.162,113.475c-0.994,0.24-1.867-0.633-1.628-1.627
						c0.113-0.467,0.496-0.851,0.963-0.963c0.994-0.24,1.867,0.633,1.628,1.627C164.012,112.979,163.629,113.362,163.162,113.475z"
						/>
				</g>
				<polyline style="fill:none;stroke:#263238;stroke-width:2;stroke-miterlimit:10;" points="201.528,178.454 176.347,178.454 
					168.373,167.961 168.373,102.071 				"/>
				<g>
					<path style="fill:#263238;stroke:#263238;stroke-miterlimit:10;" d="M169.141,100.64c-1.865-0.285-3.448,1.298-3.163,3.163
						c0.178,1.162,1.128,2.112,2.29,2.29c1.865,0.286,3.448-1.298,3.163-3.163C171.253,101.767,170.303,100.817,169.141,100.64z"/>
					<path style="fill:#FFFFFF;stroke:#263238;stroke-miterlimit:10;" d="M169.037,104.661c-0.994,0.24-1.867-0.633-1.628-1.628
						c0.113-0.467,0.496-0.85,0.963-0.963c0.994-0.24,1.867,0.633,1.628,1.627C169.888,104.165,169.505,104.549,169.037,104.661z"/>
				</g>
				
					<line style="fill:none;stroke:#263238;stroke-width:2;stroke-miterlimit:10;" x1="125.258" y1="152.831" x2="125.258" y2="138.144"/>
				<g>
					<path style="fill:#263238;stroke:#263238;stroke-miterlimit:10;" d="M125.721,142.188c-1.865-0.286-3.448,1.298-3.163,3.163
						c0.178,1.162,1.128,2.112,2.29,2.29c1.865,0.286,3.449-1.298,3.163-3.163C127.833,143.315,126.883,142.365,125.721,142.188z"/>
					<path style="fill:#FFFFFF;stroke:#263238;stroke-miterlimit:10;" d="M125.618,146.209c-0.994,0.24-1.868-0.633-1.628-1.627
						c0.113-0.467,0.496-0.851,0.963-0.963c0.994-0.24,1.867,0.633,1.628,1.627C126.468,145.713,126.085,146.096,125.618,146.209z"
						/>
				</g>
				<g>
					
						<rect x="118.333" y="131.797" transform="matrix(-0.0164 -0.9999 0.9999 -0.0164 -14.1319 260.7083)" style="fill:#FFFFFF;stroke:#263238;stroke-miterlimit:10;" width="5.666" height="11.017"/>
					
						<rect x="118.333" y="134.108" transform="matrix(-0.0164 -0.9999 0.9999 -0.0164 -14.1318 260.7083)" style="fill:#FFFFFF;stroke:#263238;stroke-miterlimit:10;" width="5.666" height="6.394"/>
				</g>
				
					<line style="fill:none;stroke:#263238;stroke-width:2;stroke-miterlimit:10;" x1="125.258" y1="198.476" x2="125.258" y2="213.162"/>
				<g>
					<path style="fill:#263238;stroke:#263238;stroke-miterlimit:10;" d="M125.721,209.119c-1.865,0.285-3.448-1.298-3.163-3.163
						c0.178-1.162,1.128-2.112,2.29-2.29c1.865-0.286,3.449,1.298,3.163,3.163C127.833,207.991,126.883,208.941,125.721,209.119z"/>
					<path style="fill:#FFFFFF;stroke:#263238;stroke-miterlimit:10;" d="M125.618,205.097c-0.994-0.24-1.868,0.633-1.628,1.627
						c0.113,0.467,0.496,0.851,0.963,0.963c0.994,0.24,1.867-0.633,1.628-1.627C126.468,205.593,126.085,205.21,125.618,205.097z"/>
				</g>
				<g>
					
						<rect x="118.333" y="208.493" transform="matrix(-0.0164 0.9999 -0.9999 -0.0164 337.127 96.3644)" style="fill:#FFFFFF;stroke:#263238;stroke-miterlimit:10;" width="5.666" height="11.017"/>
					
						<rect x="118.333" y="210.804" transform="matrix(-0.0164 0.9999 -0.9999 -0.0164 337.127 96.3643)" style="fill:#FFFFFF;stroke:#263238;stroke-miterlimit:10;" width="5.666" height="6.394"/>
				</g>
				<g>
					<rect x="112.091" y="151.818" style="fill:#FFFFFF;stroke:#263238;stroke-miterlimit:10;" width="23.295" height="7.09"/>
					<rect x="112.091" y="192.837" style="fill:#FFFFFF;stroke:#263238;stroke-miterlimit:10;" width="23.295" height="7.09"/>
					<rect x="115.129" y="155.363" style="fill:#263238;stroke:#263238;stroke-miterlimit:10;" width="16.205" height="40.007"/>
				</g>
				
					<line style="fill:none;stroke:#263238;stroke-width:6;stroke-miterlimit:10;" x1="328.507" y1="191.46" x2="328.507" y2="113.909"/>
				<rect x="315.052" y="91.008" style="fill:#FFFFFF;stroke:#263238;stroke-miterlimit:10;" width="6.925" height="23.292"/>
				<rect x="325.439" y="95.1" style="fill:#FFFFFF;stroke:#263238;stroke-miterlimit:10;" width="6.925" height="23.292"/>
				<rect x="335.826" y="91.008" style="fill:#FFFFFF;stroke:#263238;stroke-miterlimit:10;" width="6.925" height="23.292"/>
				<g>
					<g>
						<rect x="195.252" y="140.208" style="fill:#FFFFFF;stroke:#263238;stroke-miterlimit:10;" width="2.76" height="5.125"/>
						<rect x="204.123" y="140.208" style="fill:#FFFFFF;stroke:#263238;stroke-miterlimit:10;" width="2.76" height="5.125"/>
						<rect x="212.994" y="140.208" style="fill:#FFFFFF;stroke:#263238;stroke-miterlimit:10;" width="2.76" height="5.125"/>
						<rect x="221.865" y="140.208" style="fill:#FFFFFF;stroke:#263238;stroke-miterlimit:10;" width="2.76" height="5.125"/>
						<rect x="230.736" y="140.208" style="fill:#FFFFFF;stroke:#263238;stroke-miterlimit:10;" width="2.76" height="5.125"/>
						<rect x="239.607" y="140.208" style="fill:#FFFFFF;stroke:#263238;stroke-miterlimit:10;" width="2.76" height="5.125"/>
						<rect x="248.478" y="140.208" style="fill:#FFFFFF;stroke:#263238;stroke-miterlimit:10;" width="2.76" height="5.125"/>
						<rect x="257.349" y="140.208" style="fill:#FFFFFF;stroke:#263238;stroke-miterlimit:10;" width="2.76" height="5.125"/>
					</g>
					<g>
						<rect x="195.252" y="219.023" style="fill:#FFFFFF;stroke:#263238;stroke-miterlimit:10;" width="2.76" height="5.126"/>
						<rect x="204.123" y="219.023" style="fill:#FFFFFF;stroke:#263238;stroke-miterlimit:10;" width="2.76" height="5.126"/>
						<rect x="212.994" y="219.023" style="fill:#FFFFFF;stroke:#263238;stroke-miterlimit:10;" width="2.76" height="5.126"/>
						<rect x="221.865" y="219.023" style="fill:#FFFFFF;stroke:#263238;stroke-miterlimit:10;" width="2.76" height="5.126"/>
						<rect x="230.736" y="219.023" style="fill:#FFFFFF;stroke:#263238;stroke-miterlimit:10;" width="2.76" height="5.126"/>
						<rect x="239.607" y="219.023" style="fill:#FFFFFF;stroke:#263238;stroke-miterlimit:10;" width="2.76" height="5.126"/>
						<rect x="248.478" y="219.023" style="fill:#FFFFFF;stroke:#263238;stroke-miterlimit:10;" width="2.76" height="5.126"/>
						<rect x="257.349" y="219.023" style="fill:#FFFFFF;stroke:#263238;stroke-miterlimit:10;" width="2.76" height="5.126"/>
					</g>
					<g>
						
							<rect x="265.799" y="211.523" transform="matrix(6.123234e-17 -1 1 6.123234e-17 53.0929 481.265)" style="fill:#FFFFFF;stroke:#263238;stroke-miterlimit:10;" width="2.76" height="5.125"/>
						
							<rect x="265.799" y="202.652" transform="matrix(6.123234e-17 -1 1 6.123234e-17 61.9639 472.394)" style="fill:#FFFFFF;stroke:#263238;stroke-miterlimit:10;" width="2.76" height="5.125"/>
						
							<rect x="265.799" y="193.781" transform="matrix(6.123234e-17 -1 1 6.123234e-17 70.8349 463.523)" style="fill:#FFFFFF;stroke:#263238;stroke-miterlimit:10;" width="2.76" height="5.125"/>
						
							<rect x="265.799" y="184.91" transform="matrix(6.123234e-17 -1 1 6.123234e-17 79.7059 454.652)" style="fill:#FFFFFF;stroke:#263238;stroke-miterlimit:10;" width="2.76" height="5.125"/>
						
							<rect x="265.799" y="176.039" transform="matrix(6.123234e-17 -1 1 6.123234e-17 88.5769 445.781)" style="fill:#FFFFFF;stroke:#263238;stroke-miterlimit:10;" width="2.76" height="5.125"/>
						
							<rect x="265.799" y="167.168" transform="matrix(6.123234e-17 -1 1 6.123234e-17 97.4479 436.91)" style="fill:#FFFFFF;stroke:#263238;stroke-miterlimit:10;" width="2.76" height="5.125"/>
						
							<rect x="265.799" y="158.297" transform="matrix(6.123234e-17 -1 1 6.123234e-17 106.3189 428.039)" style="fill:#FFFFFF;stroke:#263238;stroke-miterlimit:10;" width="2.76" height="5.125"/>
						
							<rect x="265.799" y="149.426" transform="matrix(6.123234e-17 -1 1 6.123234e-17 115.1899 419.168)" style="fill:#FFFFFF;stroke:#263238;stroke-miterlimit:10;" width="2.76" height="5.125"/>
					</g>
					<g>
						
							<rect x="186.555" y="211.523" transform="matrix(6.123234e-17 -1 1 6.123234e-17 -26.1511 402.0211)" style="fill:#FFFFFF;stroke:#263238;stroke-miterlimit:10;" width="2.76" height="5.125"/>
						
							<rect x="186.555" y="202.652" transform="matrix(6.123234e-17 -1 1 6.123234e-17 -17.2801 393.1501)" style="fill:#FFFFFF;stroke:#263238;stroke-miterlimit:10;" width="2.76" height="5.125"/>
						
							<rect x="186.555" y="193.781" transform="matrix(6.123234e-17 -1 1 6.123234e-17 -8.4091 384.2791)" style="fill:#FFFFFF;stroke:#263238;stroke-miterlimit:10;" width="2.76" height="5.125"/>
						
							<rect x="186.555" y="184.91" transform="matrix(6.123234e-17 -1 1 6.123234e-17 0.4619 375.4081)" style="fill:#FFFFFF;stroke:#263238;stroke-miterlimit:10;" width="2.76" height="5.125"/>
						
							<rect x="186.555" y="176.039" transform="matrix(6.123234e-17 -1 1 6.123234e-17 9.3329 366.537)" style="fill:#FFFFFF;stroke:#263238;stroke-miterlimit:10;" width="2.76" height="5.125"/>
						
							<rect x="186.555" y="167.168" transform="matrix(6.123234e-17 -1 1 6.123234e-17 18.2039 357.666)" style="fill:#FFFFFF;stroke:#263238;stroke-miterlimit:10;" width="2.76" height="5.125"/>
						
							<rect x="186.555" y="158.297" transform="matrix(6.123234e-17 -1 1 6.123234e-17 27.0749 348.795)" style="fill:#FFFFFF;stroke:#263238;stroke-miterlimit:10;" width="2.76" height="5.125"/>
						
							<rect x="186.555" y="149.426" transform="matrix(6.123234e-17 -1 1 6.123234e-17 35.9459 339.924)" style="fill:#FFFFFF;stroke:#263238;stroke-miterlimit:10;" width="2.76" height="5.125"/>
					</g>
					<rect x="188.965" y="144.322" style="fill:#263238;stroke:#263238;stroke-miterlimit:10;" width="77.432" height="77.432"/>
				</g>
			</g>
		</g>
		<g>
			<circle style="fill:#263238;stroke:#263238;stroke-miterlimit:10;" cx="370.109" cy="78.016" r="17.443"/>
			
				<ellipse transform="matrix(0.7363 -0.6766 0.6766 0.7363 44.7973 270.9918)" style="fill:#FFFFFF;stroke:#263238;stroke-miterlimit:10;" cx="370.109" cy="78.016" rx="11.629" ry="11.629"/>
		</g>
		<g>
			
				<ellipse transform="matrix(0.987 -0.1607 0.1607 0.987 -40.6283 22.6828)" style="fill:#263238;stroke:#263238;stroke-miterlimit:10;" cx="119.892" cy="262.472" rx="10.942" ry="10.942"/>
			
				<ellipse transform="matrix(0.3621 -0.9321 0.9321 0.3621 -168.1817 279.1736)" style="fill:#FFFFFF;stroke:#263238;stroke-miterlimit:10;" cx="119.892" cy="262.472" rx="7.295" ry="7.295"/>
		</g>
		<g>
			
				<ellipse transform="matrix(0.9876 -0.1572 0.1572 0.9876 -39.4492 26.0592)" style="fill:#263238;stroke:#263238;stroke-miterlimit:10;" cx="145.051" cy="262.472" rx="10.942" ry="10.942"/>
			
				<ellipse transform="matrix(0.3984 -0.9172 0.9172 0.3984 -153.4782 290.9567)" style="fill:#FFFFFF;stroke:#263238;stroke-miterlimit:10;" cx="145.051" cy="262.472" rx="7.295" ry="7.295"/>
		</g>
	</g>
</g>
<g id="Character">
	<g>
		<g>
			<polygon style="fill:#263238;stroke:#263238;stroke-miterlimit:10;" points="267.247,435.467 183.057,435.467 175.402,372.645 
				259.591,372.645 			"/>
			<polygon style="fill:#808080;stroke:#263238;stroke-miterlimit:10;" points="262.873,432.475 186.702,432.475 179.775,375.637 
				255.946,375.637 			"/>
		</g>
		<g>
			<path style="fill:#FFFFFF;stroke:#263238;stroke-miterlimit:10;" d="M326.068,474.646l-0.683-68.667l-18.804,13.248
				l-18.376,5.983l-20.513-4.701l1.709-4.274c0,0,6.838-15.385,10.684-19.658c3.846-4.274,17.949-12.393,17.949-12.393l11.966-9.829
				c0,0,4.273-21.368,5.556-25.214c1.282-3.846,25.214-17.949,25.214-17.949s17.522-9.829,26.496-11.539
				c8.975-1.709,14.53-0.855,14.53-0.855s36.325,14.103,38.889,17.522c2.564,3.419,2.992,86.754,2.992,103.42
				c0,16.667,5.128,38.462,5.128,38.462"/>
			<path style="fill:none;stroke:#263238;stroke-miterlimit:10;" d="M351.524,453.564c-0.043,3.332-0.07,5.408-0.07,5.408"/>
			<path style="fill:none;stroke:#263238;stroke-miterlimit:10;" d="M353.595,369.554c-0.669,13.286-1.571,32.188-1.571,37.564
				c0,5.963-0.277,28.845-0.445,42.135"/>
			<path style="fill:none;stroke:#263238;stroke-miterlimit:10;" d="M354.303,355.836c0,0-0.213,4.001-0.51,9.799"/>
			<g>
				<line style="fill:none;stroke:#263238;stroke-miterlimit:10;" x1="320.866" y1="362.696" x2="320.356" y2="358.323"/>
				<line style="fill:none;stroke:#263238;stroke-miterlimit:10;" x1="325.713" y1="404.238" x2="321.252" y2="366.006"/>
				<path style="fill:none;stroke:#263238;stroke-miterlimit:10;" d="M315.675,374.068c-1.397-1.555-2.564-3.031-2.972-4.011"/>
				<path style="fill:none;stroke:#263238;stroke-miterlimit:10;" d="M322.652,381.026c0,0-2.52-2.298-5.044-4.896"/>
				<path style="fill:none;stroke:#263238;stroke-miterlimit:10;" d="M303.01,380.515c0,0,6.632,7.397,18.111,13.009"/>
				<path style="fill:none;stroke:#263238;stroke-miterlimit:10;" d="M309.325,391.069c2.816,1.62,6.397,3.425,10.265,4.751"/>
				<path style="fill:none;stroke:#263238;stroke-miterlimit:10;" d="M303.265,387.148c0,0,1.059,0.803,2.858,1.967"/>
			</g>
		</g>
		<polygon style="fill:#FFFFFF;stroke:#263238;stroke-miterlimit:10;" points="355.095,352.098 343.132,345.399 337.183,353.511 
			340.699,332.959 350.704,341.883 		"/>
		<g>
			<g>
				<path style="fill:#FFFFFF;stroke:#263238;stroke-miterlimit:10;" d="M375.956,314.81l-21.427,22.839l-0.632,14.89l-5.583-5.19
					l-13.898-12.913c0,0-7.516,5.301-10.176,5.589c-2.668,0.289-11.807-13.131-11.807-13.131s-5.272,1.645-6.75,0.464
					c-1.479-1.19-1.933-14.758-1.933-14.758s-1.814-4.291-4.224-5.827c-2.41-1.536-4.937-16.539-4.937-16.539
					s-1.066-5.722,2.687-8.372c3.761-2.66,14.629-10.12,23.556-10.64s25.585,3.97,30.155,8.866
					c4.579,4.895,7.395,18.517,7.395,18.517L375.956,314.81z"/>
				<path style="fill:#263238;" d="M314.113,310.772c0.671,0.954,0.747,2.057,0.169,2.464c-0.578,0.407-1.591-0.037-2.262-0.991
					c-0.671-0.954-0.747-2.057-0.169-2.464C312.429,309.374,313.442,309.818,314.113,310.772z"/>
				<path style="fill:none;stroke:#263238;stroke-width:2;stroke-linecap:round;stroke-miterlimit:10;" d="M314.47,303.013
					c-7.23,1.055-7.237,3.503-7.237,3.503l-0.421,1.134"/>
				<line style="fill:none;stroke:#263238;stroke-miterlimit:10;" x1="317.919" y1="329.839" x2="323.063" y2="327.106"/>
				<polyline style="fill:none;stroke:#263238;stroke-miterlimit:10;" points="312.432,326.897 317.097,324.76 316.21,321.592 				
					"/>
				<path style="fill:#263238;stroke:#263238;stroke-miterlimit:10;" d="M349.691,319.328l-1.377,28.021l-13.898-12.913
					c0,0,12.58-12.366,13.183-14.34c0.604-1.965-1.612-9.884-1.612-9.884L349.691,319.328z"/>
				<path style="fill:#FFFFFF;stroke:#263238;stroke-miterlimit:10;" d="M348.119,294.746c0,0-0.522,5.225-0.914,6.627
					c-0.392,1.402-4.127,2.079-4.127,2.079"/>
			</g>
			<path style="fill:#263238;stroke:#263238;stroke-miterlimit:10;" d="M304.777,263.977c0,0-3.481-7.259-10.8-0.178
				c-7.319,7.081-9.333,21.673-7.22,24.589c2.112,2.916,8.376,2.687,10.152,2.495c1.776-0.192,18.911-7.887,18.911-7.887
				s0.806,11.592,4.058,12.587c3.252,0.995,9.072,0.815,9.072,0.815s1.021,5.28,3.685,4.991s4.74-1.861,4.499-4.081
				c-0.24-2.22-5.461-4.799-0.961-8.88c4.499-4.081,9.035-3.673,10.896,1.066c1.861,4.74-0.215,6.312,1.705,7.452
				c1.92,1.14,11.628,3.682,11.628,3.682s-0.579-21.948-2.776-29.795c-2.197-7.848-15.29-16.761-24.063-18.956
				c-8.772-2.195-21.515,4.575-23.543,6.592C307.993,260.484,304.777,263.977,304.777,263.977z"/>
		</g>
		<polygon style="fill:#FFFFFF;stroke:#263238;stroke-miterlimit:10;" points="353.408,338.909 362.4,357.345 388.492,319.938 
			376.526,310.821 		"/>
		<g>
			<g>
				<path style="fill:none;stroke:#263238;stroke-miterlimit:10;" d="M324.754,390.089c0,0,4.736-4.51,8.795-2.48
					c4.059,2.03,5.412,7.893,5.412,10.824c0,2.932,0,74.192,0,74.192"/>
				<g>
					<path style="fill:#92E3A9;stroke:#263238;stroke-miterlimit:10;" d="M314.516,402.262c0,0-4.658-0.887-6.876-1.553
						c-2.218-0.665-3.993-1.331-4.215,1.331c-0.222,2.662,5.102,5.323,5.989,5.323c0.887,0,9.982-1.996,10.647-2.218
						C320.727,404.924,314.516,402.262,314.516,402.262z"/>
					
						<rect x="293.96" y="414.469" transform="matrix(0.7644 0.6448 -0.6448 0.7644 343.801 -89.509)" style="fill:#FFFFFF;stroke:#263238;stroke-miterlimit:10;" width="0.818" height="22.349"/>
					<g>
						
							<rect x="311.232" y="385.475" transform="matrix(0.7644 0.6447 -0.6447 0.7644 334.0512 -106.4795)" style="fill:#92E3A9;stroke:#263238;stroke-miterlimit:10;" width="2.998" height="36.793"/>
					</g>
					<g>
						<path style="fill:#92E3A9;stroke:#263238;stroke-miterlimit:10;" d="M353.306,422.504l-21.368-19.658h-19.231
							c0,0-11.539,8.547-12.821,11.539c-1.282,2.992,1.709,2.137,2.991,1.709c1.282-0.427,5.983-5.128,5.983-5.128
							s-0.855,13.248,2.137,16.24c2.991,2.991,14.957,3.419,17.949,3.419c2.992,0,9.829,3.419,12.393,3.846
							c2.564,0.427,9.402,0.855,9.402,0.855L353.306,422.504z"/>
						<polyline style="fill:none;stroke:#263238;stroke-miterlimit:10;" points="308.861,410.965 311.425,408.828 326.051,408.694 
													"/>
						<line style="fill:none;stroke:#263238;stroke-miterlimit:10;" x1="309.193" y1="416.236" x2="324.941" y2="416.014"/>
						<line style="fill:none;stroke:#263238;stroke-miterlimit:10;" x1="309.414" y1="422.891" x2="324.054" y2="423.112"/>
					</g>
				</g>
			</g>
			<polygon style="fill:#FFFFFF;stroke:#263238;stroke-miterlimit:10;" points="346.683,415.416 343.578,436.758 365.094,443.871 
				368.643,423.266 			"/>
			<path style="fill:#FFFFFF;stroke:#263238;stroke-miterlimit:10;" d="M397.894,348.713c-5.983,5.698-14.53,29.63-13.96,32.479
				c0.57,2.849,15.67,33.334,15.67,33.334s-1.424,2.849-1.709,3.704c-0.285,0.855,2.279,2.279,2.279,2.279
				s-27.066-1.14-28.491-0.285c-1.424,0.855-3.04,2.29-3.04,2.29s-5.222,14.52-4.368,19.933c0.855,5.413,7.977,9.402,11.111,9.972
				c3.134,0.57,27.351,4.843,41.311,4.843s23.362,1.709,27.921-0.855c4.558-2.564,8.262-15.955,5.128-22.792
				c-3.134-6.838-15.955-62.109-17.664-69.802c-1.71-7.692-10.826-24.929-11.111-26.211s-4.559-4.274-12.251-0.57"/>
			<path style="fill:none;stroke:#263238;stroke-miterlimit:10;" d="M400.173,420.509c0,0,17.094-0.855,21.938,0.57"/>
			<path style="fill:none;stroke:#263238;stroke-miterlimit:10;" d="M404.731,418.23c0,0,16.24-8.832,21.938-9.972
				c5.698-1.14,4.273,0.57,2.279,1.994s-5.983,2.849-5.983,2.849"/>
			<path style="fill:none;stroke:#263238;stroke-miterlimit:10;" d="M406.755,389.926c0.555-2.41,1.122-4.71,1.68-6.74"/>
			<path style="fill:none;stroke:#263238;stroke-miterlimit:10;" d="M401.882,414.526c0,0,1.758-10.253,3.908-20.257"/>
		</g>
		<polyline style="fill:#FFFFFF;stroke:#263238;stroke-miterlimit:10;" points="327.522,474.784 327.522,435.894 137.776,435.894 
			137.776,474.784 		"/>
		<rect x="137.776" y="438.743" style="fill:#263238;stroke:#263238;stroke-miterlimit:10;" width="189.747" height="9.972"/>
		<rect x="132.078" y="435.894" style="fill:#FFFFFF;stroke:#263238;stroke-miterlimit:10;" width="201.143" height="9.972"/>
		<g>
			<path style="fill:#92E3A9;stroke:#263238;stroke-miterlimit:10;" d="M288.775,423.194c0,0-1.994-4.274-6.838-7.123
				c-4.843-2.849-9.687-2.849-9.687-2.849s-1.994,15.1-2.564,16.24c-0.57,1.14-1.424,1.14,2.279,2.279c3.704,1.14,9.402,0,9.402,0
				L288.775,423.194z"/>
			<path style="fill:#92E3A9;stroke:#263238;stroke-miterlimit:10;" d="M258.575,422.054c0,0-3.989,2.564-3.989,3.419
				s-0.57,8.262,0.855,8.547c1.425,0.285,2.564-1.994,2.564-1.994l0.855-2.564h1.424L258.575,422.054z"/>
			<path style="fill:#92E3A9;stroke:#263238;stroke-miterlimit:10;" d="M263.419,418.065c0,0-7.408,0.57-6.553,3.419
				c0.855,2.849,2.564,9.972,3.704,10.826c1.14,0.855,5.413-0.57,5.413-0.57l-1.14-13.96L263.419,418.065z"/>
			<path style="fill:#92E3A9;stroke:#263238;stroke-miterlimit:10;" d="M267.407,413.222c0,0-3.989,0.285-5.983,2.279
				c-1.994,1.994,1.14,4.559,1.424,5.698c0.285,1.14,1.14,9.687,2.279,10.542c1.14,0.855,3.419,0.855,3.989-1.14
				S267.407,413.222,267.407,413.222z"/>
			<path style="fill:#92E3A9;stroke:#263238;stroke-miterlimit:10;" d="M274.815,413.222c0,0,1.994,16.525,0.285,17.664
				c-1.709,1.14-7.123,2.564-7.123,0.855c0-1.709-1.14-20.228-1.14-21.083c0-0.855,1.994-1.994,4.274-1.994
				C273.39,408.663,274.815,413.222,274.815,413.222z"/>
			<path style="fill:#92E3A9;stroke:#263238;stroke-miterlimit:10;" d="M283.647,420.629c0,0-6.268,8.832-5.413,10.542
				s1.14,1.994,2.279,1.994c1.14,0,10.048-8.251,9.867-9.396c-0.181-1.145-5.309-4.849-5.309-4.849L283.647,420.629z"/>
		</g>
		<rect x="246.324" y="433.045" style="fill:#FFFFFF;stroke:#263238;stroke-miterlimit:10;" width="57.266" height="2.564"/>
		<g>
			<rect x="167.406" y="397.717" style="fill:#263238;stroke:#263238;stroke-miterlimit:10;" width="73.221" height="38.177"/>
			<rect x="183.36" y="397.717" style="fill:#FFFFFF;stroke:#263238;stroke-miterlimit:10;" width="57.266" height="38.177"/>
			<path style="fill:#FFFFFF;stroke:#263238;stroke-miterlimit:10;" d="M209.53,428.202h-18.15c-1.282,0-2.321-1.039-2.321-2.321
				v-21.854c0-1.282,1.039-2.321,2.321-2.321h18.15c1.282,0,2.321,1.039,2.321,2.321v21.854
				C211.851,427.162,210.812,428.202,209.53,428.202z"/>
			<path style="fill:#92E3A9;stroke:#263238;stroke-miterlimit:10;" d="M208.411,426.901h-15.912c-1.282,0-2.321-1.039-2.321-2.321
				v-19.252c0-1.282,1.039-2.321,2.321-2.321h15.912c1.282,0,2.321,1.039,2.321,2.321v19.252
				C210.732,425.862,209.693,426.901,208.411,426.901z"/>
			<g>
				<path style="fill:none;stroke:#263238;stroke-miterlimit:10;" d="M190.068,408.43h2.143l0.918-1.939l1.02,2.551l1.326-1.224
					l0.51,1.837l1.837-3.367l0.816,2.551l1.326-1.531l0.306,1.326l1.02-1.02l0.306,1.53l1.837-2.449l0.51,2.041h1.531l0.714-2.449
					c0,0,0.408,1.939,0.408,2.245c0,0.306,2.041-1.428,2.041-1.428l0.51,3.061l0.714-1.939l0.408-0.102"/>
				<path style="fill:none;stroke:#263238;stroke-miterlimit:10;" d="M210.066,415.267h-2.099l-0.9-1.939l-1,2.551l-1.3-1.224
					l-0.5,1.837l-1.8-3.367l-0.8,2.551l-1.3-1.531l-0.3,1.326l-1-1.02l-0.3,1.531l-1.799-2.449l-0.5,2.041h-1.5l-0.7-2.449
					c0,0-0.4,1.939-0.4,2.245c0,0.306-1.999-1.428-1.999-1.428l-0.5,3.061l-0.7-1.939l-0.4-0.102"/>
				<path style="fill:none;stroke:#263238;stroke-miterlimit:10;" d="M210.066,421.286h-2.099l-0.9-1.939l-1,2.551l-1.3-1.224
					l-0.5,1.837l-1.8-3.367l-0.8,2.551l-1.3-1.531l-0.3,1.327l-1-1.02l-0.3,1.53l-1.799-2.449l-0.5,2.041h-1.5l-0.7-2.449
					c0,0-0.4,1.939-0.4,2.245c0,0.306-1.999-1.428-1.999-1.428l-0.5,3.061l-0.7-1.939l-0.4-0.102"/>
			</g>
			<g>
				<path style="fill:#FFFFFF;stroke:#263238;stroke-miterlimit:10;" d="M218.577,404.189c0,0.653-0.529,1.182-1.182,1.182
					c-0.653,0-1.182-0.529-1.182-1.182c0-0.653,0.529-1.182,1.182-1.182C218.048,403.006,218.577,403.536,218.577,404.189z"/>
				<path style="fill:#FFFFFF;stroke:#263238;stroke-miterlimit:10;" d="M226.216,404.189c0,0.653-0.529,1.182-1.182,1.182
					c-0.653,0-1.182-0.529-1.182-1.182c0-0.653,0.529-1.182,1.182-1.182C225.687,403.006,226.216,403.536,226.216,404.189z"/>
				<path style="fill:#FFFFFF;stroke:#263238;stroke-miterlimit:10;" d="M233.856,404.189c0,0.653-0.529,1.182-1.182,1.182
					c-0.653,0-1.182-0.529-1.182-1.182c0-0.653,0.529-1.182,1.182-1.182C233.326,403.006,233.856,403.536,233.856,404.189z"/>
				<path style="fill:#FFFFFF;stroke:#263238;stroke-miterlimit:10;" d="M218.577,410.646c0,0.653-0.529,1.182-1.182,1.182
					c-0.653,0-1.182-0.529-1.182-1.182c0-0.653,0.529-1.182,1.182-1.182C218.048,409.463,218.577,409.992,218.577,410.646z"/>
				<path style="fill:#FFFFFF;stroke:#263238;stroke-miterlimit:10;" d="M226.216,410.646c0,0.653-0.529,1.182-1.182,1.182
					c-0.653,0-1.182-0.529-1.182-1.182c0-0.653,0.529-1.182,1.182-1.182C225.687,409.463,226.216,409.992,226.216,410.646z"/>
				<path style="fill:#FFFFFF;stroke:#263238;stroke-miterlimit:10;" d="M233.856,410.646c0,0.653-0.529,1.182-1.182,1.182
					c-0.653,0-1.182-0.529-1.182-1.182c0-0.653,0.529-1.182,1.182-1.182C233.326,409.463,233.856,409.992,233.856,410.646z"/>
				<path style="fill:#FFFFFF;stroke:#263238;stroke-miterlimit:10;" d="M218.577,417.102c0,0.653-0.529,1.182-1.182,1.182
					c-0.653,0-1.182-0.529-1.182-1.182c0-0.653,0.529-1.182,1.182-1.182C218.048,415.92,218.577,416.449,218.577,417.102z"/>
				<path style="fill:#FFFFFF;stroke:#263238;stroke-miterlimit:10;" d="M226.216,417.102c0,0.653-0.529,1.182-1.182,1.182
					c-0.653,0-1.182-0.529-1.182-1.182c0-0.653,0.529-1.182,1.182-1.182C225.687,415.92,226.216,416.449,226.216,417.102z"/>
				<path style="fill:#FFFFFF;stroke:#263238;stroke-miterlimit:10;" d="M233.856,417.102c0,0.653-0.529,1.182-1.182,1.182
					c-0.653,0-1.182-0.529-1.182-1.182c0-0.653,0.529-1.182,1.182-1.182C233.326,415.92,233.856,416.449,233.856,417.102z"/>
				<path style="fill:#FFFFFF;stroke:#263238;stroke-miterlimit:10;" d="M218.577,423.559c0,0.653-0.529,1.182-1.182,1.182
					c-0.653,0-1.182-0.529-1.182-1.182s0.529-1.182,1.182-1.182C218.048,422.377,218.577,422.906,218.577,423.559z"/>
				<path style="fill:#FFFFFF;stroke:#263238;stroke-miterlimit:10;" d="M226.216,423.559c0,0.653-0.529,1.182-1.182,1.182
					c-0.653,0-1.182-0.529-1.182-1.182s0.529-1.182,1.182-1.182C225.687,422.377,226.216,422.906,226.216,423.559z"/>
				<path style="fill:#FFFFFF;stroke:#263238;stroke-miterlimit:10;" d="M233.856,423.559c0,0.653-0.529,1.182-1.182,1.182
					c-0.653,0-1.182-0.529-1.182-1.182s0.529-1.182,1.182-1.182C233.326,422.377,233.856,422.906,233.856,423.559z"/>
			</g>
		</g>
	</g>
</g>
</svg>
