<?xml version="1.0" encoding="utf-8"?>
<!-- Generator: Adobe Illustrator 27.5.0, SVG Export Plug-In . SVG Version: 6.00 Build 0)  -->
<svg version="1.1" xmlns="http://www.w3.org/2000/svg" xmlns:xlink="http://www.w3.org/1999/xlink" x="0px" y="0px"
	 viewBox="0 0 500 500" style="enable-background:new 0 0 500 500;" xml:space="preserve">
<g id="BACKGROUND">
	<rect style="fill:#FFFFFF;" width="500" height="500"/>
</g>
<g id="OBJECTS">
	<g>
		<path style="opacity:0.39;fill:#A1E5F1;" d="M67.702,307.237c-27.371,24.853-31.729,57.904-18.833,89.038
			c7.605,18.368,23.002,37.864,40.451,48.604c12.703,7.822,35.527,16.734,51.428,15.789c55.141-3.274,38.153-76.783,81.734-94.432
			c17.481-7.079,44.01,8.724,56.436,17.777c34.277,24.978,67.728,45.836,115.035,37.154c26.348-4.835,52.241-22.234,65.65-45.724
			c3.849-6.746,6.672-13.993,8.179-21.59c8.889-44.8-65.821-73.12-28.778-118.515c10.503-12.871,22.96-23.951,21.47-41.2
			c-1.263-14.64-12.642-26.674-27.787-28.968c-27.263-4.128-59.171,23.578-83.979,1.635c-26.323-23.285-18.119-76.555-58.029-87.104
			c-21.47-5.677-38.286,12.159-53.778,24.677c-17.38,14.038-33.837,22.002-55.942,16.726c-28.061-6.695-82.74-44.792-98.392,3.68
			c-14.221,44.03,33.329,74.908,33.37,115.318C115.966,268.814,87.515,289.249,67.702,307.237z"/>
		<g>
			<path style="opacity:0.39;fill:#A1E5F1;" d="M314.517,69.387c2.311,0.391,4.638,1.023,6.987,1.932
				c24.576,9.514,29.053,32.872,33.382,55.462c3.016,15.736,6.135,32.007,16.071,43.175c13.458,15.123,31.964,12.064,51.556,8.825
				c12.462-2.06,25.346-4.192,36.746-1.151c16.363,4.365,27.216,18.811,26.394,35.131c-0.805,15.999-11.623,25.743-23.075,36.061
				c-1.988,1.79-4.043,3.641-6.024,5.513c-25.122,23.742-12.855,45.908,0.132,69.375c10.141,18.324,20.627,37.271,13.528,57.799
				c-2.663,7.702-6.691,15.121-11.976,22.052c-17.359,22.759-47.672,38.781-77.227,40.819
				c-51.952,3.583-85.299-23.004-117.659-52.956c-16.177-14.974-39.262-29.377-55.544-24.904
				c-21.422,5.89-31.938,25.362-42.108,44.192c-12.487,23.121-25.399,47.028-58.601,45.304
				c-16.663-0.864-39.804-12.484-53.122-22.978c-16.304-12.84-30.553-35.022-36.3-56.514c-9.909-37.026,2.245-70.777,33.347-92.599
				l0,0c3.155-2.213,6.416-4.412,9.868-6.739c21.953-14.799,46.834-31.574,50.327-57.097c2.466-18.024-4.78-35.72-11.788-52.833
				c-9.401-22.959-19.122-46.698-6.733-72.442c5.64-11.723,13.463-19.02,23.252-21.688c18.843-5.14,41.331,7.053,61.17,17.808
				c8.159,4.423,15.866,8.601,22.228,10.888c23.782,8.55,42.975-0.149,60.17-10.823c2.403-1.493,4.799-3.051,7.336-4.701
				C281.246,76.939,297.334,66.479,314.517,69.387z M390.106,183.538c-7.901-1.338-15.257-4.758-21.573-11.855
				c-10.468-11.764-13.659-28.415-16.745-44.517c-4.373-22.817-8.504-44.368-31.435-53.246c-18.171-7.034-35.166,4.013-51.599,14.7
				c-2.551,1.658-4.96,3.225-7.389,4.734c-17.897,11.111-37.928,20.146-63.088,11.098c-6.608-2.375-14.426-6.613-22.703-11.1
				c-19.266-10.444-41.101-22.282-58.616-17.508c-9.031,2.461-16.021,9.062-21.369,20.178c-11.895,24.717-2.398,47.91,6.787,70.338
				c7.14,17.437,14.523,35.468,11.962,54.177c-3.65,26.682-29.074,43.822-51.506,58.945c-3.441,2.319-6.691,4.51-9.822,6.708
				l-0.993-1.131l0.993,1.131c-30.124,21.136-41.889,53.854-32.278,89.766c5.599,20.937,19.44,42.516,35.264,54.977
				c12.91,10.17,35.238,21.423,51.17,22.253c31.173,1.618,43.085-20.438,55.697-43.789c10.45-19.35,21.256-39.358,43.93-45.592
				c22.199-6.102,50.597,18.111,58.771,25.678c33.012,30.555,64.455,55.563,115.095,52.069
				c28.676-1.977,58.102-17.543,74.968-39.654c5.113-6.707,9.01-13.88,11.582-21.321c6.724-19.445-3.469-37.863-13.326-55.675
				c-12.903-23.314-26.244-47.422,0.359-72.564c2.005-1.895,4.073-3.758,6.073-5.56c11.028-9.934,21.444-19.318,22.196-34.249
				c0.754-14.972-9.133-28.206-24.044-32.183c-10.669-2.847-23.181-0.777-35.281,1.223
				C411.989,183.423,400.571,185.31,390.106,183.538z"/>
		</g>
	</g>
	<g>
		<g>
			<path style="fill:#9CDBF2;" d="M202.24,251.211c2.005-3.787,6.544-6.83,10.331-8.841c-3.692-9.64-8.698-18.888-15.022-27.449
				c-7.396-10.011-15.78-23.11-23.516-39.249c-2.47,2.256-4.552,4.607-4.552,4.607c0.594-3.56,1.667-6.278,2.814-8.332
				c-4.042-8.794-7.871-18.422-11.236-28.915c0,0-17.498,20.843-24.002,55.192c3.891,2.177,9.577,5.993,11.655,10.619
				c0,0-6.487-2.44-12.947-2.464c-3.634,28.472,0.813,64.871,26.989,105.686c3.402-0.439,9.037-0.396,15.277,2.84
				c0,0-6.637,0.658-12.055,2.043c8.024,11.827,17.88,24.007,29.907,36.457c0,0,3.364-3.997,7.761-11.162
				c17.359-28.283,20.884-62.058,11.425-92.668C208.701,249.246,202.24,251.211,202.24,251.211z"/>
			<g>
				<g>
					<path style="fill:#4D88A5;" d="M193.355,321.787c-0.733-5.034-1.651-10.043-2.779-15.008
						c-1.138-4.967-2.493-9.874-3.952-14.742c-2.918-9.736-6.247-19.314-9.074-29.013c-5.698-19.379-9.371-39.351-11.693-59.436
						c-1.068-10.07-2.269-20.148-3.227-30.225c-1.012-10.076-1.649-20.191-1.571-30.332c-0.54,10.13-0.101,20.295,0.577,30.415
						c0.755,10.124,1.783,20.198,2.662,30.307c0.949,10.115,2.451,20.175,4.312,30.165c1.897,9.986,4.129,19.904,6.978,29.684
						c2.898,9.751,6.293,19.309,9.252,28.976c1.48,4.833,2.855,9.692,4.01,14.6c1.125,4.918,2.113,9.87,2.947,14.85
						c1.621,9.967,2.58,20.05,2.932,30.159c0.337,0.353,0.661,0.704,1.002,1.058c-0.003-0.36,0.006-0.719,0.002-1.079
						C195.585,342.012,194.799,331.858,193.355,321.787z"/>
					<path style="fill:#4D88A5;" d="M163.783,193.723c-0.621-1.514-1.773-2.625-3.001-3.579c-1.251-0.939-2.623-1.726-4.045-2.418
						c-1.417-0.706-2.893-1.303-4.38-1.88c-1.495-0.559-3.002-1.103-4.551-1.585c1.622,0.09,3.234,0.385,4.8,0.826
						c1.571,0.433,3.105,1.005,4.581,1.72c1.463,0.736,2.885,1.6,4.107,2.728C162.509,190.638,163.554,192.092,163.783,193.723z"/>
					<path style="fill:#4D88A5;" d="M165.56,211.862c0.943-3.394,3.084-6.442,5.792-8.744c2.719-2.288,6.082-3.893,9.586-4.255
						c-3.306,1.156-6.324,2.826-8.926,5.036C169.398,206.095,167.248,208.793,165.56,211.862z"/>
					<path style="fill:#4D88A5;" d="M169.996,231.485c-3.273-2.437-6.818-4.366-10.615-5.637c-3.79-1.292-7.778-1.91-11.858-1.962
						c4.025-0.762,8.274-0.32,12.186,0.992C163.613,226.211,167.258,228.438,169.996,231.485z"/>
					<path style="fill:#4D88A5;" d="M172.872,254.522c0.34-3.116,1.449-6.123,2.879-8.921c1.432-2.808,3.27-5.402,5.37-7.756
						c2.12-2.334,4.518-4.438,7.212-6.092c0.69-0.385,1.355-0.81,2.063-1.158c0.719-0.327,1.42-0.686,2.148-0.984
						c0.749-0.25,1.489-0.514,2.236-0.748c0.765-0.181,1.531-0.349,2.293-0.507c-0.738,0.266-1.472,0.522-2.207,0.764
						c-0.714,0.304-1.416,0.636-2.12,0.95c-0.692,0.341-1.361,0.731-2.04,1.092c-0.67,0.38-1.295,0.837-1.943,1.25
						c-2.523,1.764-4.83,3.824-6.882,6.117c-2.067,2.279-3.88,4.789-5.443,7.447l-0.585,0.999l-0.521,1.033
						c-0.367,0.682-0.67,1.391-0.967,2.106C173.716,251.525,173.284,253.013,172.872,254.522z"/>
					<path style="fill:#4D88A5;" d="M178.621,269.505c-2.632-1.27-5.311-2.399-8.059-3.311c-2.751-0.9-5.549-1.642-8.393-2.147
						c-2.84-0.529-5.719-0.822-8.611-0.949l-2.172-0.05l-2.176,0.042l-2.18,0.094c-0.724,0.068-1.451,0.123-2.182,0.169
						c0.713-0.156,1.43-0.303,2.15-0.439l2.174-0.324l2.193-0.188l2.202-0.091c2.941-0.058,5.887,0.213,8.785,0.73
						c2.894,0.54,5.747,1.325,8.477,2.416C173.562,266.538,176.196,267.868,178.621,269.505z"/>
					<path style="fill:#4D88A5;" d="M182.949,283.149c0.318-0.726,0.645-1.453,0.985-2.176l1.19-2.081l1.395-1.956l1.547-1.843
						c2.157-2.385,4.701-4.393,7.394-6.124c2.709-1.714,5.577-3.157,8.54-4.337c1.486-0.581,2.981-1.128,4.491-1.63
						c1.524-0.46,3.046-0.92,4.592-1.288c-0.737,0.298-1.477,0.585-2.219,0.864l-2.202,0.895c-1.466,0.594-2.918,1.219-4.351,1.882
						c-2.857,1.337-5.662,2.779-8.303,4.477c-2.653,1.677-5.141,3.607-7.378,5.804C186.402,277.839,184.482,280.365,182.949,283.149
						z"/>
					<path style="fill:#89C1D4;" d="M187.354,298.96c-2.951-1.08-5.91-1.906-8.953-2.309c-3.04-0.428-6.11-0.429-9.242-0.169
						c2.972-1.058,6.236-1.265,9.381-0.844C181.682,296.082,184.766,297.157,187.354,298.96z"/>
					<path style="fill:#89C1D4;" d="M190.34,312.723c2.379-3.151,5.391-5.814,8.69-8.002c3.315-2.165,6.953-3.876,10.789-4.81
						c-3.557,1.696-6.987,3.518-10.227,5.665C196.336,307.699,193.304,310.127,190.34,312.723z"/>
					<path style="fill:#89C1D4;" d="M194.369,329.987c-2.748-1.448-5.476-2.786-8.326-3.86c-2.841-1.099-5.766-1.921-8.778-2.677
						c3.114-0.049,6.224,0.62,9.143,1.722C189.318,326.3,192.08,327.876,194.369,329.987z"/>
				</g>
			</g>
		</g>
		<g>
			<g>
				<path style="fill:#1E4357;" d="M351.103,298.149c0.183,0.123,0.421,0.159,0.644,0.078c18.119-6.644,34.371-30.274,41.803-49.417
					c5.818-14.985,6.358-26.235,7.04-40.479c0.157-3.281,0.321-6.674,0.557-10.327c0.026-0.394-0.272-0.735-0.667-0.76
					c-0.395-0.026-0.734,0.273-0.76,0.667c-0.238,3.665-0.401,7.065-0.558,10.352c-0.677,14.113-1.211,25.261-6.945,40.03
					c-7.32,18.852-23.261,42.1-40.963,48.591c-0.371,0.136-0.561,0.547-0.425,0.918
					C350.884,297.949,350.982,298.068,351.103,298.149z"/>
			</g>
			<g>
				<path style="fill:#1E4357;" d="M400.745,202.696c1.052-2.918,2.125-5.831,3.009-8.794c0.367-1.231,0.378-2.734-0.288-3.959
					c-1.293-2.379-4.853-1.944-6.149-0.075c-1.487,2.145-0.309,4.403,0.322,6.717c0.542,1.987,0.948,4.032,1.635,5.997
					C399.481,203.174,400.493,203.253,400.745,202.696z"/>
			</g>
			<g>
				<path style="fill:#1E4357;" d="M403.324,206.345c1.099-0.942,2.379-1.564,3.847-1.418c1.36,0.136,2.076,1.289,2.054,2.581
					c-0.038,2.197-1.859,3.517-3.756,4.194c-1.318,0.47-2.736,1.033-4.161,0.949c-0.534-0.031-1.435-0.188-1.672-0.744
					c-0.264-0.618,0.217-1.122,0.529-1.613C400.971,209.029,402.02,207.462,403.324,206.345z"/>
			</g>
			<g>
				<path style="fill:#1E4357;" d="M402.824,220.198c1.158-1.132,2.474-1.919,3.924-1.858c1.343,0.057,1.974,1.299,1.861,2.748
					c-0.192,2.465-2.094,4.071-4.027,4.962c-1.343,0.619-2.792,1.348-4.203,1.354c-0.528,0.002-1.413-0.111-1.611-0.717
					c-0.22-0.674,0.294-1.273,0.639-1.844C400.298,223.37,401.45,221.541,402.824,220.198z"/>
			</g>
			<g>
				<path style="fill:#1E4357;" d="M399.97,240.247c1.656-0.946,3.39-1.452,5.024-0.951c1.513,0.464,1.864,2.067,1.304,3.686
					c-0.951,2.752-3.596,4.017-6.064,4.458c-1.714,0.306-3.583,0.706-5.192,0.294c-0.603-0.154-1.578-0.546-1.622-1.296
					c-0.05-0.834,0.714-1.363,1.276-1.911C396.149,243.111,398.005,241.37,399.97,240.247z"/>
			</g>
			<g>
				<path style="fill:#1E4357;" d="M394.591,255.601c1.807-0.611,3.606-0.774,5.113,0.031c1.396,0.746,1.432,2.386,0.573,3.867
					c-1.461,2.518-4.3,3.252-6.807,3.212c-1.741-0.028-3.651,0.006-5.152-0.708c-0.562-0.267-1.444-0.838-1.344-1.583
					c0.111-0.828,0.962-1.201,1.619-1.631C390.291,257.678,392.447,256.325,394.591,255.601z"/>
			</g>
			<g>
				<path style="fill:#1E4357;" d="M386.301,271.641c1.888-0.275,3.686-0.112,5.024,0.951c1.239,0.985,0.979,2.605-0.133,3.907
					c-1.891,2.214-4.815,2.425-7.274,1.934c-1.708-0.341-3.593-0.651-4.94-1.623c-0.505-0.364-1.269-1.085-1.037-1.799
					c0.258-0.794,1.163-1.008,1.886-1.313C381.697,272.911,384.062,271.968,386.301,271.641z"/>
			</g>
			<g>
				<path style="fill:#1E4357;" d="M377.472,283.813c1.907,0.046,3.653,0.508,4.793,1.781c1.056,1.179,0.527,2.733-0.787,3.829
					c-2.236,1.865-5.155,1.581-7.495,0.684c-1.626-0.623-3.432-1.246-4.597-2.431c-0.436-0.444-1.069-1.283-0.72-1.947
					c0.388-0.74,1.315-0.798,2.08-0.977C372.721,284.291,375.21,283.759,377.472,283.813z"/>
			</g>
			<g>
				<path style="fill:#1E4357;" d="M392.934,211.043c-1.32-0.594-2.428-1.488-2.92-2.879c-0.456-1.289,0.283-2.427,1.462-2.957
					c2.005-0.9,3.974,0.187,5.393,1.616c0.986,0.992,2.098,2.037,2.628,3.362c0.199,0.497,0.44,1.379,0.038,1.83
					c-0.447,0.502-1.108,0.281-1.685,0.207C396.363,212.031,394.499,211.748,392.934,211.043z"/>
			</g>
			<g>
				<path style="fill:#1E4357;" d="M391.388,224.499c-1.243-0.815-2.211-1.857-2.453-3.221c-0.224-1.264,0.752-2.141,2.063-2.375
					c2.23-0.396,4.046,1.001,5.233,2.593c0.824,1.106,1.768,2.286,2.062,3.598c0.11,0.492,0.19,1.342-0.308,1.667
					c-0.555,0.362-1.191,0.023-1.769-0.165C394.724,226.111,392.863,225.465,391.388,224.499z"/>
			</g>
			<g>
				<path style="fill:#1E4357;" d="M385.95,241.373c-1.24-1.485-2.053-3.149-1.838-4.939c0.199-1.659,1.746-2.384,3.467-2.178
					c2.928,0.349,4.662,2.776,5.539,5.208c0.609,1.69,1.339,3.516,1.208,5.262c-0.049,0.654-0.27,1.743-1.014,1.96
					c-0.828,0.241-1.493-0.422-2.142-0.875C389.495,244.643,387.422,243.134,385.95,241.373z"/>
			</g>
			<g>
				<path style="fill:#1E4357;" d="M380.249,254.101c-0.979-1.669-1.506-3.444-0.999-5.175c0.47-1.604,2.114-2.064,3.779-1.578
					c2.83,0.827,4.141,3.506,4.606,6.049c0.322,1.767,0.742,3.689,0.326,5.389c-0.156,0.637-0.554,1.675-1.323,1.766
					c-0.856,0.102-1.403-0.662-1.969-1.215C383.207,257.91,381.41,256.08,380.249,254.101z"/>
			</g>
			<g>
				<path style="fill:#1E4357;" d="M370.845,269.547c-1.104-1.589-1.765-3.319-1.392-5.083c0.346-1.635,1.95-2.219,3.647-1.862
					c2.885,0.608,4.398,3.179,5.055,5.679c0.457,1.737,1.022,3.621,0.737,5.348c-0.107,0.647-0.424,1.713-1.184,1.862
					c-0.846,0.167-1.449-0.553-2.056-1.061C374.086,273.118,372.154,271.432,370.845,269.547z"/>
			</g>
			<g>
				<path style="fill:#1E4357;" d="M363.04,278.768c-0.749-1.784-1.036-3.613-0.305-5.262c0.678-1.527,2.369-1.765,3.955-1.063
					c2.696,1.194,3.64,4.024,3.763,6.606c0.086,1.794,0.247,3.754-0.391,5.384c-0.239,0.611-0.771,1.587-1.546,1.576
					c-0.862-0.013-1.303-0.842-1.79-1.465C365.468,282.936,363.929,280.884,363.04,278.768z"/>
			</g>
		</g>
		<g>
			<path style="fill:#CBA327;" d="M359.496,277.821c3.798-1.983,9.263-1.916,13.523-1.426c2.424-10.034,3.544-20.49,3.188-31.128
				c-0.416-12.44,0.104-27.984,2.881-45.664c-3.314,0.458-6.361,1.214-6.361,1.214c2.508-2.596,4.933-4.227,7.042-5.268
				c1.656-9.535,3.96-19.637,7.138-30.189c0,0-26.231,7.248-51.063,31.857c1.971,4,4.491,10.367,3.58,15.355
				c0,0-3.96-5.688-9.268-9.37c-19.136,21.393-36.109,53.899-37.686,102.36c3.052,1.567,7.669,4.797,10.974,11.001
				c0,0-5.841-3.221-11.089-5.152c-0.096,14.292,1.118,29.913,3.966,46.988c0,0,5.037-1.386,12.722-4.795
				c30.335-13.456,52.387-39.28,61.949-69.858C365.932,279.865,359.496,277.821,359.496,277.821z"/>
			<g>
				<path style="fill:#947618;" d="M312.164,330.92c2.25-4.562,4.333-9.209,6.219-13.938c1.879-4.736,3.544-9.548,5.103-14.384
					c3.116-9.675,5.804-19.452,8.975-29.044c6.293-19.194,14.591-37.729,24.065-55.59c4.83-8.901,9.554-17.883,14.478-26.727
					c4.879-8.874,10.089-17.568,15.903-25.876c-6.188,8.038-11.59,16.66-16.769,25.381c-5.118,8.768-9.983,17.649-14.989,26.474
					c-4.953,8.87-9.419,18.009-13.55,27.293c-4.099,9.302-7.883,18.737-11.081,28.408c-3.142,9.675-5.764,19.474-8.807,29.115
					c-1.52,4.82-3.144,9.603-4.974,14.301c-1.861,4.689-3.855,9.328-5.991,13.904c-4.315,9.129-9.242,17.979-14.683,26.506
					c0.078,0.482,0.145,0.955,0.225,1.439c0.202-0.298,0.413-0.589,0.613-0.888C302.534,348.844,307.643,340.034,312.164,330.92z"/>
				<path style="fill:#947618;" d="M360.409,208.661c0.347-1.599,0.027-3.168-0.443-4.649c-0.498-1.483-1.183-2.909-1.961-4.285
					c-0.767-1.385-1.644-2.713-2.543-4.032c-0.915-1.308-1.847-2.61-2.851-3.886c1.285,0.994,2.446,2.15,3.486,3.402
					c1.048,1.247,1.988,2.589,2.799,4.014c0.788,1.435,1.469,2.954,1.837,4.576C361.109,205.398,361.145,207.188,360.409,208.661z"
					/>
				<path style="fill:#947618;" d="M351.589,224.61c2.701-2.261,6.193-3.558,9.728-3.919c3.537-0.344,7.217,0.242,10.309,1.93
					c-3.379-0.922-6.812-1.258-10.208-0.912C358.021,222.036,354.72,223.04,351.589,224.61z"/>
				<path style="fill:#947618;" d="M344.119,243.29c-1.315-3.863-3.141-7.462-5.548-10.662c-2.39-3.213-5.325-5.983-8.656-8.339
					c3.747,1.654,6.998,4.428,9.475,7.726C341.851,235.327,343.59,239.228,344.119,243.29z"/>
				<path style="fill:#947618;" d="M333.426,263.897c2.047-2.374,4.665-4.223,7.429-5.716c2.772-1.502,5.757-2.596,8.821-3.344
					c3.07-0.721,6.238-1.094,9.394-0.929c0.787,0.075,1.576,0.101,2.356,0.216c0.777,0.138,1.559,0.239,2.327,0.407
					c0.759,0.219,1.518,0.42,2.266,0.652c0.733,0.285,1.459,0.58,2.176,0.882c-0.758-0.199-1.508-0.405-2.251-0.622
					c-0.761-0.155-1.527-0.279-2.285-0.42c-0.764-0.111-1.536-0.17-2.3-0.257c-0.767-0.067-1.542-0.045-2.309-0.072
					c-3.078,0.023-6.147,0.412-9.137,1.137c-2.995,0.705-5.911,1.745-8.705,3.049l-1.049,0.491l-1.015,0.556
					c-0.689,0.354-1.341,0.766-1.99,1.186C335.821,261.907,334.621,262.888,333.426,263.897z"/>
				<path style="fill:#947618;" d="M329.667,279.499c-1.448-2.538-3.015-4.987-4.762-7.297c-1.756-2.301-3.64-4.498-5.697-6.527
					c-2.039-2.046-4.245-3.92-6.555-5.664l-1.761-1.273l-1.815-1.199l-1.849-1.159c-0.634-0.355-1.265-0.722-1.893-1.097
					c0.676,0.276,1.35,0.561,2.02,0.857l1.975,0.966l1.912,1.089l1.865,1.173c2.455,1.619,4.728,3.513,6.823,5.582
					c2.078,2.086,3.983,4.349,5.613,6.797C327.182,274.187,328.598,276.776,329.667,279.499z"/>
				<path style="fill:#947618;" d="M325.497,293.192c0.673-0.418,1.355-0.831,2.045-1.234l2.16-1.04l2.258-0.82l2.319-0.641
					c3.129-0.742,6.363-0.953,9.563-0.853c3.203,0.124,6.384,0.561,9.494,1.269c1.553,0.364,3.095,0.761,4.624,1.203
					c1.517,0.485,3.03,0.969,4.513,1.543c-0.776-0.172-1.548-0.356-2.318-0.546l-2.321-0.511c-1.545-0.342-3.095-0.65-4.651-0.917
					c-3.112-0.519-6.24-0.92-9.378-1.02c-3.136-0.123-6.279,0.056-9.368,0.599C331.352,290.776,328.339,291.768,325.497,293.192z"/>
				<path style="fill:#947618;" d="M320.161,308.714c-1.818-2.563-3.788-4.921-6.066-6.978c-2.261-2.076-4.79-3.817-7.518-5.379
					c3.048,0.814,5.854,2.494,8.206,4.623C317.121,303.127,319.052,305.761,320.161,308.714z"/>
				<path style="fill:#947618;" d="M314.818,321.744c3.746-1.247,7.737-1.733,11.695-1.665c3.958,0.096,7.925,0.749,11.615,2.155
					c-3.891-0.619-7.75-1.063-11.636-1.132C322.606,321.005,318.732,321.286,314.818,321.744z"/>
				<path style="fill:#947618;" d="M308.35,338.25c-1.443-2.751-2.931-5.4-4.67-7.9c-1.717-2.516-3.66-4.851-5.713-7.182
					c2.593,1.725,4.776,4.039,6.556,6.603C306.28,332.349,307.661,335.212,308.35,338.25z"/>
			</g>
		</g>
		<g>
			<path style="fill:#A1E5F1;" d="M408.971,334.634c2.843-0.721,6.471,0.187,9.231,1.186c3.198-6.3,5.595-13.086,7.038-20.227
				c1.687-8.35,4.487-18.62,9.129-29.956c-2.279-0.218-4.428-0.196-4.428-0.196c2.08-1.333,3.952-2.036,5.522-2.396
				c2.608-6.089,5.738-12.453,9.52-18.978c0,0-18.614,0.686-39.036,13.154c0.681,2.975,1.354,7.613-0.04,10.792
				c0,0-1.739-4.413-4.693-7.704c-16.122,11.226-32.557,30.194-41.26,62.219c1.785,1.525,4.35,4.406,5.572,9.059
				c0,0-3.381-3.067-6.571-5.182c-2.32,9.503-3.978,20.098-4.777,31.919c0,0,3.573-0.128,9.229-1.185
				c22.326-4.172,41.09-17.888,52.286-36.742C412.935,337.012,408.971,334.634,408.971,334.634z"/>
			<g>
				<path style="fill:#4D88A5;" d="M369.066,362.524c2.219-2.683,4.34-5.449,6.343-8.3c1.999-2.858,3.868-5.799,5.669-8.774
					c3.603-5.951,6.937-12.038,10.563-17.926c7.222-11.789,15.674-22.823,24.804-33.222c4.622-5.165,9.186-10.401,13.862-15.514
					c4.65-5.139,9.492-10.107,14.676-14.722c-5.39,4.376-10.349,9.265-15.175,14.255c-4.793,5.031-9.435,10.178-14.162,15.265
					c-4.699,5.125-9.116,10.507-13.333,16.037c-4.199,5.547-8.208,11.233-11.865,17.169c-3.62,5.947-6.913,12.059-10.462,17.999
					c-1.774,2.97-3.61,5.899-5.57,8.738c-1.98,2.829-4.04,5.603-6.185,8.314c-4.315,5.398-8.993,10.514-13.964,15.334
					c-0.024,0.333-0.054,0.659-0.077,0.994c0.181-0.167,0.368-0.327,0.549-0.494C359.823,372.941,364.616,367.88,369.066,362.524z"
					/>
				<path style="fill:#4D88A5;" d="M420.499,288.72c0.483-1.01,0.518-2.105,0.439-3.166c-0.097-1.066-0.328-2.124-0.629-3.164
					c-0.292-1.043-0.667-2.067-1.057-3.087c-0.403-1.015-0.818-2.03-1.285-3.038c0.699,0.865,1.289,1.818,1.784,2.816
					c0.501,0.996,0.915,2.038,1.23,3.115c0.298,1.08,0.512,2.199,0.501,3.337C421.48,286.657,421.222,287.855,420.499,288.72z"/>
				<path style="fill:#4D88A5;" d="M412.107,297.949c2.156-1.079,4.686-1.392,7.098-1.074c2.41,0.33,4.768,1.301,6.561,2.913
					c-2.105-1.148-4.338-1.913-6.654-2.219C416.797,297.25,414.44,297.398,412.107,297.949z"/>
				<path style="fill:#4D88A5;" d="M404.183,309.21c-0.266-2.78-0.914-5.466-2.012-7.977c-1.084-2.517-2.601-4.825-4.448-6.92
					c2.234,1.693,3.961,4.054,5.09,6.642C403.93,303.549,404.472,306.422,404.183,309.21z"/>
				<path style="fill:#4D88A5;" d="M393.808,321.246c1.738-1.258,3.774-2.075,5.85-2.634c2.083-0.562,4.244-0.82,6.403-0.834
					c2.158,0.004,4.327,0.256,6.403,0.865c0.512,0.174,1.034,0.316,1.535,0.516c0.496,0.215,1,0.406,1.485,0.639
					c0.471,0.266,0.945,0.52,1.406,0.792c0.443,0.305,0.88,0.617,1.31,0.931c-0.474-0.252-0.941-0.508-1.401-0.77
					c-0.482-0.223-0.973-0.427-1.455-0.64c-0.491-0.195-0.996-0.355-1.491-0.534c-0.5-0.165-1.02-0.273-1.527-0.413
					c-2.053-0.471-4.159-0.696-6.264-0.685c-2.106-0.003-4.212,0.229-6.279,0.656l-0.776,0.162l-0.764,0.21
					c-0.514,0.127-1.014,0.298-1.513,0.476C395.717,320.299,394.763,320.762,393.808,321.246z"/>
				<path style="fill:#4D88A5;" d="M388.841,331.043c-0.564-1.919-1.22-3.797-2.019-5.611c-0.806-1.81-1.714-3.57-2.763-5.246
					c-1.035-1.684-2.208-3.281-3.471-4.807l-0.972-1.126l-1.02-1.085l-1.048-1.064c-0.366-0.336-0.728-0.68-1.087-1.03
					c0.407,0.29,0.811,0.587,1.21,0.89l1.163,0.955l1.102,1.027l1.057,1.076c1.38,1.466,2.594,3.086,3.663,4.794
					c1.054,1.717,1.966,3.525,2.665,5.413C388.025,327.113,388.559,329.06,388.841,331.043z"/>
				<path style="fill:#4D88A5;" d="M383.902,339.503c0.514-0.172,1.034-0.34,1.557-0.499l1.603-0.351l1.634-0.19l1.646-0.061
					c2.201,0,4.388,0.37,6.503,0.942c2.114,0.588,4.163,1.382,6.123,2.344c0.977,0.487,1.941,0.996,2.889,1.531
					c0.934,0.563,1.865,1.124,2.762,1.74c-0.49-0.237-0.975-0.482-1.457-0.729l-1.465-0.707c-0.975-0.471-1.959-0.922-2.953-1.345
					c-1.99-0.837-4.01-1.598-6.085-2.16c-2.069-0.577-4.191-0.954-6.333-1.081C388.183,338.819,386.019,339.004,383.902,339.503z"/>
				<path style="fill:#4D88A5;" d="M377.898,348.998c-0.806-1.994-1.746-3.875-2.938-5.605c-1.178-1.74-2.587-3.299-4.157-4.769
					c1.902,1.023,3.505,2.585,4.735,4.375C376.755,344.797,377.626,346.857,377.898,348.998z"/>
				<path style="fill:#4D88A5;" d="M372.283,356.832c2.691-0.239,5.426,0.068,8.051,0.738c2.621,0.689,5.16,1.75,7.395,3.269
					c-2.494-1.027-4.993-1.932-7.571-2.591C377.586,357.57,374.961,357.145,372.283,356.832z"/>
				<path style="fill:#4D88A5;" d="M365.369,366.803c-0.527-2.06-1.099-4.059-1.863-5.999c-0.746-1.947-1.672-3.808-2.671-5.685
					c1.454,1.559,2.543,3.444,3.323,5.432C364.922,362.546,365.389,364.672,365.369,366.803z"/>
			</g>
		</g>
		<g>
			<g>
				<path style="fill:#4D88A5;" d="M315.902,452.514c0.23,0.239,0.567,0.37,0.921,0.322c28.763-3.912,60.266-33.381,77.363-59.105
					c13.384-20.137,17.808-36.49,23.409-57.195c1.29-4.769,2.625-9.701,4.151-14.991c0.165-0.57-0.163-1.168-0.734-1.331
					c-0.572-0.165-1.167,0.164-1.331,0.734c-1.532,5.308-2.869,10.249-4.161,15.027c-5.55,20.515-9.933,36.72-23.123,56.566
					c-16.839,25.333-47.761,54.341-75.862,58.163c-0.588,0.08-1.001,0.622-0.921,1.211
					C315.645,452.149,315.75,452.355,315.902,452.514z"/>
			</g>
			<g>
				<path style="fill:#4D88A5;" d="M419.639,328.309c2.488-3.947,5.005-7.881,7.259-11.948c0.936-1.69,1.437-3.895,0.855-5.908
					c-1.131-3.913-6.502-4.423-9.009-2.095c-2.876,2.671-1.876,6.369-1.696,9.971c0.155,3.093,0.092,6.229,0.466,9.337
					C417.627,328.603,419.09,329.045,419.639,328.309z"/>
			</g>
			<g>
				<path style="fill:#4D88A5;" d="M422.249,334.501c1.918-1.029,4-1.531,6.109-0.842c1.955,0.638,2.634,2.564,2.184,4.455
					c-0.766,3.216-3.866,4.567-6.871,4.949c-2.087,0.266-4.352,0.634-6.419,0.051c-0.774-0.218-2.047-0.74-2.217-1.633
					c-0.189-0.994,0.681-1.579,1.298-2.198C417.927,337.685,419.974,335.722,422.249,334.501z"/>
			</g>
			<g>
				<path style="fill:#4D88A5;" d="M417.044,354.691c2.067-1.29,4.254-2.021,6.364-1.463c1.954,0.517,2.481,2.546,1.847,4.639
					c-1.077,3.559-4.39,5.305-7.517,5.99c-2.172,0.476-4.537,1.08-6.611,0.633c-0.777-0.167-2.04-0.619-2.135-1.573
					c-0.105-1.061,0.843-1.775,1.534-2.502C412.309,358.535,414.592,356.22,417.044,354.691z"/>
			</g>
			<g>
				<path style="fill:#4D88A5;" d="M406.38,383.224c2.739-0.855,5.449-1.039,7.687,0.224c2.073,1.17,2.07,3.638,0.727,5.835
					c-2.286,3.736-6.58,4.74-10.348,4.592c-2.617-0.103-5.491-0.118-7.722-1.244c-0.836-0.422-2.141-1.311-1.965-2.427
					c0.196-1.241,1.488-1.772,2.492-2.396C399.842,386.198,403.132,384.238,406.38,383.224z"/>
			</g>
			<g>
				<path style="fill:#4D88A5;" d="M393.522,404.043c2.852-0.314,5.547,0.026,7.501,1.695c1.81,1.546,1.334,3.968-0.407,5.866
					c-2.96,3.228-7.367,3.39-11.036,2.521c-2.549-0.603-5.367-1.169-7.34-2.702c-0.739-0.574-1.85-1.698-1.463-2.759
					c0.43-1.18,1.801-1.453,2.905-1.873C386.534,405.707,390.138,404.416,393.522,404.043z"/>
			</g>
			<g>
				<path style="fill:#4D88A5;" d="M376.166,424.933c2.862,0.205,5.452,1.025,7.073,3.018c1.503,1.847,0.598,4.143-1.456,5.697
					c-3.493,2.642-7.857,2.008-11.31,0.493c-2.398-1.052-5.068-2.117-6.734-3.98c-0.624-0.698-1.514-2.003-0.942-2.977
					c0.636-1.083,2.033-1.105,3.195-1.319C368.993,425.311,372.771,424.69,376.166,424.933z"/>
			</g>
			<g>
				<path style="fill:#4D88A5;" d="M359.267,439.964c2.787,0.683,5.202,1.926,6.466,4.164c1.171,2.073-0.107,4.185-2.393,5.371
					c-3.887,2.018-8.083,0.659-11.232-1.415c-2.187-1.44-4.64-2.938-5.969-5.054c-0.498-0.793-1.156-2.229-0.429-3.093
					c0.809-0.961,2.19-0.748,3.371-0.764C352.133,439.132,355.961,439.154,359.267,439.964z"/>
			</g>
			<g>
				<path style="fill:#4D88A5;" d="M405.469,338.049c-1.747-1.299-3.086-2.969-3.36-5.172c-0.253-2.04,1.2-3.474,3.103-3.871
					c3.236-0.675,5.778,1.557,7.402,4.114c1.128,1.776,2.425,3.67,2.776,5.787c0.132,0.793,0.201,2.167-0.535,2.7
					c-0.819,0.593-1.719,0.055-2.541-0.24C410.189,340.607,407.542,339.59,405.469,338.049z"/>
			</g>
			<g>
				<path style="fill:#4D88A5;" d="M398.856,357.318c-1.563-1.598-2.649-3.441-2.563-5.523c0.079-1.929,1.795-2.903,3.797-2.823
					c3.404,0.138,5.621,2.776,6.851,5.499c0.854,1.891,1.86,3.929,1.868,5.951c0.003,0.758-0.154,2.033-0.991,2.35
					c-0.932,0.352-1.758-0.351-2.546-0.814C403.235,360.764,400.71,359.214,398.856,357.318z"/>
			</g>
			<g>
				<path style="fill:#4D88A5;" d="M385.421,380.352c-1.343-2.582-1.999-5.289-1.105-7.85c0.828-2.373,3.334-2.938,5.797-2.081
					c4.189,1.458,5.953,5.583,6.456,9.439c0.349,2.679,0.833,5.598,0.077,8.12c-0.283,0.945-0.96,2.474-2.123,2.553
					c-1.294,0.087-2.057-1.102-2.864-1.976C389.573,386.3,387.014,383.414,385.421,380.352z"/>
			</g>
			<g>
				<path style="fill:#4D88A5;" d="M372.937,397.211c-0.9-2.767-1.101-5.545,0.202-7.924c1.207-2.204,3.772-2.349,6.061-1.098
					c3.891,2.128,4.953,6.487,4.814,10.374c-0.097,2.7-0.1,5.658-1.261,8.022c-0.435,0.885-1.354,2.282-2.514,2.168
					c-1.29-0.127-1.847-1.426-2.5-2.421C376.054,403.761,374.004,400.493,372.937,397.211z"/>
			</g>
			<g>
				<path style="fill:#4D88A5;" d="M354.136,416.867c-1.109-2.69-1.522-5.445-0.405-7.917c1.036-2.29,3.582-2.631,5.959-1.558
					c4.043,1.824,5.434,6.089,5.593,9.975c0.11,2.699,0.333,5.649-0.644,8.095c-0.366,0.916-1.176,2.379-2.341,2.354
					c-1.296-0.028-1.951-1.28-2.678-2.222C357.744,423.16,355.451,420.058,354.136,416.867z"/>
			</g>
			<g>
				<path style="fill:#4D88A5;" d="M339.694,427.894c-0.525-2.862-0.356-5.642,1.251-7.828c1.489-2.025,4.051-1.829,6.153-0.285
					c3.575,2.625,4.049,7.086,3.396,10.92c-0.453,2.663-0.85,5.595-2.313,7.784c-0.548,0.82-1.645,2.083-2.779,1.816
					c-1.262-0.297-1.642-1.658-2.157-2.73C341.915,434.8,340.317,431.29,339.694,427.894z"/>
			</g>
		</g>
		<g>
			<path style="fill:#4D88A5;" d="M142.267,321.162c0.906-4.188,4.453-8.345,7.555-11.306c-6.162-8.282-13.482-15.832-21.886-22.363
				c-9.827-7.638-21.442-17.982-33.255-31.427c-1.768,2.839-3.136,5.666-3.136,5.666c-0.391-3.589-0.093-6.495,0.456-8.782
				c-6.269-7.373-12.56-15.606-18.637-24.799c0,0-11.209,24.798-8.18,59.627c4.335,1.044,10.841,3.18,14.092,7.072
				c0,0-6.905-0.595-13.131,1.129c4.201,28.393,18.327,62.234,54.566,94.448c3.157-1.343,8.593-2.826,15.476-1.397
				c0,0-6.212,2.428-11.054,5.227c10.924,9.217,23.707,18.276,38.652,27.01c0,0,2.157-4.758,4.453-12.845
				c9.063-31.924,3.322-65.393-14.063-92.304C147.956,317.523,142.267,321.162,142.267,321.162z"/>
			<g>
				<path style="fill:#89C1D4;" d="M152.801,391.511c-2.068-4.648-4.306-9.222-6.734-13.697c-2.438-4.474-5.071-8.832-7.791-13.124
					c-5.443-8.584-11.238-16.905-16.582-25.478c-10.727-17.116-19.664-35.351-27.332-54.059
					c-3.752-9.406-7.633-18.784-11.281-28.226c-3.699-9.426-7.049-18.993-9.715-28.776c2.22,9.899,5.391,19.566,8.781,29.125
					c3.465,9.543,7.179,18.963,10.759,28.457c3.649,9.481,7.817,18.76,12.31,27.875c4.527,9.101,9.358,18.045,14.746,26.69
					c5.427,8.604,11.281,16.888,16.744,25.394c2.732,4.252,5.37,8.559,7.81,12.971c2.413,4.431,4.703,8.93,6.854,13.499
					c4.256,9.157,7.907,18.605,10.98,28.243c0.42,0.248,0.826,0.499,1.25,0.747c-0.1-0.346-0.189-0.694-0.29-1.04
					C160.417,410.379,156.914,400.816,152.801,391.511z"/>
				<path style="fill:#89C1D4;" d="M89.695,276.217c-1.007-1.289-2.417-2.047-3.857-2.633c-1.458-0.566-2.992-0.952-4.548-1.234
					c-1.555-0.296-3.138-0.472-4.726-0.625c-1.591-0.133-3.188-0.25-4.81-0.295c1.586-0.352,3.217-0.505,4.845-0.503
					c1.629-0.008,3.262,0.128,4.876,0.417c1.607,0.313,3.21,0.76,4.692,1.516C87.634,273.592,89.034,274.709,89.695,276.217z"/>
				<path style="fill:#89C1D4;" d="M96.311,293.2c-0.01-3.522,1.227-7.036,3.212-9.984c1.999-2.938,4.803-5.393,8.078-6.689
					c-2.871,2.007-5.325,4.431-7.231,7.262C98.447,286.609,97.107,289.789,96.311,293.2z"/>
				<path style="fill:#89C1D4;" d="M105.89,310.891c-3.81-1.461-7.745-2.36-11.744-2.556c-3.998-0.219-8.004,0.265-11.947,1.319
					c3.669-1.822,7.88-2.546,12-2.34C98.318,307.54,102.43,308.699,105.89,310.891z"/>
				<path style="fill:#89C1D4;" d="M114.888,332.292c-0.515-3.092-0.261-6.287,0.359-9.367c0.619-3.091,1.687-6.085,3.073-8.919
					c1.41-2.821,3.15-5.495,5.296-7.815c0.561-0.557,1.086-1.147,1.673-1.673c0.603-0.509,1.181-1.045,1.802-1.528
					c0.653-0.443,1.294-0.898,1.951-1.325c0.688-0.381,1.379-0.75,2.07-1.108c-0.638,0.455-1.276,0.9-1.918,1.332
					c-0.606,0.485-1.191,0.995-1.784,1.488c-0.574,0.516-1.113,1.072-1.669,1.603c-0.542,0.547-1.021,1.156-1.533,1.729
					c-1.952,2.38-3.616,4.988-4.971,7.75c-1.374,2.753-2.44,5.659-3.226,8.641l-0.293,1.121l-0.222,1.136
					c-0.169,0.756-0.269,1.52-0.361,2.288C114.891,329.179,114.877,330.728,114.888,332.292z"/>
				<path style="fill:#89C1D4;" d="M124.475,345.163c-2.877-0.511-5.762-0.873-8.654-1.008c-2.892-0.122-5.786-0.08-8.661,0.203
					c-2.877,0.259-5.729,0.756-8.547,1.415l-2.105,0.54l-2.083,0.628l-2.073,0.68c-0.679,0.261-1.364,0.51-2.055,0.753
					c0.644-0.343,1.295-0.679,1.951-1.004l2.006-0.9l2.06-0.773l2.095-0.684c2.815-0.851,5.725-1.387,8.655-1.673
					c2.932-0.263,5.891-0.279,8.815,0.034C118.803,343.674,121.698,344.242,124.475,345.163z"/>
				<path style="fill:#89C1D4;" d="M132.332,357.127c0.109-0.785,0.228-1.573,0.36-2.361l0.583-2.326l0.814-2.26l0.991-2.193
					c1.431-2.879,3.338-5.5,5.462-7.896c2.145-2.383,4.516-4.548,7.049-6.485c1.273-0.961,2.565-1.892,3.883-2.784
					c1.343-0.855,2.683-1.71,4.073-2.482c-0.629,0.487-1.264,0.962-1.902,1.432l-1.878,1.457c-1.251,0.969-2.48,1.963-3.68,2.988
					c-2.389,2.06-4.699,4.207-6.783,6.556c-2.101,2.332-3.974,4.863-5.533,7.583C134.22,351.081,133.056,354.032,132.332,357.127z"
					/>
				<path style="fill:#89C1D4;" d="M140.849,371.158c-3.133-0.242-6.205-0.237-9.244,0.198c-3.042,0.41-5.999,1.24-8.944,2.337
					c2.576-1.823,5.662-2.904,8.803-3.35C134.61,369.921,137.87,370.121,140.849,371.158z"/>
				<path style="fill:#89C1D4;" d="M147.446,383.6c1.438-3.677,3.618-7.055,6.202-10.054c2.606-2.981,5.646-5.612,9.086-7.549
					c-2.965,2.595-5.775,5.276-8.314,8.22C151.86,377.142,149.598,380.3,147.446,383.6z"/>
				<path style="fill:#89C1D4;" d="M155.994,399.131c-3.037-0.65-6.025-1.202-9.06-1.465c-3.032-0.29-6.07-0.29-9.175-0.204
					c2.985-0.889,6.159-1.087,9.268-0.815C150.134,396.947,153.219,397.717,155.994,399.131z"/>
			</g>
		</g>
		<g>
			<g>
				<path style="fill:#CBA327;" d="M137.977,395.468c-0.137,0.173-0.352,0.28-0.59,0.27c-19.282-0.807-41.962-18.36-54.874-34.328
					c-10.108-12.5-14.05-23.05-19.041-36.409c-1.149-3.077-2.339-6.259-3.677-9.666c-0.145-0.368,0.035-0.783,0.404-0.927
					c0.368-0.144,0.782,0.036,0.926,0.404c1.343,3.418,2.534,6.607,3.686,9.689c4.946,13.236,8.852,23.691,18.813,36.01
					c12.717,15.725,34.984,33.01,53.822,33.797c0.394,0.016,0.701,0.35,0.684,0.744
					C138.124,395.211,138.067,395.354,137.977,395.468z"/>
			</g>
			<g>
				<path style="fill:#CBA327;" d="M61.608,319.683c-1.891-2.458-3.801-4.906-5.545-7.459c-0.725-1.061-1.193-2.489-0.933-3.858
					c0.506-2.66,4.03-3.331,5.834-1.945c2.07,1.59,1.637,4.1,1.741,6.495c0.09,2.057,0.325,4.129,0.27,6.21
					C62.958,319.753,62.017,320.136,61.608,319.683z"/>
			</g>
			<g>
				<path style="fill:#CBA327;" d="M60.264,323.944c-1.334-0.562-2.742-0.765-4.096-0.178c-1.254,0.544-1.585,1.86-1.17,3.084
					c0.706,2.081,2.842,2.783,4.855,2.85c1.398,0.046,2.92,0.15,4.252-0.364c0.499-0.192,1.309-0.616,1.366-1.218
					c0.063-0.669-0.549-1.003-0.995-1.374C63.322,325.783,61.846,324.611,60.264,323.944z"/>
			</g>
			<g>
				<path style="fill:#CBA327;" d="M64.961,336.985c-1.448-0.725-2.941-1.074-4.303-0.574c-1.262,0.463-1.484,1.839-0.935,3.185
					c0.934,2.289,3.235,3.239,5.348,3.499c1.467,0.181,3.07,0.433,4.415,0.009c0.504-0.159,1.312-0.536,1.315-1.173
					c0.004-0.709-0.668-1.123-1.17-1.561C68.334,339.237,66.679,337.846,64.961,336.985z"/>
			</g>
			<g>
				<path style="fill:#CBA327;" d="M73.789,355.212c-1.866-0.396-3.671-0.349-5.075,0.625c-1.3,0.903-1.145,2.537-0.119,3.908
					c1.744,2.331,4.649,2.73,7.134,2.398c1.726-0.231,3.628-0.419,5.034-1.302c0.527-0.331,1.336-1.001,1.15-1.728
					c-0.207-0.809-1.095-1.081-1.798-1.431C78.301,356.775,76.003,355.682,73.789,355.212z"/>
			</g>
			<g>
				<path style="fill:#CBA327;" d="M83.591,368.196c-1.907-0.031-3.67,0.361-4.86,1.587c-1.103,1.136-0.637,2.709,0.633,3.858
					c2.159,1.953,5.087,1.787,7.462,0.985c1.65-0.557,3.48-1.107,4.691-2.244c0.454-0.426,1.119-1.239,0.797-1.917
					c-0.358-0.755-1.282-0.85-2.039-1.06C88.32,368.864,85.854,368.232,83.591,368.196z"/>
			</g>
			<g>
				<path style="fill:#CBA327;" d="M96.375,380.947c-1.882,0.313-3.545,1.016-4.495,2.436c-0.88,1.316-0.139,2.78,1.317,3.681
					c2.476,1.532,5.326,0.842,7.517-0.375c1.522-0.845,3.224-1.715,4.211-3.052c0.37-0.501,0.878-1.42,0.439-2.029
					c-0.488-0.678-1.414-0.606-2.197-0.675C101.147,380.753,98.607,380.576,96.375,380.947z"/>
			</g>
			<g>
				<path style="fill:#CBA327;" d="M108.493,389.849c-1.802,0.625-3.324,1.598-4.022,3.157c-0.646,1.445,0.33,2.763,1.917,3.407
					c2.698,1.095,5.391-0.065,7.347-1.633c1.359-1.089,2.89-2.233,3.638-3.716c0.28-0.556,0.627-1.547,0.092-2.074
					c-0.595-0.586-1.496-0.359-2.279-0.297C113.164,388.856,110.631,389.108,108.493,389.849z"/>
			</g>
			<g>
				<path style="fill:#CBA327;" d="M71.591,325.252c1.076-0.968,1.859-2.157,1.904-3.632c0.041-1.366-1.01-2.225-2.294-2.37
					c-2.184-0.246-3.728,1.389-4.645,3.182c-0.637,1.246-1.378,2.579-1.479,4.003c-0.038,0.533,0.001,1.447,0.521,1.754
					c0.579,0.342,1.141-0.07,1.667-0.316C68.626,327.238,70.315,326.4,71.591,325.252z"/>
			</g>
			<g>
				<path style="fill:#CBA327;" d="M77.164,337.597c0.936-1.155,1.54-2.442,1.354-3.815c-0.172-1.272-1.368-1.811-2.688-1.633
					c-2.245,0.302-3.549,2.186-4.194,4.064c-0.448,1.305-0.988,2.716-0.867,4.055c0.045,0.502,0.228,1.336,0.802,1.494
					c0.638,0.176,1.142-0.342,1.635-0.697C74.479,340.149,76.054,338.966,77.164,337.597z"/>
			</g>
			<g>
				<path style="fill:#CBA327;" d="M87.485,352.011c0.729-1.792,0.996-3.625,0.245-5.264c-0.695-1.519-2.389-1.738-3.966-1.018
					c-2.682,1.225-3.594,4.065-3.688,6.649c-0.065,1.795-0.204,3.757,0.452,5.38c0.246,0.608,0.789,1.578,1.563,1.558
					c0.862-0.023,1.293-0.857,1.773-1.486C85.105,356.206,86.62,354.137,87.485,352.011z"/>
			</g>
			<g>
				<path style="fill:#CBA327;" d="M96.794,362.396c0.424-1.888,0.385-3.739-0.625-5.233c-0.936-1.384-2.643-1.321-4.08-0.351
					c-2.444,1.65-2.876,4.601-2.543,7.165c0.231,1.781,0.418,3.739,1.332,5.232c0.343,0.559,1.038,1.427,1.798,1.279
					c0.846-0.164,1.134-1.058,1.505-1.757C95.137,366.926,96.291,364.636,96.794,362.396z"/>
			</g>
			<g>
				<path style="fill:#CBA327;" d="M110.458,374.242c0.567-1.85,0.67-3.699-0.223-5.266c-0.827-1.452-2.534-1.519-4.041-0.662
					c-2.563,1.458-3.22,4.367-3.084,6.949c0.094,1.793,0.13,3.76,0.928,5.318c0.299,0.584,0.926,1.502,1.695,1.413
					c0.856-0.099,1.212-0.968,1.635-1.637C108.459,378.631,109.785,376.436,110.458,374.242z"/>
			</g>
			<g>
				<path style="fill:#CBA327;" d="M120.701,380.646c0.17-1.927-0.114-3.757-1.313-5.104c-1.111-1.248-2.795-0.959-4.09,0.193
					c-2.204,1.959-2.241,4.942-1.571,7.439c0.465,1.735,0.909,3.651,2.014,5.009c0.414,0.509,1.218,1.277,1.952,1.03
					c0.817-0.275,0.984-1.199,1.258-1.941C119.659,385.355,120.5,382.932,120.701,380.646z"/>
			</g>
		</g>
		<g>
			<g>
				<path style="fill:#4D88A5;" d="M172.748,291.826c-0.162,0.149-0.391,0.222-0.625,0.176
					c-18.926-3.774-38.624-24.619-48.916-42.388c-8.057-13.91-10.323-24.943-13.191-38.912c-0.661-3.217-1.345-6.545-2.14-10.118
					c-0.087-0.385,0.156-0.768,0.542-0.853c0.386-0.086,0.768,0.156,0.853,0.542c0.799,3.585,1.484,6.919,2.146,10.142
					c2.843,13.84,5.088,24.773,13.028,38.483c10.136,17.5,29.468,38.015,47.959,41.702c0.387,0.077,0.638,0.454,0.561,0.841
					C172.933,291.595,172.855,291.727,172.748,291.826z"/>
			</g>
			<g>
				<path style="fill:#4D88A5;" d="M108.996,205.158c-1.489-2.721-2.998-5.434-4.327-8.226c-0.552-1.16-0.794-2.644-0.326-3.956
					c0.911-2.55,4.496-2.669,6.064-1.021c1.799,1.89,0.984,4.303,0.717,6.686c-0.229,2.046-0.316,4.129-0.692,6.177
					C110.32,205.436,109.331,205.669,108.996,205.158z"/>
			</g>
			<g>
				<path style="fill:#4D88A5;" d="M107.011,209.161c-1.231-0.761-2.591-1.179-4.02-0.809c-1.323,0.343-1.853,1.593-1.632,2.866
					c0.376,2.165,2.378,3.189,4.357,3.566c1.374,0.262,2.862,0.599,4.257,0.297c0.523-0.113,1.389-0.407,1.538-0.993
					c0.166-0.652-0.387-1.075-0.771-1.512C109.748,211.45,108.471,210.064,107.011,209.161z"/>
			</g>
			<g>
				<path style="fill:#4D88A5;" d="M109.638,222.771c-1.319-0.94-2.74-1.515-4.163-1.231c-1.318,0.263-1.75,1.588-1.416,3.002
					c0.569,2.406,2.696,3.7,4.743,4.283c1.422,0.405,2.966,0.902,4.361,0.691c0.523-0.079,1.379-0.327,1.481-0.956
					c0.113-0.7-0.487-1.212-0.915-1.723C112.623,225.516,111.203,223.887,109.638,222.771z"/>
			</g>
			<g>
				<path style="fill:#4D88A5;" d="M115.546,242.142c-1.782-0.68-3.573-0.912-5.11-0.166c-1.424,0.692-1.523,2.33-0.721,3.842
					c1.364,2.573,4.172,3.415,6.679,3.471c1.741,0.039,3.649,0.146,5.175-0.509c0.572-0.245,1.475-0.783,1.403-1.53
					c-0.079-0.831-0.915-1.237-1.555-1.692C119.763,244.383,117.66,242.948,115.546,242.142z"/>
			</g>
			<g>
				<path style="fill:#4D88A5;" d="M123.226,256.484c-1.88-0.325-3.682-0.21-5.047,0.818c-1.265,0.952-1.048,2.578,0.029,3.909
					c1.832,2.263,4.75,2.551,7.221,2.125c1.716-0.296,3.609-0.556,4.981-1.493c0.514-0.351,1.297-1.051,1.084-1.771
					c-0.237-0.801-1.135-1.038-1.851-1.362C127.795,257.874,125.456,256.869,123.226,256.484z"/>
			</g>
			<g>
				<path style="fill:#4D88A5;" d="M133.887,271.056c-1.907,0.019-3.659,0.457-4.817,1.713c-1.073,1.164-0.566,2.725,0.733,3.84
					c2.209,1.896,5.132,1.654,7.485,0.79c1.635-0.6,3.45-1.197,4.631-2.365c0.442-0.438,1.087-1.267,0.747-1.937
					c-0.378-0.745-1.304-0.817-2.066-1.007C138.632,271.601,136.15,271.034,133.887,271.056z"/>
			</g>
			<g>
				<path style="fill:#4D88A5;" d="M144.486,281.723c-1.877,0.339-3.531,1.065-4.461,2.498c-0.862,1.328-0.1,2.781,1.368,3.662
					c2.497,1.498,5.337,0.768,7.511-0.479c1.511-0.866,3.2-1.76,4.168-3.11c0.363-0.506,0.858-1.432,0.411-2.035
					c-0.497-0.671-1.423-0.586-2.206-0.645C149.254,281.463,146.712,281.321,144.486,281.723z"/>
			</g>
			<g>
				<path style="fill:#4D88A5;" d="M118,212.202c1.213-0.79,2.17-1.844,2.441-3.294c0.252-1.344-0.654-2.355-1.9-2.696
					c-2.12-0.58-3.898,0.797-5.08,2.427c-0.821,1.132-1.759,2.336-2.079,3.727c-0.12,0.521-0.222,1.43,0.244,1.814
					c0.519,0.427,1.138,0.107,1.696-0.055C114.764,213.706,116.562,213.14,118,212.202z"/>
			</g>
			<g>
				<path style="fill:#4D88A5;" d="M121.6,225.259c1.103-0.996,1.899-2.175,1.927-3.56c0.026-1.283-1.072-2-2.404-2.028
					c-2.265-0.048-3.844,1.612-4.771,3.368c-0.644,1.22-1.395,2.531-1.483,3.873c-0.033,0.503,0.019,1.355,0.561,1.6
					c0.604,0.272,1.181-0.161,1.723-0.436C118.553,227.367,120.292,226.441,121.6,225.259z"/>
			</g>
			<g>
				<path style="fill:#4D88A5;" d="M129.572,241.095c0.997-1.658,1.543-3.427,1.055-5.164c-0.452-1.609-2.092-2.086-3.762-1.618
					c-2.839,0.796-4.179,3.461-4.67,5.999c-0.342,1.763-0.782,3.68-0.384,5.385c0.149,0.639,0.535,1.681,1.304,1.781
					c0.855,0.111,1.41-0.647,1.981-1.194C126.573,244.872,128.389,243.061,129.572,241.095z"/>
			</g>
			<g>
				<path style="fill:#4D88A5;" d="M137.165,252.793c0.71-1.8,0.958-3.635,0.19-5.267c-0.711-1.512-2.407-1.714-3.977-0.977
					c-2.669,1.253-3.552,4.102-3.619,6.687c-0.046,1.795-0.165,3.759,0.508,5.375c0.252,0.605,0.805,1.57,1.579,1.542
					c0.861-0.031,1.284-0.87,1.758-1.504C134.829,257.012,136.323,254.927,137.165,252.793z"/>
			</g>
			<g>
				<path style="fill:#4D88A5;" d="M148.837,266.606c0.846-1.74,1.233-3.551,0.593-5.237c-0.593-1.562-2.269-1.892-3.89-1.278
					c-2.757,1.045-3.855,3.818-4.12,6.39c-0.184,1.786-0.452,3.735,0.096,5.398c0.205,0.623,0.683,1.627,1.457,1.658
					c0.861,0.034,1.347-0.77,1.868-1.365C146.184,270.634,147.833,268.67,148.837,266.606z"/>
			</g>
			<g>
				<path style="fill:#4D88A5;" d="M157.968,274.515c0.466-1.878,0.468-3.73-0.509-5.246c-0.905-1.404-2.613-1.379-4.071-0.441
					c-2.48,1.595-2.977,4.536-2.701,7.107c0.192,1.786,0.335,3.747,1.216,5.26c0.33,0.567,1.006,1.449,1.77,1.319
					c0.85-0.146,1.158-1.033,1.543-1.724C156.212,279.007,157.416,276.743,157.968,274.515z"/>
			</g>
		</g>
	</g>
	<g>
		<g>
			<g>
				<path style="fill:#43758F;" d="M290.582,170.494c-0.02,0.004-0.042,0.008-0.063,0.012l-5.565,0.988
					c-0.942,0.167-1.846-0.463-2.013-1.406l-0.762-4.294c-1.49-0.228-2.915-0.685-4.249-1.364l-3.183,3.2
					c-0.328,0.329-0.764,0.51-1.226,0.513c-0.464,0.001-0.899-0.178-1.228-0.505l-4.008-3.986c-0.679-0.674-0.682-1.775-0.007-2.454
					l3.282-3.301c-0.25-0.528-0.47-1.079-0.656-1.644l-4.233,0.085c-0.464,0.009-0.903-0.162-1.238-0.484
					c-0.334-0.321-0.523-0.753-0.533-1.217l-0.112-5.652c-0.009-0.463,0.162-0.903,0.484-1.237c0.321-0.335,0.752-0.526,1.217-0.534
					l4.502-0.089c0.238-0.678,0.531-1.34,0.871-1.976l-3.014-3.059c-0.326-0.33-0.503-0.768-0.5-1.231
					c0.004-0.464,0.187-0.898,0.518-1.224l4.027-3.966c0.681-0.671,1.783-0.664,2.454,0.019l3.186,3.232
					c0.926-0.416,1.903-0.726,2.875-0.939l0.372-4.099c0.087-0.954,0.937-1.657,1.887-1.571l5.629,0.511
					c0.952,0.087,1.658,0.933,1.571,1.887l-0.397,4.371c1.08,0.521,2.089,1.175,3.002,1.948c0.063,0.053,0.125,0.107,0.187,0.163
					l3.787-2.178c0.403-0.23,0.871-0.292,1.318-0.171c0.448,0.121,0.822,0.409,1.053,0.811l2.818,4.9
					c0.477,0.829,0.191,1.893-0.64,2.371l-3.787,2.178c0.265,1.354,0.329,2.737,0.192,4.116l3.935,1.837
					c0.42,0.196,0.74,0.544,0.898,0.979c0.159,0.436,0.138,0.908-0.058,1.328l-2.39,5.122c-0.404,0.866-1.441,1.242-2.308,0.839
					l-3.863-1.802c-1.012,1.075-2.17,1.974-3.45,2.68l0.763,4.293C292.088,169.414,291.489,170.298,290.582,170.494z
					 M277.744,163.184l0.333,0.181c1.427,0.775,2.975,1.272,4.6,1.477l0.369,0.047l0.892,5.023c0.07,0.393,0.447,0.656,0.84,0.586
					l5.565-0.988c0.402-0.043,0.656-0.447,0.587-0.84l-0.892-5.02l0.331-0.171c1.413-0.731,2.673-1.71,3.745-2.91l0.25-0.28
					l4.539,2.118c0.362,0.166,0.794,0.012,0.964-0.35l2.39-5.122c0.082-0.175,0.09-0.372,0.024-0.554
					c-0.066-0.182-0.199-0.328-0.375-0.409l-4.596-2.145l0.046-0.365c0.189-1.511,0.118-3.026-0.212-4.504l-0.081-0.363l4.428-2.546
					c0.346-0.199,0.467-0.643,0.267-0.989l-2.818-4.9c-0.096-0.168-0.252-0.288-0.439-0.339c-0.187-0.05-0.383-0.024-0.55,0.072
					l-4.428,2.545l-0.273-0.252c-0.141-0.129-0.282-0.259-0.43-0.384c-0.933-0.789-1.973-1.446-3.092-1.952l-0.328-0.149
					l0.461-5.083c0.036-0.398-0.258-0.752-0.656-0.787l-5.629-0.511c-0.399-0.038-0.752,0.258-0.787,0.656l-0.441,4.859
					l-0.378,0.069c-1.157,0.204-2.267,0.573-3.327,1.083l-0.325,0.156l-3.689-3.744c-0.281-0.283-0.74-0.288-1.025-0.007
					l-4.027,3.967c-0.137,0.136-0.215,0.317-0.215,0.51c-0.002,0.193,0.073,0.376,0.209,0.515l3.547,3.601l-0.19,0.333
					c-0.448,0.782-0.814,1.612-1.09,2.464l-0.111,0.342l-5.217,0.105c-0.402-0.001-0.717,0.339-0.709,0.739l0.112,5.652
					c0.003,0.193,0.082,0.373,0.221,0.508c0.14,0.134,0.323,0.205,0.516,0.201l4.998-0.099l0.11,0.368
					c0.227,0.756,0.518,1.489,0.866,2.173l0.167,0.327l-3.795,3.814c-0.281,0.284-0.28,0.743,0.003,1.025l4.008,3.986
					c0.284,0.28,0.743,0.28,1.025-0.003L277.744,163.184z"/>
			</g>
			<g>
				<path style="fill:#43758F;" d="M286.052,159.759c-2.386,0.514-4.975-0.044-6.976-1.739c-1.656-1.403-2.667-3.367-2.846-5.531
					c-0.179-2.164,0.495-4.267,1.899-5.924c2.895-3.419,8.037-3.845,11.457-0.947c3.419,2.897,3.844,8.036,0.947,11.456
					C289.331,158.492,287.742,159.395,286.052,159.759z M282.825,144.866c-1.481,0.319-2.871,1.111-3.924,2.353
					c-1.229,1.45-1.819,3.292-1.663,5.187c0.156,1.894,1.041,3.614,2.492,4.843c2.992,2.537,7.493,2.166,10.031-0.829
					c2.536-2.994,2.165-7.494-0.83-10.031C287.18,144.904,284.913,144.416,282.825,144.866z"/>
			</g>
		</g>
		<g>
			<g>
				<g>
					<path style="fill:#9CDBF2;" d="M233.11,175.708c-0.246,0.053-0.502,0.032-0.742-0.063c-0.318-0.127-0.567-0.37-0.702-0.685
						l-1.18-2.755c-1.021,0.075-2.037-0.008-3.028-0.246l-1.631,2.638c-0.18,0.291-0.463,0.494-0.795,0.573
						c-0.328,0.077-0.677,0.023-0.968-0.157l-3.357-2.074c-0.291-0.18-0.494-0.462-0.573-0.795
						c-0.079-0.333-0.023-0.677,0.157-0.968l1.683-2.724c-0.235-0.298-0.454-0.613-0.655-0.939l-2.816,0.716
						c-0.335,0.068-0.675,0.035-0.97-0.14c-0.294-0.175-0.502-0.454-0.587-0.785l-0.973-3.825c-0.173-0.684,0.242-1.382,0.925-1.557
						l3.001-0.762c0.054-0.468,0.142-0.936,0.263-1.396l-2.492-1.575c-0.597-0.378-0.775-1.172-0.397-1.768l2.108-3.335
						c0.377-0.596,1.17-0.775,1.767-0.398l2.639,1.669c0.544-0.411,1.125-0.762,1.735-1.051l-0.39-2.796
						c-0.098-0.699,0.4-1.338,1.091-1.445l3.91-0.545c0.338-0.047,0.675,0.041,0.948,0.247c0.273,0.206,0.45,0.506,0.497,0.844
						l0.416,2.989c0.807,0.184,1.586,0.468,2.32,0.845c0.038,0.019,0.075,0.038,0.111,0.058l2.194-2.048
						c0.517-0.479,1.328-0.454,1.811,0.062l2.693,2.886c0.232,0.25,0.355,0.576,0.343,0.917c-0.011,0.342-0.156,0.659-0.406,0.893
						l-2.194,2.048c0.38,0.859,0.636,1.763,0.764,2.695l2.919,0.614c0.69,0.146,1.134,0.827,0.989,1.517l-0.813,3.863
						c-0.145,0.691-0.828,1.136-1.518,0.989l-2.864-0.603c-0.508,0.866-1.136,1.641-1.872,2.311l1.18,2.752
						c0.277,0.649-0.025,1.404-0.674,1.682l-3.627,1.554C233.27,175.665,233.191,175.691,233.11,175.708z M227.069,170.982
						l0.305,0.084c1.086,0.299,2.209,0.39,3.336,0.272l0.309-0.032l1.424,3.321c0.046,0.107,0.13,0.19,0.239,0.233
						c0.108,0.045,0.23,0.038,0.334-0.004l3.628-1.555c0.222-0.094,0.325-0.351,0.23-0.573l-1.422-3.319l0.236-0.202
						c0.839-0.716,1.535-1.575,2.069-2.553l0.151-0.276l3.473,0.731c0.236,0.053,0.467-0.102,0.518-0.337l0.812-3.862
						c0.05-0.235-0.102-0.468-0.337-0.518l-3.515-0.739l-0.032-0.306c-0.11-1.048-0.397-2.059-0.853-3.007l-0.134-0.279l2.644-2.468
						c0.086-0.08,0.135-0.188,0.139-0.306c0.004-0.116-0.038-0.227-0.117-0.312l-2.693-2.886c-0.079-0.086-0.188-0.135-0.304-0.138
						c-0.12-0.004-0.229,0.038-0.314,0.117l-2.644,2.467l-0.269-0.152c-0.116-0.066-0.233-0.13-0.352-0.192
						c-0.753-0.386-1.559-0.665-2.394-0.83l-0.294-0.058l-0.5-3.579c-0.033-0.238-0.254-0.406-0.492-0.372l-3.91,0.545
						c-0.115,0.016-0.218,0.076-0.288,0.169c-0.07,0.094-0.1,0.208-0.084,0.323l0.477,3.426l-0.294,0.127
						c-0.74,0.321-1.438,0.743-2.076,1.255l-0.235,0.188l-3.143-1.987c-0.205-0.129-0.475-0.067-0.604,0.137l-2.109,3.335
						c-0.129,0.204-0.068,0.475,0.136,0.604l3.028,1.913l-0.092,0.306c-0.179,0.601-0.296,1.219-0.347,1.835l-0.025,0.299
						l-3.578,0.91c-0.233,0.06-0.376,0.298-0.316,0.531l0.973,3.825c0.029,0.113,0.1,0.209,0.2,0.268
						c0.101,0.06,0.239,0.086,0.33,0.048l3.434-0.873l0.16,0.278c0.271,0.474,0.583,0.922,0.927,1.332l0.195,0.233l-2.001,3.238
						c-0.127,0.205-0.063,0.475,0.142,0.602l3.357,2.074c0.099,0.062,0.223,0.083,0.33,0.054c0.114-0.027,0.21-0.097,0.271-0.196
						L227.069,170.982z"/>
				</g>
				<g>
					<path style="fill:#9CDBF2;" d="M230.981,167.903c-1.251,0.269-2.599,0.126-3.825-0.503c-1.365-0.699-2.377-1.89-2.847-3.351
						c-0.471-1.46-0.344-3.017,0.357-4.381c1.444-2.818,4.913-3.938,7.732-2.491l0,0c2.819,1.445,3.936,4.914,2.49,7.732
						C234.072,166.503,232.608,167.553,230.981,167.903z M228.751,157.5c-1.389,0.299-2.637,1.195-3.334,2.553
						c-0.597,1.165-0.705,2.493-0.304,3.739c0.401,1.246,1.263,2.261,2.428,2.858c2.405,1.233,5.365,0.278,6.597-2.125
						c0.597-1.165,0.705-2.493,0.304-3.739c-0.401-1.245-1.263-2.261-2.428-2.858l0,0C230.968,157.393,229.818,157.27,228.751,157.5
						z"/>
				</g>
			</g>
		</g>
	</g>
	<g>
		<g>
			<path style="fill:#CBA327;" d="M48.479,125.959h88.896c3.125,0,5.658-2.533,5.658-5.658V78.54c0-3.125-2.533-5.658-5.658-5.658
				H48.479c-3.125,0-5.658,2.533-5.658,5.658v41.762C42.821,123.426,45.354,125.959,48.479,125.959z"/>
			<path style="fill:#CBA327;" d="M106.292,123.612l25.601,23.917c1.106,0.794,2.8-0.001,2.551-1.197l-4.401-22.719H106.292z"/>
		</g>
		<g>
			<path style="fill:#FFFFFF;" d="M76.351,99.42c0,9.154,7.421,16.576,16.576,16.576c9.154,0,16.575-7.421,16.575-16.576
				c0-9.154-7.421-16.576-16.575-16.576C83.772,82.845,76.351,90.266,76.351,99.42z"/>
			<g>
				<g>
					<g>
						<path style="fill:#9CDBF2;" d="M95.465,94.767c0,2.079,0.885,3.765,1.977,3.765c1.092,0,1.977-1.686,1.977-3.765
							c0-2.079-0.885-3.765-1.977-3.765C96.35,91.002,95.465,92.687,95.465,94.767z"/>
					</g>
					<g>
						<path style="fill:#9CDBF2;" d="M86.435,94.767c0,2.079,0.885,3.765,1.977,3.765c1.092,0,1.977-1.686,1.977-3.765
							c0-2.079-0.885-3.765-1.977-3.765C87.32,91.002,86.435,92.687,86.435,94.767z"/>
					</g>
				</g>
				<g>
					<g>
						<path style="fill:#9CDBF2;" d="M92.875,108.422c0.139,0,0.278-0.002,0.417-0.008c6.348-0.229,10.65-5.593,10.829-5.82
							l-0.914-0.722c-0.041,0.052-4.161,5.173-9.967,5.378c-3.631,0.129-7.223-1.692-10.619-5.41l-0.862,0.786
							C85.275,106.473,89.013,108.422,92.875,108.422z"/>
					</g>
					<g>
						<g>
							<polygon style="fill:#9CDBF2;" points="104.983,103.652 105.465,103.042 102.351,100.587 101.869,101.197 							"/>
						</g>
						<g>
							<polygon style="fill:#9CDBF2;" points="80.868,103.66 83.984,101.204 83.504,100.594 80.389,103.05 							"/>
						</g>
					</g>
				</g>
			</g>
		</g>
	</g>
	<g>
		<g>
			<path style="fill:#43758F;" d="M209.704,96.81h86.011c1.348,0,2.441-1.093,2.441-2.441V47.855c0-1.348-1.093-2.441-2.441-2.441
				h-86.011c-1.348,0-2.441,1.093-2.441,2.441v46.514C207.263,95.717,208.356,96.81,209.704,96.81z"/>
			<path style="fill:#43758F;" d="M240.702,91.899l18.05,32.585c1.238,0.889,3.136-0.001,2.857-1.341l11.927-31.244H240.702z"/>
		</g>
		<g>
			<rect x="231.396" y="57.718" style="fill:#FFFFFF;" width="42.626" height="26.789"/>
			<polygon style="fill:#CBA227;" points="231.396,57.718 252.709,72.829 274.022,57.718 			"/>
			<polygon style="opacity:0.31;fill:#9CDBF2;" points="231.396,57.718 252.709,72.829 231.396,84.507 			"/>
			<polygon style="opacity:0.31;fill:#9CDBF2;" points="274.022,57.718 252.709,72.829 274.022,84.507 			"/>
		</g>
	</g>
	<g>
		<g>
			<path style="fill:#CBA327;" d="M444.848,119.146h-76.66c-1.318,0-2.386-1.068-2.386-2.386V65.366
				c0-1.318,1.068-2.386,2.386-2.386h76.66c1.318,0,2.386,1.068,2.386,2.386v51.395
				C447.234,118.078,446.166,119.146,444.848,119.146z"/>
			<path style="fill:#CBA327;" d="M415.811,116.266l-44.718,25.447c-1.356,0.974-3.435-0.001-3.13-1.469l11.876-23.978H415.811z"/>
		</g>
		<g>
			<g>
				<path style="fill:#4D88A5;" d="M416.881,110.383h-20.724c-0.453,0-0.821-0.367-0.821-0.821V72.563
					c0-0.453,0.367-0.821,0.821-0.821h20.724c0.453,0,0.821,0.367,0.821,0.821v36.999
					C417.701,110.016,417.334,110.383,416.881,110.383z"/>
				<path style="fill:#9CDBF2;" d="M397.495,107.466V74.66c0-0.295,0.239-0.535,0.535-0.535h16.977c0.295,0,0.535,0.239,0.535,0.535
					v32.805c0,0.295-0.239,0.535-0.535,0.535H398.03C397.735,108,397.495,107.761,397.495,107.466z"/>
				<path style="fill:#FFFFFF;" d="M407.178,72.973c0,0.364-0.295,0.659-0.659,0.659c-0.364,0-0.659-0.295-0.659-0.659
					c0-0.364,0.295-0.659,0.659-0.659C406.882,72.313,407.178,72.609,407.178,72.973z"/>
				<g>
					<g>
						<path style="fill:#FFFFFF;" d="M406.517,109.923c-0.422,0-0.765-0.345-0.765-0.767s0.343-0.767,0.765-0.767
							c0.423,0,0.767,0.345,0.767,0.767S406.94,109.923,406.517,109.923z M406.517,108.823c-0.183,0-0.331,0.149-0.331,0.333
							c0,0.183,0.148,0.333,0.331,0.333c0.183,0,0.333-0.149,0.333-0.333C406.85,108.973,406.701,108.823,406.517,108.823z"/>
					</g>
					<g>
						<path style="fill:#FFFFFF;" d="M410.984,110.079c-0.042,0-0.083-0.012-0.119-0.036c-0.061-0.041-0.098-0.109-0.098-0.182
							v-1.256c0-0.073,0.038-0.141,0.098-0.182c0.061-0.039,0.139-0.046,0.206-0.017l1.439,0.628c0.08,0.034,0.13,0.112,0.13,0.199
							c0,0.087-0.051,0.165-0.13,0.199l-1.439,0.628C411.044,110.072,411.013,110.079,410.984,110.079z M411.201,108.939v0.591
							l0.679-0.295L411.201,108.939z"/>
					</g>
					<g>
						<path style="fill:#FFFFFF;" d="M402.052,110.001c-0.029,0-0.059-0.007-0.086-0.019l-1.439-0.628
							c-0.08-0.034-0.131-0.112-0.131-0.198c0-0.087,0.051-0.165,0.131-0.199l1.439-0.628c0.068-0.029,0.144-0.024,0.205,0.017
							c0.061,0.041,0.098,0.109,0.098,0.182v1.256c0,0.073-0.037,0.141-0.098,0.182
							C402.136,109.989,402.095,110.001,402.052,110.001z M401.156,109.156l0.679,0.295v-0.591L401.156,109.156z"/>
					</g>
				</g>
			</g>
			<g>
				<g>
					<g>
						<path style="fill:#FFFFFF;" d="M419.067,96.545c-0.103,0-0.208-0.035-0.292-0.108c-0.187-0.162-0.208-0.444-0.047-0.631
							c1.528-1.771,2.234-3.559,2.099-5.318c-0.192-2.505-2.033-4.103-2.051-4.119c-0.189-0.161-0.212-0.444-0.051-0.631
							c0.162-0.19,0.444-0.208,0.631-0.051c0.088,0.075,2.143,1.86,2.362,4.732c0.154,2.005-0.624,4.014-2.313,5.97
							C419.316,96.492,419.192,96.545,419.067,96.545z"/>
					</g>
					<g>
						<path style="fill:#FFFFFF;" d="M421.918,97.859c-0.128,0-0.258-0.043-0.362-0.134c-0.232-0.201-0.258-0.55-0.059-0.782
							c1.894-2.195,2.77-4.412,2.603-6.592c-0.238-3.105-2.52-5.086-2.542-5.106c-0.234-0.199-0.262-0.55-0.063-0.782
							c0.202-0.236,0.55-0.258,0.782-0.063c0.108,0.093,2.657,2.306,2.928,5.866c0.191,2.486-0.774,4.976-2.867,7.401
							C422.228,97.794,422.074,97.859,421.918,97.859z"/>
					</g>
					<g>
						<path style="fill:#FFFFFF;" d="M424.55,100.253c-0.173,0-0.349-0.059-0.489-0.182c-0.314-0.273-0.349-0.744-0.079-1.058
							c2.561-2.969,3.745-5.966,3.52-8.915c-0.322-4.2-3.408-6.878-3.438-6.904c-0.316-0.27-0.354-0.744-0.085-1.058
							c0.273-0.319,0.744-0.349,1.058-0.085c0.147,0.126,3.593,3.118,3.959,7.933c0.258,3.361-1.046,6.729-3.877,10.008
							C424.969,100.165,424.761,100.253,424.55,100.253z"/>
					</g>
				</g>
				<g>
					<g>
						<path style="fill:#FFFFFF;" d="M393.97,96.545c0.103,0,0.208-0.035,0.292-0.108c0.187-0.162,0.208-0.444,0.047-0.631
							c-1.528-1.771-2.234-3.559-2.1-5.318c0.192-2.505,2.033-4.103,2.05-4.119c0.189-0.161,0.212-0.444,0.051-0.631
							c-0.163-0.19-0.444-0.208-0.631-0.051c-0.087,0.075-2.143,1.86-2.362,4.732c-0.154,2.005,0.624,4.014,2.313,5.97
							C393.72,96.492,393.844,96.545,393.97,96.545z"/>
					</g>
					<g>
						<path style="fill:#FFFFFF;" d="M391.119,97.859c0.128,0,0.258-0.043,0.362-0.134c0.232-0.201,0.258-0.55,0.059-0.782
							c-1.894-2.195-2.77-4.412-2.603-6.592c0.238-3.105,2.52-5.086,2.542-5.106c0.234-0.199,0.262-0.55,0.063-0.782
							c-0.202-0.236-0.551-0.258-0.782-0.063c-0.109,0.093-2.657,2.306-2.928,5.866c-0.191,2.486,0.774,4.976,2.867,7.401
							C390.809,97.794,390.963,97.859,391.119,97.859z"/>
					</g>
					<g>
						<path style="fill:#FFFFFF;" d="M388.486,100.253c0.173,0,0.349-0.059,0.489-0.182c0.314-0.273,0.349-0.744,0.079-1.058
							c-2.561-2.969-3.745-5.966-3.52-8.915c0.322-4.2,3.408-6.878,3.438-6.904c0.316-0.27,0.355-0.744,0.085-1.058
							c-0.272-0.319-0.745-0.349-1.058-0.085c-0.146,0.126-3.593,3.118-3.959,7.933c-0.258,3.361,1.046,6.729,3.877,10.008
							C388.067,100.165,388.275,100.253,388.486,100.253z"/>
					</g>
				</g>
			</g>
		</g>
	</g>
	<g>
		<g>
			<path style="fill:#1E4357;" d="M386.735,444.819H130.677c-1.484,0-2.688-1.203-2.688-2.688V287.852
				c0-1.484,1.203-2.688,2.688-2.688h256.058c1.484,0,2.688,1.203,2.688,2.688v154.279
				C389.422,443.616,388.219,444.819,386.735,444.819z"/>
			<path style="fill:#EEF4F5;" d="M134.979,434.648V295.336c0-1.484,1.203-2.688,2.688-2.688h241.09
				c1.484,0,2.688,1.203,2.688,2.688v139.312c0,1.484-1.203,2.688-2.688,2.688h-241.09
				C136.182,437.336,134.979,436.132,134.979,434.648z"/>
			<g>
				<rect x="162.976" y="444.819" style="fill:#4D88A5;" width="29.564" height="3.617"/>
				<rect x="324.872" y="444.819" style="fill:#4D88A5;" width="29.564" height="3.617"/>
			</g>
			<path style="fill:#1E4357;" d="M394.012,458.664H122.402c-3.114,0-5.639-2.525-5.639-5.639v-3.646
				c0-0.521,0.422-0.943,0.943-0.943h281.001c0.521,0,0.943,0.422,0.943,0.943v3.646
				C399.65,456.139,397.126,458.664,394.012,458.664z"/>
			<g>
				<path style="fill:#9CDBF2;" d="M263.87,291.401h-10.329c-0.42,0-0.76-0.341-0.76-0.76v-3.468c0-0.42,0.34-0.76,0.76-0.76h10.329
					c0.42,0,0.76,0.34,0.76,0.76v3.468C264.631,291.061,264.29,291.401,263.87,291.401z"/>
				<path style="fill:#4D88A5;" d="M260.553,288.907c0,1.02-0.827,1.848-1.847,1.848s-1.848-0.827-1.848-1.848
					c0-1.021,0.827-1.848,1.848-1.848S260.553,287.886,260.553,288.907z"/>
			</g>
		</g>
		<g>
			<g>
				<path style="fill:#DA957E;" d="M258.396,260.146c4.445,1.411,8.882-0.874,12.115-3.681c0.116-0.101,0.223-0.21,0.338-0.312
					c-0.271-0.731-0.463-1.5-0.598-2.274c-3.21,2.704-7.527,4.837-11.855,3.463c-1.652-0.524-3.223-1.364-4.703-2.426
					c-1.008-0.724-1.954-1.507-2.863-2.325c-0.088,0.793-0.224,1.59-0.438,2.379c1.041,0.971,2.124,1.904,3.3,2.749
					C255.173,258.782,256.744,259.621,258.396,260.146z"/>
				<g>
					<path style="fill:#3A657B;" d="M299.974,394.802l-32.646-1.506h-6.046h-38.74c0,0-10.903,20.563-8.73,44.126h47.471h6.046
						h40.209C309.865,407.925,299.974,394.802,299.974,394.802z"/>
					<g>
						<g>
							<path style="fill:#1E4357;" d="M257.587,425.89c-0.187,0-0.371-0.059-0.531-0.173c-0.25-0.183-0.4-0.48-0.4-0.798v-28.538
								h-0.081v-0.704h7.8v24.908c0,1.867-1.129,3.491-2.81,4.044l-3.695,1.216C257.775,425.875,257.68,425.89,257.587,425.89z
								 M257.36,396.381v28.538c0,0.092,0.041,0.177,0.109,0.227c0.04,0.027,0.099,0.052,0.18,0.03l3.695-1.216
								c1.391-0.458,2.326-1.815,2.326-3.376v-24.203H257.36z"/>
						</g>
					</g>
					<g>
						<path style="fill:#1E4357;" d="M289.281,403.642c0.146,2.088,0.651,4.129,1.463,6.022c0.821,1.884,1.887,3.675,3.322,5.149
							c1.407,1.484,3.022,2.795,4.846,3.772c0.866,0.571,1.861,0.901,2.789,1.369c0.961,0.395,1.96,0.697,2.939,1.085
							c-1.018-0.232-2.046-0.471-3.059-0.761c-0.968-0.409-2.003-0.689-2.924-1.215c-0.47-0.244-2.272-1.364-2.709-1.667
							c-0.444-0.296-0.861-0.626-1.241-1.003c-0.383-0.37-0.811-0.697-1.158-1.103c-1.448-1.572-2.568-3.438-3.307-5.428
							C289.511,407.87,289.136,405.74,289.281,403.642z"/>
						<path style="fill:#1E4357;" d="M231.315,403.642c0.145,2.098-0.23,4.228-0.961,6.22c-0.738,1.99-1.859,3.856-3.307,5.428
							c-0.346,0.407-0.774,0.734-1.158,1.103c-0.38,0.376-0.797,0.707-1.241,1.003c-0.437,0.303-0.855,0.635-1.307,0.913
							c-0.463,0.26-0.932,0.51-1.402,0.754c-0.922,0.526-1.956,0.806-2.924,1.215c-1.013,0.29-2.041,0.528-3.059,0.761
							c0.979-0.387,1.978-0.689,2.939-1.085c0.928-0.469,1.923-0.798,2.789-1.369c1.824-0.977,3.439-2.287,4.846-3.772
							c1.435-1.473,2.501-3.265,3.322-5.149C230.664,407.771,231.169,405.73,231.315,403.642z"/>
					</g>
					<g>
						<g>
							<rect x="259.946" y="424.674" style="fill:#1E4357;" width="0.704" height="12.683"/>
						</g>
					</g>
				</g>
				<path style="fill:#7CC0CC;" d="M317.482,344.408c0,0,19.096,0.107,22.354-15.921
					C339.836,328.487,322.269,329.261,317.482,344.408z"/>
				<path style="fill:#4D88A5;" d="M262.851,300.474c0,0.81-0.657,1.467-1.467,1.467c-0.81,0-1.467-0.657-1.467-1.467
					c0-0.81,0.657-1.467,1.467-1.467C262.195,299.007,262.851,299.663,262.851,300.474z"/>
				<path style="fill:#43758F;" d="M262.1,300.474c0,0.395-0.32,0.715-0.715,0.715c-0.395,0-0.716-0.32-0.716-0.715
					c0-0.395,0.32-0.716,0.716-0.716C261.78,299.758,262.1,300.078,262.1,300.474z"/>
				<path style="fill:#4D88A5;" d="M262.851,305.135c0,0.81-0.657,1.467-1.467,1.467c-0.81,0-1.467-0.657-1.467-1.467
					c0-0.81,0.657-1.467,1.467-1.467C262.195,303.669,262.851,304.325,262.851,305.135z"/>
				<path style="fill:#4D88A5;" d="M262.851,309.797c0,0.81-0.657,1.467-1.467,1.467c-0.81,0-1.467-0.656-1.467-1.467
					c0-0.81,0.657-1.467,1.467-1.467C262.195,308.331,262.851,308.987,262.851,309.797z"/>
				<path style="fill:#43758F;" d="M262.1,305.135c0,0.395-0.32,0.716-0.715,0.716c-0.395,0-0.716-0.32-0.716-0.716
					c0-0.395,0.32-0.716,0.716-0.716C261.78,304.42,262.1,304.74,262.1,305.135z"/>
				<path style="fill:#43758F;" d="M262.1,309.797c0,0.395-0.32,0.716-0.715,0.716c-0.395,0-0.716-0.32-0.716-0.716
					c0-0.395,0.32-0.715,0.716-0.715C261.78,309.082,262.1,309.402,262.1,309.797z"/>
				<path style="fill:#3A657B;" d="M296.108,244.87c-2.676-6.921,7.27-13.24,7.809-20.367c0.808-10.757-9.21-19.127-14.062-27.941
					c-3.477-6.316-7.267-17.886-16.733-16.618c-11.153,1.494-23.598,7.478-34.237,11.332c-7.348,2.663-14.798,6.53-18.506,13.535
					c-4.365,8.245,0.747,16.534-0.839,25.061c-0.923,4.961-4.387,8.669-6.392,13.202c-3.19,7.218-3.127,14.985,0.351,22.074
					c3.123,6.368,10.237,9.972,13.12,16.161c3.662,7.862-2.763,17.432,4.412,24.321c5.453,5.234,14.014,5.009,18.03,12.053
					c4.34,7.613-2.268,25.39,5.808,31.021c12.306,8.582,13.516-26.66,15.756-32.05c2.28-5.491,15.871-2.999,21.713-11.23
					c2.523-3.555,0.231-7.787-1.271-11.16c-1.354-3.041-1.525-5.685,1.145-7.926c4.795-4.025,10.502-7.242,13.655-12.887
					c3.562-6.383,0.65-12.134-2.982-17.68C300.651,252.36,297.582,248.682,296.108,244.87z"/>
				<g>
					<path style="fill:#FFAC7E;" d="M240.977,231.833c0,5.23-3.406,9.469-7.608,9.469c-4.203,0-7.61-4.239-7.61-9.469
						c0-5.231,3.407-9.469,7.61-9.469C237.571,222.364,240.977,226.603,240.977,231.833z"/>
					<path style="fill:#FF8E52;" d="M237.528,231.833c0,2.796-1.824,5.065-4.07,5.065c-2.249,0-4.071-2.269-4.071-5.065
						c0-2.797,1.822-5.065,4.071-5.065C235.704,226.768,237.528,229.036,237.528,231.833z"/>
				</g>
				<g style="opacity:0.4;">
					<path style="fill:#FFFFFF;" d="M290.775,245.867c-0.529,0.486-0.935,1.08-0.981,1.689c-0.081,0.594,0.111,1.175,0.418,1.724
						c0.621,1.096,1.542,2.094,2.498,3.075c0.955,0.987,1.976,1.952,2.977,3.017c0.507,0.529,1.003,1.093,1.488,1.735
						c0.471,0.662,0.997,1.325,1.309,2.518c0.088,0.327,0.095,0.538,0.126,0.789c0.021,0.247,0.06,0.485,0.056,0.743
						c-0.024,0.526-0.043,1.052-0.212,1.598c-0.283,1.072-0.944,2.119-1.74,2.804c-0.789,0.703-1.65,1.189-2.499,1.525
						c-0.846,0.32-1.687,0.542-2.518,0.685c-0.83,0.138-1.656,0.204-2.485,0.208c-0.862-0.003-1.603-0.064-2.332-0.121
						c-1.426-0.131-2.738-0.277-3.866-0.222c-1.139,0.03-2.002,0.255-2.6,0.683c-0.615,0.376-1.185,1.217-1.539,2.111
						c-0.337,0.922-0.458,2.005-0.39,3.152c0.09,1.146,0.358,2.342,0.775,3.512c0.835,2.347,2.249,4.59,4.088,6.409
						c0.924,0.911,1.987,1.67,3.176,2.243c0.597,0.275,1.232,0.498,1.899,0.61c0.67,0.166,1.361,0.15,2.086,0.135
						c-1.286,0.639-2.856,0.855-4.371,0.624c-1.521-0.217-2.99-0.804-4.309-1.6c-2.631-1.621-4.78-3.975-6.25-6.773
						c-0.729-1.405-1.295-2.933-1.58-4.584c-0.293-1.647-0.252-3.443,0.244-5.219c0.277-0.879,0.646-1.755,1.178-2.537
						c0.493-0.795,1.205-1.576,2.026-2.19c1.696-1.256,3.723-1.643,5.383-1.701c1.695-0.042,3.195,0.158,4.572,0.316
						c0.674,0.084,1.338,0.16,1.886,0.186c0.582,0.024,1.166-0.006,1.735-0.048c0.567-0.054,1.102-0.161,1.59-0.299
						c0.473-0.154,0.875-0.335,1.171-0.533c0.311-0.197,0.437-0.398,0.576-0.659c0.085-0.119,0.1-0.303,0.154-0.477
						c0.02-0.092,0.007-0.208,0.017-0.312c0.005-0.1,0.02-0.245,0.012-0.26c0.018-0.194-0.189-0.772-0.476-1.291
						c-0.287-0.538-0.644-1.1-1.014-1.676c-0.751-1.146-1.569-2.322-2.333-3.571c-0.744-1.255-1.508-2.576-1.847-4.145
						c-0.163-0.769-0.187-1.663,0.186-2.421C289.435,246.563,290.103,246.101,290.775,245.867z"/>
				</g>
				<g style="opacity:0.4;">
					<path style="fill:#FFFFFF;" d="M228.855,246.081c-0.768,0.736-1.461,1.522-1.864,2.372c-0.373,0.865-0.463,1.708-0.219,2.495
						c0.217,0.789,0.679,1.536,1.26,2.233c0.58,0.696,1.261,1.345,1.995,1.948c1.472,1.203,3.129,2.263,4.831,3.134
						c0.428,0.211,0.852,0.426,1.277,0.609c0.213,0.099,0.423,0.176,0.634,0.264l0.672,0.243c1.074,0.393,2.135,0.882,3.166,1.491
						c1.022,0.619,2.005,1.388,2.868,2.324c0.848,0.945,1.575,2.064,2.027,3.291c0.101,0.31,0.202,0.62,0.288,0.932
						c0.068,0.318,0.145,0.624,0.198,0.951c0.116,0.657,0.126,1.358,0.057,2.036c-0.133,1.375-0.655,2.585-1.196,3.573
						c-0.548,0.997-1.12,1.841-1.626,2.695c-0.51,0.86-1,1.731-1.431,2.635c-0.439,0.901-0.826,1.833-1.171,2.799
						c-0.34,0.967-0.619,1.97-0.882,3.004c-0.419-2.09-0.366-4.306,0.057-6.458c0.212-1.076,0.516-2.133,0.878-3.162
						c0.361-1.038,0.795-2.019,1.119-2.913c0.326-0.897,0.504-1.688,0.489-2.399c-0.01-0.36-0.058-0.707-0.152-1.07
						c-0.047-0.183-0.117-0.378-0.17-0.566l-0.221-0.544c-0.651-1.403-1.823-2.563-3.346-3.473
						c-0.753-0.465-1.585-0.858-2.455-1.208l-0.781-0.328c-0.264-0.124-0.537-0.242-0.79-0.375c-0.519-0.256-1.013-0.53-1.494-0.827
						c-1.919-1.175-3.669-2.568-5.187-4.262c-0.753-0.85-1.45-1.778-2.006-2.828c-0.558-1.038-0.977-2.239-0.989-3.528
						c-0.037-1.288,0.524-2.569,1.337-3.402C226.857,246.929,227.846,246.417,228.855,246.081z"/>
				</g>
				<g>
					<path style="fill:#FFAC7E;" d="M280.982,231.833c0,5.23,3.409,9.469,7.611,9.469c4.202,0,7.61-4.239,7.61-9.469
						c0-5.231-3.408-9.469-7.61-9.469C284.391,222.364,280.982,226.603,280.982,231.833z"/>
					<path style="fill:#FF8E52;" d="M284.433,231.833c0,2.796,1.822,5.065,4.07,5.065c2.249,0,4.072-2.269,4.072-5.065
						c0-2.797-1.823-5.065-4.072-5.065C286.255,226.768,284.433,229.036,284.433,231.833z"/>
				</g>
				<g>
					<path style="fill:#FFAC7E;" d="M283.948,280.408c-2.304-0.497-3.999-2.202-5.421-3.979c-1.583-1.978-3.159-4.069-4.02-6.478
						c-0.632-1.768-0.927-3.647-1.059-5.514c-0.026-0.367-0.031-0.768-0.033-1.187c-0.009-2.069,0.067-4.574-1.822-5.554
						c-0.574-0.298-1.233-0.339-1.872-0.376c-2.309-0.131-4.619-0.262-6.928-0.393c-0.003-0.089-0.006-0.173-0.009-0.262
						c-0.768,0.043-1.535,0.087-2.303,0.131c-0.768-0.044-1.535-0.087-2.303-0.131c-0.003,0.089-0.006,0.173-0.009,0.262
						c-2.309,0.131-4.619,0.262-6.928,0.393c-0.639,0.036-1.298,0.078-1.872,0.376c-1.889,0.98-1.813,3.485-1.822,5.554
						c-0.002,0.419-0.007,0.82-0.033,1.187c-0.235,3.335-1.57,6.396-3.265,9.235c-1.606,2.69-3.476,5.756-6.803,6.429l-0.153,0.031
						c2.229,8.481,11.867,14.873,23.471,14.873c11.458,0,20.98-6.237,23.362-14.559C284.066,280.433,284.008,280.42,283.948,280.408
						z"/>
					<path style="fill:#FFA274;" d="M273.416,263.25c-0.009-2.069,0.067-4.574-1.822-5.554c-0.574-0.298-1.233-0.34-1.872-0.376
						c-2.309-0.131-4.619-0.262-6.928-0.393c-0.003-0.089-0.006-0.173-0.009-0.262c-0.768,0.043-1.535,0.087-2.303,0.131
						c-0.768-0.044-1.535-0.087-2.303-0.131c-0.003,0.089-0.006,0.173-0.009,0.262c-2.309,0.131-4.619,0.262-6.928,0.393
						c-0.639,0.036-1.298,0.078-1.872,0.376c-1.889,0.98-1.813,3.485-1.822,5.554c-0.002,0.419-0.007,0.82-0.033,1.187
						c-0.235,3.335-1.57,6.396-3.265,9.235c-1.606,2.69-3.476,5.756-6.803,6.429l-0.153,0.031c0.079,0.302,0.189,0.596,0.287,0.893
						c13.894-0.899,26.158-7.429,35.854-17.148C273.428,263.668,273.417,263.471,273.416,263.25z"/>
				</g>
				<path style="opacity:0.2;fill:#F09D6C;" d="M262.376,271.253c3.586,0.297,6.306-2.479,9.746-4.147l0.725-19.937
					c0-6.019-5.841-10.955-12.608-10.955h-1.122c-6.768,0-9.833,4.392-9.833,10.412l-1.087,18.669
					C252.077,267.983,258.398,270.923,262.376,271.253z"/>
				<path style="fill:#FFAC7E;" d="M290.097,227.712c-2.58,16.66-16.193,39.526-30.09,38.232
					c-14.058-1.309-29.381-27.486-27.612-44.25c2.672-25.333,15.092-36.594,32.648-35.046
					C282.597,188.194,294.198,201.236,290.097,227.712z"/>
				<g>
					<path style="fill:#FFA274;" d="M281.424,192.092c-0.341,0.037-0.642,0.124-0.911,0.246c-4.215-3.277-9.486-5.163-15.47-5.69
						c-17.556-1.547-29.976,9.714-32.648,35.046c-0.057,0.543-0.091,1.099-0.112,1.66c-0.003,0.081-0.006,0.164-0.008,0.246
						c-0.013,0.43-0.015,0.862-0.008,1.301c0.002,0.11,0.002,0.218,0.005,0.328c0.013,0.455,0.034,0.915,0.066,1.38
						c0.005,0.073,0.007,0.145,0.012,0.216c0.039,0.506,0.09,1.016,0.152,1.531c0.026,0.225,0.06,0.452,0.091,0.679
						c0.041,0.283,0.079,0.566,0.125,0.851c0.046,0.284,0.095,0.57,0.146,0.857c0.042,0.222,0.085,0.445,0.128,0.67
						c0.064,0.315,0.125,0.633,0.196,0.951c0.005,0.025,0.01,0.05,0.016,0.074l0.001-0.001
						c3.414,15.371,15.509,32.456,26.798,33.506c12.44,1.159,24.646-17.039,28.92-32.818c0.004-0.015,0.008-0.031,0.012-0.046
						c0.152-0.563,1.197-5.615,1.207-5.678c-0.006,0.033-0.019,0.097-0.027,0.152C292.536,211.741,288.152,198.7,281.424,192.092z
						 M260.007,260.634c-10.386-0.43-21.388-15.214-25.77-29.595c0.923-1.363,3.877,0.597,6.888-2.916
						c4.385-5.116,5.127-10.124,10.538-14.051c7.68-5.576,14.064-8.498,22.199-13.028c1.713-0.954,3.525-2.268,4.91-3.77
						c0.354,4.51,2.926,10.606,4.203,12.553c1.857,2.831,3.257,5.963,3.472,9.383c0.198,3.157-1.521,20.894,1.332,16.828
						C284.253,246.128,276.232,261.306,260.007,260.634z"/>
				</g>
				<g>
					<path style="fill:#3A657B;" d="M280.26,187.125c-1.665-1.041-3.969-1.397-6.077-1.508c-4.632-0.246-8.633-1.398-12.968-1.222
						c-4.835,0.198-8.708,2.363-12.952,5.1c-2.976,1.918-6.018,4.506-8.475,7.073c-1.865,1.949-3.976,3.854-5.534,5.99
						c-1.936,2.656-1.299,5.095-2.403,7.834c-1.844,4.582-5.672,8.058-6.621,13.131c-0.33,1.763-0.503,5.876,1.829,6.67
						c5.659,1.932,9.287-3.605,11.744-7.765c3.193-5.404,6.252-10.989,11.706-14.461c7.742-4.928,17.59-4.369,25.773-8.327
						C281.446,197.14,287.592,191.72,280.26,187.125z"/>
				</g>
				<path style="fill:#3A657B;" d="M295.895,205.487c0.615-6.785-4.349-11.504-10.193-12.922l0.898,0.31
					c-10.05-3.046-4.898,11.765-2.563,15.32c1.859,2.831,3.258,5.963,3.472,9.383c0.254,4.039-2.633,31.955,4.935,7.529
					C294.842,217.365,295.173,213.433,295.895,205.487z"/>
				<path style="fill:#325C70;" d="M293.934,216.978c-6.61,23.331-4.809-3.153-5.222-6.963c-0.348-3.226-1.865-6.144-3.835-8.762
					c-0.82-1.096-1.998-3.367-2.835-5.808c1.202-1.415,1.874-2.985,1.466-4.576c-1.616,1.702-4.021,3.127-6.239,4.07
					c-8.802,3.736-19.125,2.641-27.514,7.421c-5.911,3.366-9.415,9.078-13.049,14.592c-2.619,3.973-6.376,9.158-11.638,7.905
					c-0.132,1.978,0.139,4.704,1.991,5.335c5.659,1.932,11.608-0.703,14.066-4.863c3.193-5.404,7.258-12.252,12.713-15.723
					c7.742-4.928,14.262-6.008,22.445-9.966c1.488-0.72,3.051-1.684,4.354-2.8c-0.059,3.929,2.104,9.379,3.401,11.356
					c1.859,2.831,3.258,5.963,3.472,9.383c0.254,4.039-2.633,31.955,4.935,7.529c1.755-5.67,2.404-9.3,2.908-13.955
					C295.01,212.902,294.559,214.776,293.934,216.978z"/>
				<g style="opacity:0.4;">
					<path style="fill:#21485C;" d="M259.167,188.952c-0.419,1.187-1.183,2.262-2.143,3.117c-0.955,0.869-2.091,1.512-3.26,2.037
						c-2.363,1.027-4.856,1.586-7.333,2.064c-2.475,0.486-4.948,0.825-7.312,1.459c-2.354,0.609-4.651,1.485-6.542,2.878
						c-1.908,1.353-3.197,3.375-3.937,5.643c-0.772,2.262-1.089,4.749-1.413,7.202c-0.292,2.47-0.526,5.033-1.344,7.484
						c-0.835,2.431-2.122,4.625-3.532,6.7c1.083-2.263,2.15-4.544,2.726-6.936c0.592-2.377,0.643-4.862,0.822-7.372
						c0.079-1.263,0.203-2.527,0.388-3.788c0.184-1.263,0.428-2.535,0.813-3.79c0.386-1.253,0.939-2.481,1.685-3.604
						c0.743-1.124,1.698-2.117,2.778-2.916c2.182-1.562,4.672-2.479,7.168-3.07c2.506-0.572,5.015-0.877,7.485-1.203
						c2.457-0.359,4.925-0.73,7.242-1.529C255.765,192.568,257.975,191.205,259.167,188.952z"/>
				</g>
				<g style="opacity:0.1;">
					<path style="fill:#FFFFFF;" d="M219.273,249.831c-0.038,1.594-0.035,3.132,0.03,4.651c0.085,1.516,0.228,3.007,0.534,4.454
						c0.311,1.446,0.781,2.832,1.427,4.161c0.645,1.344,1.587,2.498,2.607,3.745c-1.435-0.663-2.798-1.682-3.743-3.045
						c-0.951-1.347-1.631-2.9-1.963-4.51c-0.306-1.613-0.381-3.252-0.19-4.853C218.163,252.838,218.545,251.262,219.273,249.831z"/>
				</g>
				<path style="fill:#FFAC7E;" d="M107.515,326.138c4.07,2.72,6.369,2.043,6.826,1.439c0.458-0.608-3.553-3.062-7.619-5.786
					c-4.067-2.721-7.782-4.895-8.239-4.289c-0.12,0.16,0.813,1.19,1.612,2.008C101.849,321.303,104.521,324.133,107.515,326.138z"/>
				<path style="fill:#FFAC7E;" d="M104.833,313.196c2.59-0.019,5.71,6.764,9.149,7.921c2.448,0.823,7.425-0.727,10.189-1.388
					c9.887-2.362,14.367-2.986,17.358,0.78l0.03-0.029c0,0,39.416,47.939,43.56,34.209l13.861-48.656l20.2,14.264
					c0,0-13.523,87.886-52.427,49.227c0,0-23.789-24.157-30.554-42.321c-4.863,1.22-11.912,1.952-19.576,1.898
					c-1.712-0.012-4.188,0.02-4.475-2.119c-0.046-0.354-1.745,0.241-2.165-2.011c-0.303-1.619-1.298,0.916-2.404-4.899
					C106.819,316.081,102.754,313.211,104.833,313.196z"/>
				<g style="opacity:0.2;">
					<path style="fill:#FFAC7E;" d="M146.662,345.604c-11.864-18.77-8.057-17.904-6.345-19.635l2.292-1.616l-6.411,2.85
						C138.207,332.649,142.036,339.129,146.662,345.604z"/>
					<path style="fill:#FFAC7E;" d="M168.257,366.27c36.711,29.576,44.802-30.983,46.377-49.183l4.546,3.21
						c0,0-13.523,87.886-52.427,49.227c0,0-10.936-11.107-20.09-23.92C156.922,356.936,168.257,366.27,168.257,366.27z"/>
				</g>
				<g>
					<path style="fill:#FFAC7E;" d="M132.943,313.359c-0.593-4.352-0.92-9.841,2.564-8.859c0,0-1.571,2.167,2.024,7.257
						c1.29,1.829,1.353,5.823,3.685,8.613c-2.183-0.783-6.593,2.475-9.121,1.535C132.798,320.31,133.223,315.415,132.943,313.359z"
						/>
					<path style="fill:#FFAC7E;" d="M110.694,322.56c0.55,3.589,1.545,3.529,2.264,3.439c0.721-0.09,0.859-3.073,0.311-6.661
						c-0.552-3.588-1.58-6.425-2.3-6.335c-0.227,0.027-0.318,1.149-0.367,2.084C110.501,317.128,110.318,320.107,110.694,322.56z"/>
					<path style="fill:#FFAC7E;" d="M113.531,324.455c-0.447,2.315,0.408,2.506,1.039,2.616c0.63,0.109,1.505-1.678,1.953-3.993
						c0.447-2.317,0.302-4.283-0.331-4.392c-0.266-0.046-0.56,0.797-1.009,1.689C114.57,321.595,113.79,323.117,113.531,324.455z"/>
				</g>
				<path style="fill:#A1E5F1;" d="M340.463,326.845c-0.82,0.62-1.63,1.17-2.44,1.67c-0.06,0.03-0.11,0.07-0.19,0.12
					c-1.39,0.85-2.77,1.55-4.12,2.18c-3,1.39-5.86,2.39-8.43,3.76c-1.32,0.7-2.56,1.49-3.69,2.49c-0.01,0.01-0.02,0.01-0.03,0.03
					c-1.14,1-2.17,2.21-3.09,3.75c-0.293,0.495-0.575,1.03-0.837,1.605c-0.223,0.02-0.269,0.024-0.492,0.044
					c-2.675-4.374-12.152-12.658-13.591-15.999c-2.39,16.66-12.5,36.68-7.61,52.96c1.76,5.84,3.45,10.83,4.97,15.07
					c2.29,6.37,5.344,13.64,6.574,17.11c1.666,4.7-10.723,4.72-12.781,4.758c-13.142,0.242-25.829,1.876-38.973,1.876
					c-13.075-0.077-25.787-1.48-38.744-2.603c-1.008-0.087-1.725-1.034-1.515-2.024c2.43-11.478,6.169-22.876,9.219-34.187
					c4.82-17.86-2.27-28.46-5.86-48.29c-0.58-3.19-1.58,9.93-2.66,16.31c-0.05,0.3-0.1,0.58-0.15,0.84c0,0.02,0,0.04-0.01,0.05
					c-0.29,1.52-0.59,2.47-0.88,2.42c-1.43-0.26-2.82-0.48-4.17-0.66c-0.94-0.13-1.86-0.24-2.76-0.34
					c-9.83-1.08-16.97-0.52-20.37-1.51c-0.01-0.01-0.03-0.01-0.04-0.02c-0.02,0.01-0.04,0-0.06-0.01c-0.59-0.18-1.05-0.4-1.4-0.71
					c-0.74-0.62-0.93-1.55-0.51-2.95c0.02-0.06,0.04-0.12,0.05-0.18c4.73-15.87,8.99-27.93,12.84-36.8c0.2-0.45,0.39-0.9,0.59-1.33
					c5.14-11.55,9.55-17.34,13.36-18.9c3.61-1.48,8.77-3.26,14.38-5.02c3.48-1.09,7.13-2.17,10.68-3.17l0.44,0.32l0.37,0.27l1,0.73
					l0.43,0.31l0.9,0.66l18.53,13.5l0.46,0.33l0.4-0.31l17.17-13.43l2.84-2.22l0.61-0.47l0.33-0.26c4.55,1.14,9.65,2.51,15.65,4.1
					c2.31,0.61,4.75,1.26,7.35,1.94c5.01,1.3,26.01,25.58,35.81,41.46C340.173,326.365,340.313,326.605,340.463,326.845z"/>
				<path style="fill:#1E4357;" d="M216.173,347.475c-0.05,0.3-0.1,0.58-0.15,0.84c0,0.02,0,0.04-0.01,0.05
					c-0.3,1.23-0.661,2.277-0.661,2.277c-1.59,0.16-3.279,0.323-4.669,0.293c-0.98-0.01-1.91-0.05-2.82-0.07
					c-0.63-0.01-1.24-0.01-1.84,0c-0.97,0.03-1.9,0.05-2.79,0c-9.06-0.55-13.27-1.71-15.4-2.59c-0.01-0.01-0.03-0.01-0.04-0.02
					c-0.02-0.01-0.04-0.02-0.06-0.02c-0.63-0.27-1.07-0.51-1.4-0.7c-0.74-0.62-0.93-1.55-0.51-2.95c0.02-0.06,0.04-0.12,0.05-0.18
					c0.7,0.35,1.56,0.72,2.61,1.08c3.94,1.38,10.44,2.66,20.27,2.42c0.96-0.02,1.96-0.06,3-0.11
					C213.163,347.715,214.633,347.615,216.173,347.475z"/>
				<g>
					<polygon style="fill:#1E4357;" points="281.835,278.074 259.376,295.685 271.612,303.982 287.491,280.141 					"/>
					<polygon style="fill:#1E4357;" points="237.688,278.074 260.147,295.685 247.911,303.982 232.032,280.141 					"/>
				</g>
				<g>
					<g>
						<path style="fill:#9CDBF2;" d="M265.505,258.56c-0.369,0-0.683-0.287-0.71-0.662c-0.028-0.393,0.267-0.734,0.66-0.763
							l11.569-0.84c8.101-0.001,13.508-8.325,13.508-16.098c0-0.394,0.319-0.713,0.713-0.713c0.394,0,0.713,0.319,0.713,0.713
							c0,8.427-5.69,17.523-14.884,17.523l-11.518,0.839C265.54,258.56,265.523,258.56,265.505,258.56z"/>
					</g>
					<path style="fill:#3A657B;" d="M267.671,260.295h-5.251c-0.809,0-1.464-0.655-1.464-1.464v-1.968
						c0-0.809,0.655-1.464,1.464-1.464h5.252c0.809,0,1.464,0.655,1.464,1.464v1.968
						C269.135,259.639,268.48,260.295,267.671,260.295z"/>
					<path style="fill:#EFE9BC;" d="M261.152,195.116c16.571,0,28.256,13.21,29.779,30.465c1.669,0.293,2.97,0.707,2.97-0.381
						c0-18.768-15.158-36.535-32.749-36.535c-17.591,0-33.714,18.475-33.714,37.243c0,1.088,1.486,0.257,3.123,0.313
						C232.084,208.967,244.58,195.116,261.152,195.116z"/>
					<g>
						<g>
							<path style="fill:#EFE9BC;" d="M233.266,241.842h-4.554c-2.003,0-3.627-1.624-3.627-3.627v-13.679
								c0-2.003,1.624-3.627,3.627-3.627h4.554c0.05,0,0.091,0.041,0.091,0.091v20.751
								C233.357,241.801,233.317,241.842,233.266,241.842z"/>
							<path style="fill:#9CDBF2;" d="M234.383,220.909h-1.152c0.07,0,0.126,0.057,0.126,0.126v20.68
								c0,0.07-0.056,0.126-0.126,0.126h1.152c0.07,0,0.126-0.056,0.126-0.126v-20.68
								C234.509,220.966,234.453,220.909,234.383,220.909z"/>
							<path style="fill:#9CDBF2;" d="M225.086,235.916h-0.927c-0.612,0-1.109-0.496-1.109-1.109v-6.864
								c0-0.612,0.496-1.108,1.109-1.108h0.927V235.916z"/>
						</g>
						<g>
							<path style="fill:#EFE9BC;" d="M288.072,241.842h4.554c2.003,0,3.626-1.624,3.626-3.626v-13.68
								c0-2.003-1.624-3.627-3.627-3.627h-4.554c-0.05,0-0.091,0.041-0.091,0.091v20.751
								C287.981,241.801,288.022,241.842,288.072,241.842z"/>
							<path style="fill:#9CDBF2;" d="M286.955,220.909h1.152c-0.07,0-0.126,0.057-0.126,0.126v20.68
								c0,0.07,0.056,0.126,0.126,0.126h-1.152c-0.07,0-0.126-0.056-0.126-0.126v-20.68
								C286.829,220.966,286.885,220.909,286.955,220.909z"/>
							<path style="fill:#9CDBF2;" d="M296.252,235.916h0.927c0.612,0,1.109-0.496,1.109-1.109v-6.864
								c0-0.612-0.496-1.108-1.108-1.108h-0.927V235.916z"/>
						</g>
					</g>
				</g>
				<g>
					<path style="fill:#1E4357;" d="M262.088,301.189c0,0.81-0.657,1.467-1.466,1.467c-0.81,0-1.467-0.657-1.467-1.467
						c0-0.81,0.657-1.467,1.467-1.467C261.431,299.722,262.088,300.379,262.088,301.189z"/>
					<path style="fill:#43758F;" d="M261.336,301.189c0,0.395-0.32,0.715-0.715,0.715c-0.395,0-0.716-0.32-0.716-0.715
						c0-0.395,0.32-0.716,0.716-0.716C261.016,300.474,261.336,300.794,261.336,301.189z"/>
					<path style="fill:#1E4357;" d="M262.088,305.851c0,0.81-0.657,1.467-1.466,1.467c-0.81,0-1.467-0.657-1.467-1.467
						c0-0.81,0.657-1.467,1.467-1.467C261.431,304.384,262.088,305.041,262.088,305.851z"/>
					<path style="fill:#1E4357;" d="M262.088,310.513c0,0.81-0.657,1.467-1.466,1.467c-0.81,0-1.467-0.656-1.467-1.467
						c0-0.81,0.657-1.467,1.467-1.467C261.431,309.046,262.088,309.703,262.088,310.513z"/>
					<path style="fill:#43758F;" d="M261.336,305.851c0,0.395-0.32,0.716-0.715,0.716c-0.395,0-0.716-0.32-0.716-0.716
						c0-0.395,0.32-0.716,0.716-0.716C261.016,305.136,261.336,305.456,261.336,305.851z"/>
					<path style="fill:#43758F;" d="M261.336,310.513c0,0.395-0.32,0.716-0.715,0.716c-0.395,0-0.716-0.32-0.716-0.716
						c0-0.395,0.32-0.715,0.716-0.715C261.016,309.798,261.336,310.118,261.336,310.513z"/>
				</g>
				<g style="opacity:0.1;">
					<path style="fill:#FFFFFF;" d="M284.827,197.541c1.237-0.264,2.591,0.092,3.698,0.818c1.132,0.718,1.966,1.851,2.475,3.05
						c0.284,0.599,0.423,1.229,0.569,1.856c0.111,0.629,0.16,1.264,0.175,1.892c-0.026,0.627-0.06,1.252-0.153,1.864
						c-0.136,0.611-0.267,1.215-0.476,1.801c-0.171-0.613-0.265-1.208-0.364-1.796c-0.104-0.587-0.252-1.159-0.335-1.73
						c-0.159-0.556-0.268-1.117-0.426-1.654c-0.183-0.527-0.319-1.069-0.56-1.555c-0.423-1.001-0.978-1.915-1.735-2.689
						C286.929,198.636,285.989,197.989,284.827,197.541z"/>
				</g>
				<g style="opacity:0.1;">
					<path style="fill:#FFFFFF;" d="M233.174,214.301c-0.72-1.611-1.032-3.415-0.868-5.25c0.071-0.921,0.336-1.844,0.751-2.723
						c0.435-0.87,1.107-1.649,1.907-2.238c0.812-0.579,1.746-0.94,2.676-1.112c0.929-0.167,1.89-0.173,2.689-0.158
						c1.673-0.028,3.337-0.192,5.04-0.632c-1.399,1.09-3.165,1.681-4.922,1.961c-0.919,0.152-1.693,0.185-2.449,0.408
						c-0.752,0.199-1.451,0.497-2.043,0.925c-1.215,0.822-1.948,2.221-2.337,3.786C233.24,210.845,233.146,212.55,233.174,214.301z"
						/>
				</g>
				<path style="fill:none;" d="M249.083,376.659c0-0.057,0-0.113,0-0.17"/>
				<rect x="272.969" y="326.494" style="fill:#1E4357;" width="21.966" height="3.986"/>
				<path style="fill:#FFAC7E;" d="M191.238,368.174"/>
				<path style="fill:#FFAC7E;" d="M186.343,354.717"/>
				<g>
					<path style="fill:#E39164;" d="M184.33,357.312c2.489,1.06,4.709,2.752,6.486,4.836c0.877,1.052,1.644,2.211,2.184,3.477
						c0.558,1.255,0.887,2.607,0.959,3.955c-0.917-2.541-2.201-4.804-3.909-6.791C188.375,360.784,186.402,359.041,184.33,357.312z"
						/>
				</g>
				<g>
					<path style="fill:#FFAC7E;" d="M353.291,343.158c-12.828-16.313-7.563-8.723-14.54-17.207
						c-2.929,1.567-12.55,7.373-19.909,13.299c0.065,0.075,0.129,0.135,0.194,0.211c2.623,2.891,6.43,6.268,9.503,8.707
						c1.888,1.487,8.905,5.059,6.711,8.466c-1.237,1.918-21.514,25.751-21.514,25.751c-0.451,0.94-8.354,10.042-8.978,10.954
						c-0.363,0.53-0.813,0.965-1.419,1.199c-3.599,1.388-7.497,0.305-11.221,0.708c-3.475,0.376-6.824,2.678-9.369,4.977
						c-2.03,1.834-4.637,3.364-7.02,4.688c-2.781,1.545-1.815,5.725,2.431,3.582c-1.303,1.225-5.588,2.666-4.93,4.91
						c0,0.001,0.607,2.069,2.928,1.495c0,0-0.012,3.728,3.266,2.457l2.838-1.838c0,0-0.723,4.098,2.399,2.041
						c2.829-1.245,5.655-2.493,8.481-3.745c2.017-0.894,4.033-1.789,6.026-2.729c2.57-1.212,5.412-1.346,8.187-1.694
						c3.239-0.407,4.896-2.582,7.166-4.568c5.029-4.4,11.359-9.454,16.153-14.194c4.683-4.631,10.24-10.321,14.624-15.236
						c4.11-4.608,6.207-6.802,9.848-11.795c1.664-2.282,4.891-5.858,4.853-8.912C359.94,350.067,353.291,343.158,353.291,343.158z"
						/>
					<path style="fill:#FFFFFF;" d="M273.639,407.504c0.293-0.262,2.815-2.1,3.4-1.333c1.402,1.835-1.135,2.61-2.327,3.277
						C274.526,409.552,273.4,407.718,273.639,407.504z"/>
					<path style="fill:#FFFFFF;" d="M273.149,412.875c0.293-0.262,2.815-2.1,3.4-1.334c1.402,1.835-1.135,2.61-2.327,3.277
						C274.036,414.922,272.91,413.089,273.149,412.875z"/>
					<path style="fill:#FFFFFF;" d="M275.754,415.786c0.293-0.262,2.815-2.1,3.4-1.334c1.402,1.835-1.135,2.61-2.327,3.277
						C276.641,417.834,275.515,416,275.754,415.786z"/>
					<path style="fill:#FFFFFF;" d="M281.702,416.457c0.271-0.242,2.606-1.944,3.148-1.234c1.298,1.699-1.051,2.416-2.154,3.033
						C282.523,418.353,281.48,416.655,281.702,416.457z"/>
					<path style="fill:#E8895A;" d="M276.158,414.897c2.137-1.837,4.392-3.531,6.679-5.178c2.335-1.577,4.657-3.169,7.046-4.665
						c-2.267,1.674-4.621,3.221-6.902,4.869C280.645,411.495,278.428,413.228,276.158,414.897z"/>
					<path style="fill:#E8895A;" d="M282.425,415.404c1.525-1.275,3.056-2.536,4.666-3.712c1.63-1.147,3.344-2.161,5.1-3.092
						c-1.65,1.109-3.352,2.133-4.955,3.295c-0.813,0.565-1.594,1.176-2.392,1.768C284.05,414.259,283.243,414.84,282.425,415.404z"
						/>
					<path style="fill:#E8895A;" d="M278.16,408.492c1.435-1.366,2.89-2.714,4.488-3.903c1.614-1.162,3.314-2.186,5.051-3.139
						c-1.629,1.13-3.319,2.165-4.904,3.341c-0.802,0.575-1.565,1.201-2.328,1.83C279.706,407.251,278.939,407.879,278.16,408.492z"
						/>
					<path style="fill:#1E4357;" d="M340.463,326.845c0,0-1-1.76-1.637-2.609c-3.674,1.535-8.442,3.858-12.494,7.051
						c-4.669,3.679-7.844,7.174-10.35,10.8c1.016,1.187,1.733,2.064,1.837,2.193C325.941,332.325,340.463,326.845,340.463,326.845z"
						/>
					<g style="opacity:0.22;">
						<path style="fill:#FFAC7E;" d="M305.048,393.41c11.484-12.976,25.397-25.219,34.823-36.377
							c1.33-1.575,1.814-3.111,0.598-4.915c-3.984-5.91-12.728-14.842-20.208-15.274c1.726,0.1-1.564,2.608-0.445,3.763
							c2.837,2.929,10.451,8.575,13.708,11.022c0.701,0.526,1.425,1.08,1.821,1.862c0.854,1.688-0.11,3.702-1.156,5.278
							c-2.922,4.402-6.66,7.998-10.188,11.885c-1.673,1.843-3.221,3.817-4.831,5.718c-4.017,4.744-7.924,9.504-11.834,14.377
							c-1.443,1.798-3.028,3.277-4.848,4.697C303.353,394.776,304.328,394.225,305.048,393.41z"/>
					</g>
				</g>
				<g style="opacity:0.13;">
					<path style="fill:none;stroke:#E39164;stroke-width:0.25;stroke-linecap:round;stroke-miterlimit:10;" d="M278.39,405.21
						c0.076,0.23,0.152,0.46,0.229,0.69"/>
					<path style="fill:none;stroke:#E39164;stroke-width:0.25;stroke-linecap:round;stroke-miterlimit:10;" d="M279.172,404.822
						c0.128,0.255,0.255,0.511,0.383,0.766"/>
					<path style="fill:none;stroke:#E39164;stroke-width:0.25;stroke-linecap:round;stroke-miterlimit:10;" d="M279.631,404.209
						c0.179,0.306,0.358,0.613,0.536,0.919"/>
				</g>
				<path style="opacity:0.13;fill:none;stroke:#E39164;stroke-width:0.25;stroke-linecap:round;stroke-miterlimit:10;" d="
					M279.248,409.571c0.179,0.204,0.358,0.408,0.536,0.613"/>
				<path style="opacity:0.13;fill:none;stroke:#E39164;stroke-width:0.25;stroke-linecap:round;stroke-miterlimit:10;" d="
					M279.965,408.939c0.177,0.257,0.353,0.514,0.53,0.77"/>
				<path style="opacity:0.3;fill:#E39164;" d="M288.206,397.701c-0.316-0.551,0.488-1.148,0.932-0.715
					c0.199,0.194,0.321,0.455,0.413,0.723c0.064,0.186,0.115,0.384,0.089,0.587c-0.026,0.203-0.144,0.414-0.332,0.504
					C288.713,399.086,288.311,398.095,288.206,397.701"/>
				<path style="opacity:0.3;fill:#E39164;" d="M289.954,401.888c-0.316-0.551,0.488-1.148,0.932-0.714
					c0.199,0.194,0.321,0.455,0.413,0.723c0.064,0.186,0.115,0.384,0.089,0.587c-0.026,0.203-0.144,0.414-0.332,0.504
					C290.46,403.273,290.059,402.282,289.954,401.888"/>
				<path style="opacity:0.3;fill:#E39164;" d="M292.262,405.444c-0.316-0.551,0.488-1.148,0.932-0.714
					c0.199,0.194,0.321,0.455,0.413,0.723c0.064,0.186,0.115,0.384,0.089,0.587s-0.144,0.414-0.332,0.504
					C292.769,406.829,292.367,405.837,292.262,405.444"/>
				<path style="opacity:0.3;fill:#E39164;" d="M294.407,410.193c-0.316-0.551,0.488-1.148,0.932-0.714
					c0.199,0.194,0.321,0.455,0.413,0.723c0.064,0.186,0.115,0.384,0.089,0.587c-0.026,0.203-0.144,0.414-0.332,0.504
					C294.914,411.578,294.512,410.586,294.407,410.193"/>
			</g>
			<g>
				<path style="fill:#A1E5F1;" d="M128.432,321.759H66.877c-3.125,0-5.658-2.533-5.658-5.658v-27.28
					c0-3.125,2.533-5.658,5.658-5.658h61.555c3.125,0,5.658,2.533,5.658,5.658v27.28
					C134.09,319.226,131.557,321.759,128.432,321.759z"/>
				<path style="fill:#A1E5F1;" d="M122.65,321.759l-18.616,17.392c-0.804,0.577-2.036-0.001-1.855-0.871l-0.851-16.521H122.65z"/>
				<g>
					<path style="fill:#1E4357;" d="M88.356,302.461c0,2.406-1.95,4.356-4.356,4.356c-2.406,0-4.356-1.95-4.356-4.356
						c0-2.406,1.95-4.356,4.356-4.356C86.406,298.106,88.356,300.056,88.356,302.461z"/>
					<path style="fill:#CBA327;" d="M102.01,302.461c0,2.406-1.95,4.356-4.356,4.356c-2.406,0-4.356-1.95-4.356-4.356
						c0-2.406,1.95-4.356,4.356-4.356C100.06,298.106,102.01,300.056,102.01,302.461z"/>
					<path style="fill:#FFFFFF;" d="M115.665,302.461c0,2.406-1.95,4.356-4.356,4.356c-2.406,0-4.356-1.95-4.356-4.356
						c0-2.406,1.95-4.356,4.356-4.356C113.714,298.106,115.665,300.056,115.665,302.461z"/>
				</g>
			</g>
		</g>
	</g>
</g>
</svg>
